%TF.GenerationSoftware,KiCad,Pcbnew,9.0.4-1.fc42*%
%TF.CreationDate,2025-10-01T21:15:54+08:00*%
%TF.ProjectId,lan_outlet,6c616e5f-6f75-4746-9c65-742e6b696361,rev?*%
%TF.SameCoordinates,Original*%
%TF.FileFunction,Soldermask,Bot*%
%TF.FilePolarity,Negative*%
%FSLAX46Y46*%
G04 Gerber Fmt 4.6, Leading zero omitted, Abs format (unit mm)*
G04 Created by KiCad (PCBNEW 9.0.4-1.fc42) date 2025-10-01 21:15:54*
%MOMM*%
%LPD*%
G01*
G04 APERTURE LIST*
G04 Aperture macros list*
%AMRoundRect*
0 Rectangle with rounded corners*
0 $1 Rounding radius*
0 $2 $3 $4 $5 $6 $7 $8 $9 X,Y pos of 4 corners*
0 Add a 4 corners polygon primitive as box body*
4,1,4,$2,$3,$4,$5,$6,$7,$8,$9,$2,$3,0*
0 Add four circle primitives for the rounded corners*
1,1,$1+$1,$2,$3*
1,1,$1+$1,$4,$5*
1,1,$1+$1,$6,$7*
1,1,$1+$1,$8,$9*
0 Add four rect primitives between the rounded corners*
20,1,$1+$1,$2,$3,$4,$5,0*
20,1,$1+$1,$4,$5,$6,$7,0*
20,1,$1+$1,$6,$7,$8,$9,0*
20,1,$1+$1,$8,$9,$2,$3,0*%
G04 Aperture macros list end*
%ADD10C,6.400000*%
%ADD11R,1.700000X1.700000*%
%ADD12C,1.700000*%
%ADD13RoundRect,0.250000X-0.950000X-0.550000X0.950000X-0.550000X0.950000X0.550000X-0.950000X0.550000X0*%
%ADD14O,2.400000X1.600000*%
%ADD15R,1.800000X1.275000*%
%ADD16O,1.800000X1.275000*%
%ADD17C,2.400000*%
%ADD18RoundRect,0.250001X1.149999X1.149999X-1.149999X1.149999X-1.149999X-1.149999X1.149999X-1.149999X0*%
%ADD19C,2.800000*%
%ADD20RoundRect,0.250001X-1.149999X1.149999X-1.149999X-1.149999X1.149999X-1.149999X1.149999X1.149999X0*%
%ADD21RoundRect,0.250000X-1.000000X1.000000X-1.000000X-1.000000X1.000000X-1.000000X1.000000X1.000000X0*%
%ADD22C,2.500000*%
%ADD23RoundRect,0.249999X-0.850001X-0.850001X0.850001X-0.850001X0.850001X0.850001X-0.850001X0.850001X0*%
%ADD24C,2.200000*%
%ADD25RoundRect,0.249999X0.850001X0.850001X-0.850001X0.850001X-0.850001X-0.850001X0.850001X-0.850001X0*%
%ADD26RoundRect,0.250000X-0.550000X-0.550000X0.550000X-0.550000X0.550000X0.550000X-0.550000X0.550000X0*%
%ADD27C,1.600000*%
%ADD28RoundRect,0.250000X0.750000X0.750000X-0.750000X0.750000X-0.750000X-0.750000X0.750000X-0.750000X0*%
%ADD29C,2.000000*%
G04 APERTURE END LIST*
D10*
%TO.C,H4*%
X177500000Y-131500000D03*
%TD*%
%TO.C,H3*%
X100500000Y-131500000D03*
%TD*%
%TO.C,H2*%
X177500000Y-63500000D03*
%TD*%
%TO.C,H1*%
X100500000Y-63500000D03*
%TD*%
D11*
%TO.C,W5500_right1*%
X135500000Y-60300000D03*
D12*
X135500000Y-62840000D03*
X135500000Y-65380000D03*
X135500000Y-67920000D03*
X135500000Y-70460000D03*
X135500000Y-73000000D03*
%TD*%
D11*
%TO.C,W5500_left1*%
X115000000Y-60260000D03*
D12*
X115000000Y-62800000D03*
X115000000Y-65340000D03*
X115000000Y-67880000D03*
X115000000Y-70420000D03*
X115000000Y-72960000D03*
%TD*%
D13*
%TO.C,U3*%
X121500000Y-85260000D03*
D14*
X121500000Y-87800000D03*
X121500000Y-90340000D03*
X121500000Y-92880000D03*
X121500000Y-95420000D03*
X121500000Y-97960000D03*
X121500000Y-100500000D03*
X121500000Y-103040000D03*
X121500000Y-105580000D03*
X129120000Y-105580000D03*
X129120000Y-103040000D03*
X129120000Y-100500000D03*
X129120000Y-97960000D03*
X129120000Y-95420000D03*
X129120000Y-92880000D03*
X129120000Y-90340000D03*
X129120000Y-87800000D03*
X129120000Y-85260000D03*
%TD*%
D13*
%TO.C,U2*%
X133880000Y-85420000D03*
D14*
X133880000Y-87960000D03*
X133880000Y-90500000D03*
X133880000Y-93040000D03*
X133880000Y-95580000D03*
X133880000Y-98120000D03*
X133880000Y-100660000D03*
X133880000Y-103200000D03*
X133880000Y-105740000D03*
X141500000Y-105740000D03*
X141500000Y-103200000D03*
X141500000Y-100660000D03*
X141500000Y-98120000D03*
X141500000Y-95580000D03*
X141500000Y-93040000D03*
X141500000Y-90500000D03*
X141500000Y-87960000D03*
X141500000Y-85420000D03*
%TD*%
D15*
%TO.C,U1*%
X108450000Y-67900000D03*
D16*
X108450000Y-66200000D03*
X108450000Y-64500000D03*
X108450000Y-62800000D03*
X108450000Y-61100000D03*
%TD*%
D17*
%TO.C,L1*%
X110000000Y-85000000D03*
X115000000Y-85000000D03*
%TD*%
D18*
%TO.C,J3*%
X159000000Y-125500000D03*
D19*
X154000000Y-125500000D03*
X149000000Y-125500000D03*
X144000000Y-125500000D03*
X139000000Y-125500000D03*
X134000000Y-125500000D03*
X129000000Y-125500000D03*
X124000000Y-125500000D03*
X119000000Y-125500000D03*
%TD*%
D20*
%TO.C,J2*%
X174000000Y-78000000D03*
D19*
X174000000Y-83000000D03*
X174000000Y-88000000D03*
X174000000Y-93000000D03*
X174000000Y-98000000D03*
X174000000Y-103000000D03*
X174000000Y-108000000D03*
X174000000Y-113000000D03*
X174000000Y-118000000D03*
%TD*%
D21*
%TO.C,J1*%
X107000000Y-95000000D03*
D22*
X107000000Y-100000000D03*
%TD*%
D23*
%TO.C,D2*%
X126920000Y-110500000D03*
D24*
X137080000Y-110500000D03*
%TD*%
D25*
%TO.C,D1*%
X136580000Y-80500000D03*
D24*
X126420000Y-80500000D03*
%TD*%
D26*
%TO.C,C6*%
X97500000Y-114000000D03*
D27*
X101300000Y-114000000D03*
%TD*%
D28*
%TO.C,C2*%
X103867677Y-80000000D03*
D29*
X98867677Y-80000000D03*
%TD*%
D11*
%TO.C,Black_pill_right1*%
X162500000Y-60420000D03*
D12*
X162500000Y-62960000D03*
X162500000Y-65500000D03*
X162500000Y-68040000D03*
X162500000Y-70580000D03*
X162500000Y-73120000D03*
X162500000Y-75660000D03*
X162500000Y-78200000D03*
X162500000Y-80740000D03*
X162500000Y-83280000D03*
X162500000Y-85820000D03*
X162500000Y-88360000D03*
X162500000Y-90900000D03*
X162500000Y-93440000D03*
X162500000Y-95980000D03*
X162500000Y-98520000D03*
X162500000Y-101060000D03*
X162500000Y-103600000D03*
X162500000Y-106140000D03*
X162500000Y-108680000D03*
%TD*%
D11*
%TO.C,Black_pill_left1*%
X147500000Y-60340000D03*
D12*
X147500000Y-62880000D03*
X147500000Y-65420000D03*
X147500000Y-67960000D03*
X147500000Y-70500000D03*
X147500000Y-73040000D03*
X147500000Y-75580000D03*
X147500000Y-78120000D03*
X147500000Y-80660000D03*
X147500000Y-83200000D03*
X147500000Y-85740000D03*
X147500000Y-88280000D03*
X147500000Y-90820000D03*
X147500000Y-93360000D03*
X147500000Y-95900000D03*
X147500000Y-98440000D03*
X147500000Y-100980000D03*
X147500000Y-103520000D03*
X147500000Y-106060000D03*
X147500000Y-108600000D03*
%TD*%
M02*
