%TF.GenerationSoftware,KiCad,Pcbnew,9.0.4-1.fc42*%
%TF.CreationDate,2025-10-01T21:15:53+08:00*%
%TF.ProjectId,lan_outlet,6c616e5f-6f75-4746-9c65-742e6b696361,rev?*%
%TF.SameCoordinates,Original*%
%TF.FileFunction,Legend,Top*%
%TF.FilePolarity,Positive*%
%FSLAX46Y46*%
G04 Gerber Fmt 4.6, Leading zero omitted, Abs format (unit mm)*
G04 Created by KiCad (PCBNEW 9.0.4-1.fc42) date 2025-10-01 21:15:53*
%MOMM*%
%LPD*%
G01*
G04 APERTURE LIST*
%ADD10C,0.240000*%
%ADD11C,0.260000*%
%ADD12C,0.125000*%
%ADD13C,0.100000*%
%ADD14C,0.400000*%
%ADD15C,0.150000*%
%ADD16C,0.120000*%
G04 APERTURE END LIST*
D10*
X106931285Y-78840662D02*
X106931285Y-77640662D01*
X107445571Y-78840662D02*
X107445571Y-78212091D01*
X107445571Y-78212091D02*
X107388428Y-78097805D01*
X107388428Y-78097805D02*
X107274142Y-78040662D01*
X107274142Y-78040662D02*
X107102713Y-78040662D01*
X107102713Y-78040662D02*
X106988428Y-78097805D01*
X106988428Y-78097805D02*
X106931285Y-78154948D01*
X107845570Y-78040662D02*
X108302713Y-78040662D01*
X108016999Y-77640662D02*
X108016999Y-78669234D01*
X108016999Y-78669234D02*
X108074142Y-78783520D01*
X108074142Y-78783520D02*
X108188427Y-78840662D01*
X108188427Y-78840662D02*
X108302713Y-78840662D01*
X108531284Y-78040662D02*
X108988427Y-78040662D01*
X108702713Y-77640662D02*
X108702713Y-78669234D01*
X108702713Y-78669234D02*
X108759856Y-78783520D01*
X108759856Y-78783520D02*
X108874141Y-78840662D01*
X108874141Y-78840662D02*
X108988427Y-78840662D01*
X109388427Y-78040662D02*
X109388427Y-79240662D01*
X109388427Y-78097805D02*
X109502713Y-78040662D01*
X109502713Y-78040662D02*
X109731284Y-78040662D01*
X109731284Y-78040662D02*
X109845570Y-78097805D01*
X109845570Y-78097805D02*
X109902713Y-78154948D01*
X109902713Y-78154948D02*
X109959855Y-78269234D01*
X109959855Y-78269234D02*
X109959855Y-78612091D01*
X109959855Y-78612091D02*
X109902713Y-78726377D01*
X109902713Y-78726377D02*
X109845570Y-78783520D01*
X109845570Y-78783520D02*
X109731284Y-78840662D01*
X109731284Y-78840662D02*
X109502713Y-78840662D01*
X109502713Y-78840662D02*
X109388427Y-78783520D01*
X110416998Y-78783520D02*
X110531284Y-78840662D01*
X110531284Y-78840662D02*
X110759855Y-78840662D01*
X110759855Y-78840662D02*
X110874141Y-78783520D01*
X110874141Y-78783520D02*
X110931284Y-78669234D01*
X110931284Y-78669234D02*
X110931284Y-78612091D01*
X110931284Y-78612091D02*
X110874141Y-78497805D01*
X110874141Y-78497805D02*
X110759855Y-78440662D01*
X110759855Y-78440662D02*
X110588427Y-78440662D01*
X110588427Y-78440662D02*
X110474141Y-78383520D01*
X110474141Y-78383520D02*
X110416998Y-78269234D01*
X110416998Y-78269234D02*
X110416998Y-78212091D01*
X110416998Y-78212091D02*
X110474141Y-78097805D01*
X110474141Y-78097805D02*
X110588427Y-78040662D01*
X110588427Y-78040662D02*
X110759855Y-78040662D01*
X110759855Y-78040662D02*
X110874141Y-78097805D01*
X111445570Y-78726377D02*
X111502713Y-78783520D01*
X111502713Y-78783520D02*
X111445570Y-78840662D01*
X111445570Y-78840662D02*
X111388427Y-78783520D01*
X111388427Y-78783520D02*
X111445570Y-78726377D01*
X111445570Y-78726377D02*
X111445570Y-78840662D01*
X111445570Y-78097805D02*
X111502713Y-78154948D01*
X111502713Y-78154948D02*
X111445570Y-78212091D01*
X111445570Y-78212091D02*
X111388427Y-78154948D01*
X111388427Y-78154948D02*
X111445570Y-78097805D01*
X111445570Y-78097805D02*
X111445570Y-78212091D01*
X112874142Y-77583520D02*
X111845570Y-79126377D01*
X114131285Y-77583520D02*
X113102713Y-79126377D01*
X114531285Y-78840662D02*
X114531285Y-78040662D01*
X114531285Y-78269234D02*
X114588428Y-78154948D01*
X114588428Y-78154948D02*
X114645571Y-78097805D01*
X114645571Y-78097805D02*
X114759856Y-78040662D01*
X114759856Y-78040662D02*
X114874142Y-78040662D01*
X115788428Y-78840662D02*
X115788428Y-78212091D01*
X115788428Y-78212091D02*
X115731285Y-78097805D01*
X115731285Y-78097805D02*
X115616999Y-78040662D01*
X115616999Y-78040662D02*
X115388428Y-78040662D01*
X115388428Y-78040662D02*
X115274142Y-78097805D01*
X115788428Y-78783520D02*
X115674142Y-78840662D01*
X115674142Y-78840662D02*
X115388428Y-78840662D01*
X115388428Y-78840662D02*
X115274142Y-78783520D01*
X115274142Y-78783520D02*
X115216999Y-78669234D01*
X115216999Y-78669234D02*
X115216999Y-78554948D01*
X115216999Y-78554948D02*
X115274142Y-78440662D01*
X115274142Y-78440662D02*
X115388428Y-78383520D01*
X115388428Y-78383520D02*
X115674142Y-78383520D01*
X115674142Y-78383520D02*
X115788428Y-78326377D01*
X116588427Y-77640662D02*
X116702713Y-77640662D01*
X116702713Y-77640662D02*
X116816999Y-77697805D01*
X116816999Y-77697805D02*
X116874142Y-77754948D01*
X116874142Y-77754948D02*
X116931284Y-77869234D01*
X116931284Y-77869234D02*
X116988427Y-78097805D01*
X116988427Y-78097805D02*
X116988427Y-78383520D01*
X116988427Y-78383520D02*
X116931284Y-78612091D01*
X116931284Y-78612091D02*
X116874142Y-78726377D01*
X116874142Y-78726377D02*
X116816999Y-78783520D01*
X116816999Y-78783520D02*
X116702713Y-78840662D01*
X116702713Y-78840662D02*
X116588427Y-78840662D01*
X116588427Y-78840662D02*
X116474142Y-78783520D01*
X116474142Y-78783520D02*
X116416999Y-78726377D01*
X116416999Y-78726377D02*
X116359856Y-78612091D01*
X116359856Y-78612091D02*
X116302713Y-78383520D01*
X116302713Y-78383520D02*
X116302713Y-78097805D01*
X116302713Y-78097805D02*
X116359856Y-77869234D01*
X116359856Y-77869234D02*
X116416999Y-77754948D01*
X116416999Y-77754948D02*
X116474142Y-77697805D01*
X116474142Y-77697805D02*
X116588427Y-77640662D01*
X117445570Y-78783520D02*
X117559856Y-78840662D01*
X117559856Y-78840662D02*
X117788427Y-78840662D01*
X117788427Y-78840662D02*
X117902713Y-78783520D01*
X117902713Y-78783520D02*
X117959856Y-78669234D01*
X117959856Y-78669234D02*
X117959856Y-78612091D01*
X117959856Y-78612091D02*
X117902713Y-78497805D01*
X117902713Y-78497805D02*
X117788427Y-78440662D01*
X117788427Y-78440662D02*
X117616999Y-78440662D01*
X117616999Y-78440662D02*
X117502713Y-78383520D01*
X117502713Y-78383520D02*
X117445570Y-78269234D01*
X117445570Y-78269234D02*
X117445570Y-78212091D01*
X117445570Y-78212091D02*
X117502713Y-78097805D01*
X117502713Y-78097805D02*
X117616999Y-78040662D01*
X117616999Y-78040662D02*
X117788427Y-78040662D01*
X117788427Y-78040662D02*
X117902713Y-78097805D01*
X118474142Y-78840662D02*
X118474142Y-78040662D01*
X118474142Y-78154948D02*
X118531285Y-78097805D01*
X118531285Y-78097805D02*
X118645570Y-78040662D01*
X118645570Y-78040662D02*
X118816999Y-78040662D01*
X118816999Y-78040662D02*
X118931285Y-78097805D01*
X118931285Y-78097805D02*
X118988428Y-78212091D01*
X118988428Y-78212091D02*
X118988428Y-78840662D01*
X118988428Y-78212091D02*
X119045570Y-78097805D01*
X119045570Y-78097805D02*
X119159856Y-78040662D01*
X119159856Y-78040662D02*
X119331285Y-78040662D01*
X119331285Y-78040662D02*
X119445570Y-78097805D01*
X119445570Y-78097805D02*
X119502713Y-78212091D01*
X119502713Y-78212091D02*
X119502713Y-78840662D01*
X120016999Y-78783520D02*
X120131285Y-78840662D01*
X120131285Y-78840662D02*
X120359856Y-78840662D01*
X120359856Y-78840662D02*
X120474142Y-78783520D01*
X120474142Y-78783520D02*
X120531285Y-78669234D01*
X120531285Y-78669234D02*
X120531285Y-78612091D01*
X120531285Y-78612091D02*
X120474142Y-78497805D01*
X120474142Y-78497805D02*
X120359856Y-78440662D01*
X120359856Y-78440662D02*
X120188428Y-78440662D01*
X120188428Y-78440662D02*
X120074142Y-78383520D01*
X120074142Y-78383520D02*
X120016999Y-78269234D01*
X120016999Y-78269234D02*
X120016999Y-78212091D01*
X120016999Y-78212091D02*
X120074142Y-78097805D01*
X120074142Y-78097805D02*
X120188428Y-78040662D01*
X120188428Y-78040662D02*
X120359856Y-78040662D01*
X120359856Y-78040662D02*
X120474142Y-78097805D01*
X121045571Y-78726377D02*
X121102714Y-78783520D01*
X121102714Y-78783520D02*
X121045571Y-78840662D01*
X121045571Y-78840662D02*
X120988428Y-78783520D01*
X120988428Y-78783520D02*
X121045571Y-78726377D01*
X121045571Y-78726377D02*
X121045571Y-78840662D01*
X122131286Y-78783520D02*
X122017000Y-78840662D01*
X122017000Y-78840662D02*
X121788428Y-78840662D01*
X121788428Y-78840662D02*
X121674143Y-78783520D01*
X121674143Y-78783520D02*
X121617000Y-78726377D01*
X121617000Y-78726377D02*
X121559857Y-78612091D01*
X121559857Y-78612091D02*
X121559857Y-78269234D01*
X121559857Y-78269234D02*
X121617000Y-78154948D01*
X121617000Y-78154948D02*
X121674143Y-78097805D01*
X121674143Y-78097805D02*
X121788428Y-78040662D01*
X121788428Y-78040662D02*
X122017000Y-78040662D01*
X122017000Y-78040662D02*
X122131286Y-78097805D01*
X122816999Y-78840662D02*
X122702714Y-78783520D01*
X122702714Y-78783520D02*
X122645571Y-78726377D01*
X122645571Y-78726377D02*
X122588428Y-78612091D01*
X122588428Y-78612091D02*
X122588428Y-78269234D01*
X122588428Y-78269234D02*
X122645571Y-78154948D01*
X122645571Y-78154948D02*
X122702714Y-78097805D01*
X122702714Y-78097805D02*
X122816999Y-78040662D01*
X122816999Y-78040662D02*
X122988428Y-78040662D01*
X122988428Y-78040662D02*
X123102714Y-78097805D01*
X123102714Y-78097805D02*
X123159857Y-78154948D01*
X123159857Y-78154948D02*
X123216999Y-78269234D01*
X123216999Y-78269234D02*
X123216999Y-78612091D01*
X123216999Y-78612091D02*
X123159857Y-78726377D01*
X123159857Y-78726377D02*
X123102714Y-78783520D01*
X123102714Y-78783520D02*
X122988428Y-78840662D01*
X122988428Y-78840662D02*
X122816999Y-78840662D01*
X123731285Y-78840662D02*
X123731285Y-78040662D01*
X123731285Y-78154948D02*
X123788428Y-78097805D01*
X123788428Y-78097805D02*
X123902713Y-78040662D01*
X123902713Y-78040662D02*
X124074142Y-78040662D01*
X124074142Y-78040662D02*
X124188428Y-78097805D01*
X124188428Y-78097805D02*
X124245571Y-78212091D01*
X124245571Y-78212091D02*
X124245571Y-78840662D01*
X124245571Y-78212091D02*
X124302713Y-78097805D01*
X124302713Y-78097805D02*
X124416999Y-78040662D01*
X124416999Y-78040662D02*
X124588428Y-78040662D01*
X124588428Y-78040662D02*
X124702713Y-78097805D01*
X124702713Y-78097805D02*
X124759856Y-78212091D01*
X124759856Y-78212091D02*
X124759856Y-78840662D01*
D11*
X128261905Y-113146432D02*
X128695239Y-113146432D01*
X128880953Y-113827384D02*
X128261905Y-113827384D01*
X128261905Y-113827384D02*
X128261905Y-112527384D01*
X128261905Y-112527384D02*
X128880953Y-112527384D01*
X129252381Y-112527384D02*
X129995238Y-112527384D01*
X129623810Y-113827384D02*
X129623810Y-112527384D01*
X130428571Y-113827384D02*
X130428571Y-112527384D01*
X130428571Y-113146432D02*
X131171428Y-113146432D01*
X131171428Y-113827384D02*
X131171428Y-112527384D01*
X131790476Y-113146432D02*
X132223810Y-113146432D01*
X132409524Y-113827384D02*
X131790476Y-113827384D01*
X131790476Y-113827384D02*
X131790476Y-112527384D01*
X131790476Y-112527384D02*
X132409524Y-112527384D01*
X133709523Y-113827384D02*
X133276190Y-113208337D01*
X132966666Y-113827384D02*
X132966666Y-112527384D01*
X132966666Y-112527384D02*
X133461904Y-112527384D01*
X133461904Y-112527384D02*
X133585714Y-112589289D01*
X133585714Y-112589289D02*
X133647619Y-112651194D01*
X133647619Y-112651194D02*
X133709523Y-112775003D01*
X133709523Y-112775003D02*
X133709523Y-112960718D01*
X133709523Y-112960718D02*
X133647619Y-113084527D01*
X133647619Y-113084527D02*
X133585714Y-113146432D01*
X133585714Y-113146432D02*
X133461904Y-113208337D01*
X133461904Y-113208337D02*
X132966666Y-113208337D01*
X134266666Y-113827384D02*
X134266666Y-112527384D01*
X134266666Y-112527384D02*
X135009523Y-113827384D01*
X135009523Y-113827384D02*
X135009523Y-112527384D01*
X135628571Y-113146432D02*
X136061905Y-113146432D01*
X136247619Y-113827384D02*
X135628571Y-113827384D01*
X135628571Y-113827384D02*
X135628571Y-112527384D01*
X135628571Y-112527384D02*
X136247619Y-112527384D01*
X136619047Y-112527384D02*
X137361904Y-112527384D01*
X136990476Y-113827384D02*
X136990476Y-112527384D01*
X139528570Y-113703575D02*
X139466666Y-113765480D01*
X139466666Y-113765480D02*
X139280951Y-113827384D01*
X139280951Y-113827384D02*
X139157142Y-113827384D01*
X139157142Y-113827384D02*
X138971428Y-113765480D01*
X138971428Y-113765480D02*
X138847618Y-113641670D01*
X138847618Y-113641670D02*
X138785713Y-113517860D01*
X138785713Y-113517860D02*
X138723809Y-113270241D01*
X138723809Y-113270241D02*
X138723809Y-113084527D01*
X138723809Y-113084527D02*
X138785713Y-112836908D01*
X138785713Y-112836908D02*
X138847618Y-112713099D01*
X138847618Y-112713099D02*
X138971428Y-112589289D01*
X138971428Y-112589289D02*
X139157142Y-112527384D01*
X139157142Y-112527384D02*
X139280951Y-112527384D01*
X139280951Y-112527384D02*
X139466666Y-112589289D01*
X139466666Y-112589289D02*
X139528570Y-112651194D01*
X140333332Y-112527384D02*
X140580951Y-112527384D01*
X140580951Y-112527384D02*
X140704761Y-112589289D01*
X140704761Y-112589289D02*
X140828570Y-112713099D01*
X140828570Y-112713099D02*
X140890475Y-112960718D01*
X140890475Y-112960718D02*
X140890475Y-113394051D01*
X140890475Y-113394051D02*
X140828570Y-113641670D01*
X140828570Y-113641670D02*
X140704761Y-113765480D01*
X140704761Y-113765480D02*
X140580951Y-113827384D01*
X140580951Y-113827384D02*
X140333332Y-113827384D01*
X140333332Y-113827384D02*
X140209523Y-113765480D01*
X140209523Y-113765480D02*
X140085713Y-113641670D01*
X140085713Y-113641670D02*
X140023809Y-113394051D01*
X140023809Y-113394051D02*
X140023809Y-112960718D01*
X140023809Y-112960718D02*
X140085713Y-112713099D01*
X140085713Y-112713099D02*
X140209523Y-112589289D01*
X140209523Y-112589289D02*
X140333332Y-112527384D01*
X141447618Y-113827384D02*
X141447618Y-112527384D01*
X141447618Y-112527384D02*
X142190475Y-113827384D01*
X142190475Y-113827384D02*
X142190475Y-112527384D01*
X142623809Y-112527384D02*
X143366666Y-112527384D01*
X142995238Y-113827384D02*
X142995238Y-112527384D01*
X144542856Y-113827384D02*
X144109523Y-113208337D01*
X143799999Y-113827384D02*
X143799999Y-112527384D01*
X143799999Y-112527384D02*
X144295237Y-112527384D01*
X144295237Y-112527384D02*
X144419047Y-112589289D01*
X144419047Y-112589289D02*
X144480952Y-112651194D01*
X144480952Y-112651194D02*
X144542856Y-112775003D01*
X144542856Y-112775003D02*
X144542856Y-112960718D01*
X144542856Y-112960718D02*
X144480952Y-113084527D01*
X144480952Y-113084527D02*
X144419047Y-113146432D01*
X144419047Y-113146432D02*
X144295237Y-113208337D01*
X144295237Y-113208337D02*
X143799999Y-113208337D01*
X145347618Y-112527384D02*
X145595237Y-112527384D01*
X145595237Y-112527384D02*
X145719047Y-112589289D01*
X145719047Y-112589289D02*
X145842856Y-112713099D01*
X145842856Y-112713099D02*
X145904761Y-112960718D01*
X145904761Y-112960718D02*
X145904761Y-113394051D01*
X145904761Y-113394051D02*
X145842856Y-113641670D01*
X145842856Y-113641670D02*
X145719047Y-113765480D01*
X145719047Y-113765480D02*
X145595237Y-113827384D01*
X145595237Y-113827384D02*
X145347618Y-113827384D01*
X145347618Y-113827384D02*
X145223809Y-113765480D01*
X145223809Y-113765480D02*
X145099999Y-113641670D01*
X145099999Y-113641670D02*
X145038095Y-113394051D01*
X145038095Y-113394051D02*
X145038095Y-112960718D01*
X145038095Y-112960718D02*
X145099999Y-112713099D01*
X145099999Y-112713099D02*
X145223809Y-112589289D01*
X145223809Y-112589289D02*
X145347618Y-112527384D01*
X147080952Y-113827384D02*
X146461904Y-113827384D01*
X146461904Y-113827384D02*
X146461904Y-112527384D01*
X149247618Y-113703575D02*
X149185714Y-113765480D01*
X149185714Y-113765480D02*
X148999999Y-113827384D01*
X148999999Y-113827384D02*
X148876190Y-113827384D01*
X148876190Y-113827384D02*
X148690476Y-113765480D01*
X148690476Y-113765480D02*
X148566666Y-113641670D01*
X148566666Y-113641670D02*
X148504761Y-113517860D01*
X148504761Y-113517860D02*
X148442857Y-113270241D01*
X148442857Y-113270241D02*
X148442857Y-113084527D01*
X148442857Y-113084527D02*
X148504761Y-112836908D01*
X148504761Y-112836908D02*
X148566666Y-112713099D01*
X148566666Y-112713099D02*
X148690476Y-112589289D01*
X148690476Y-112589289D02*
X148876190Y-112527384D01*
X148876190Y-112527384D02*
X148999999Y-112527384D01*
X148999999Y-112527384D02*
X149185714Y-112589289D01*
X149185714Y-112589289D02*
X149247618Y-112651194D01*
X150052380Y-112527384D02*
X150299999Y-112527384D01*
X150299999Y-112527384D02*
X150423809Y-112589289D01*
X150423809Y-112589289D02*
X150547618Y-112713099D01*
X150547618Y-112713099D02*
X150609523Y-112960718D01*
X150609523Y-112960718D02*
X150609523Y-113394051D01*
X150609523Y-113394051D02*
X150547618Y-113641670D01*
X150547618Y-113641670D02*
X150423809Y-113765480D01*
X150423809Y-113765480D02*
X150299999Y-113827384D01*
X150299999Y-113827384D02*
X150052380Y-113827384D01*
X150052380Y-113827384D02*
X149928571Y-113765480D01*
X149928571Y-113765480D02*
X149804761Y-113641670D01*
X149804761Y-113641670D02*
X149742857Y-113394051D01*
X149742857Y-113394051D02*
X149742857Y-112960718D01*
X149742857Y-112960718D02*
X149804761Y-112713099D01*
X149804761Y-112713099D02*
X149928571Y-112589289D01*
X149928571Y-112589289D02*
X150052380Y-112527384D01*
X151166666Y-113827384D02*
X151166666Y-112527384D01*
X151166666Y-112527384D02*
X151909523Y-113827384D01*
X151909523Y-113827384D02*
X151909523Y-112527384D01*
X152466667Y-113765480D02*
X152652381Y-113827384D01*
X152652381Y-113827384D02*
X152961905Y-113827384D01*
X152961905Y-113827384D02*
X153085714Y-113765480D01*
X153085714Y-113765480D02*
X153147619Y-113703575D01*
X153147619Y-113703575D02*
X153209524Y-113579765D01*
X153209524Y-113579765D02*
X153209524Y-113455956D01*
X153209524Y-113455956D02*
X153147619Y-113332146D01*
X153147619Y-113332146D02*
X153085714Y-113270241D01*
X153085714Y-113270241D02*
X152961905Y-113208337D01*
X152961905Y-113208337D02*
X152714286Y-113146432D01*
X152714286Y-113146432D02*
X152590476Y-113084527D01*
X152590476Y-113084527D02*
X152528571Y-113022622D01*
X152528571Y-113022622D02*
X152466667Y-112898813D01*
X152466667Y-112898813D02*
X152466667Y-112775003D01*
X152466667Y-112775003D02*
X152528571Y-112651194D01*
X152528571Y-112651194D02*
X152590476Y-112589289D01*
X152590476Y-112589289D02*
X152714286Y-112527384D01*
X152714286Y-112527384D02*
X153023809Y-112527384D01*
X153023809Y-112527384D02*
X153209524Y-112589289D01*
X154014285Y-112527384D02*
X154261904Y-112527384D01*
X154261904Y-112527384D02*
X154385714Y-112589289D01*
X154385714Y-112589289D02*
X154509523Y-112713099D01*
X154509523Y-112713099D02*
X154571428Y-112960718D01*
X154571428Y-112960718D02*
X154571428Y-113394051D01*
X154571428Y-113394051D02*
X154509523Y-113641670D01*
X154509523Y-113641670D02*
X154385714Y-113765480D01*
X154385714Y-113765480D02*
X154261904Y-113827384D01*
X154261904Y-113827384D02*
X154014285Y-113827384D01*
X154014285Y-113827384D02*
X153890476Y-113765480D01*
X153890476Y-113765480D02*
X153766666Y-113641670D01*
X153766666Y-113641670D02*
X153704762Y-113394051D01*
X153704762Y-113394051D02*
X153704762Y-112960718D01*
X153704762Y-112960718D02*
X153766666Y-112713099D01*
X153766666Y-112713099D02*
X153890476Y-112589289D01*
X153890476Y-112589289D02*
X154014285Y-112527384D01*
X155747619Y-113827384D02*
X155128571Y-113827384D01*
X155128571Y-113827384D02*
X155128571Y-112527384D01*
X156180952Y-113146432D02*
X156614286Y-113146432D01*
X156800000Y-113827384D02*
X156180952Y-113827384D01*
X156180952Y-113827384D02*
X156180952Y-112527384D01*
X156180952Y-112527384D02*
X156800000Y-112527384D01*
D12*
X165403372Y-75413801D02*
X165070039Y-75413801D01*
X165070039Y-75937611D02*
X165070039Y-74937611D01*
X165070039Y-74937611D02*
X165546229Y-74937611D01*
X165927182Y-74937611D02*
X165927182Y-75747134D01*
X165927182Y-75747134D02*
X165974801Y-75842372D01*
X165974801Y-75842372D02*
X166022420Y-75889992D01*
X166022420Y-75889992D02*
X166117658Y-75937611D01*
X166117658Y-75937611D02*
X166308134Y-75937611D01*
X166308134Y-75937611D02*
X166403372Y-75889992D01*
X166403372Y-75889992D02*
X166450991Y-75842372D01*
X166450991Y-75842372D02*
X166498610Y-75747134D01*
X166498610Y-75747134D02*
X166498610Y-74937611D01*
X166927182Y-75889992D02*
X167070039Y-75937611D01*
X167070039Y-75937611D02*
X167308134Y-75937611D01*
X167308134Y-75937611D02*
X167403372Y-75889992D01*
X167403372Y-75889992D02*
X167450991Y-75842372D01*
X167450991Y-75842372D02*
X167498610Y-75747134D01*
X167498610Y-75747134D02*
X167498610Y-75651896D01*
X167498610Y-75651896D02*
X167450991Y-75556658D01*
X167450991Y-75556658D02*
X167403372Y-75509039D01*
X167403372Y-75509039D02*
X167308134Y-75461420D01*
X167308134Y-75461420D02*
X167117658Y-75413801D01*
X167117658Y-75413801D02*
X167022420Y-75366182D01*
X167022420Y-75366182D02*
X166974801Y-75318563D01*
X166974801Y-75318563D02*
X166927182Y-75223325D01*
X166927182Y-75223325D02*
X166927182Y-75128087D01*
X166927182Y-75128087D02*
X166974801Y-75032849D01*
X166974801Y-75032849D02*
X167022420Y-74985230D01*
X167022420Y-74985230D02*
X167117658Y-74937611D01*
X167117658Y-74937611D02*
X167355753Y-74937611D01*
X167355753Y-74937611D02*
X167498610Y-74985230D01*
X167927182Y-75413801D02*
X168260515Y-75413801D01*
X168403372Y-75937611D02*
X167927182Y-75937611D01*
X167927182Y-75937611D02*
X167927182Y-74937611D01*
X167927182Y-74937611D02*
X168403372Y-74937611D01*
X168784325Y-75889992D02*
X168927182Y-75937611D01*
X168927182Y-75937611D02*
X169165277Y-75937611D01*
X169165277Y-75937611D02*
X169260515Y-75889992D01*
X169260515Y-75889992D02*
X169308134Y-75842372D01*
X169308134Y-75842372D02*
X169355753Y-75747134D01*
X169355753Y-75747134D02*
X169355753Y-75651896D01*
X169355753Y-75651896D02*
X169308134Y-75556658D01*
X169308134Y-75556658D02*
X169260515Y-75509039D01*
X169260515Y-75509039D02*
X169165277Y-75461420D01*
X169165277Y-75461420D02*
X168974801Y-75413801D01*
X168974801Y-75413801D02*
X168879563Y-75366182D01*
X168879563Y-75366182D02*
X168831944Y-75318563D01*
X168831944Y-75318563D02*
X168784325Y-75223325D01*
X168784325Y-75223325D02*
X168784325Y-75128087D01*
X168784325Y-75128087D02*
X168831944Y-75032849D01*
X168831944Y-75032849D02*
X168879563Y-74985230D01*
X168879563Y-74985230D02*
X168974801Y-74937611D01*
X168974801Y-74937611D02*
X169212896Y-74937611D01*
X169212896Y-74937611D02*
X169355753Y-74985230D01*
D13*
X146750000Y-120500000D02*
X160250000Y-120500000D01*
X123073151Y-120453341D02*
X138573151Y-120453341D01*
D12*
X140952098Y-120347309D02*
X140618765Y-120347309D01*
X140618765Y-120871119D02*
X140618765Y-119871119D01*
X140618765Y-119871119D02*
X141094955Y-119871119D01*
X141475908Y-119871119D02*
X141475908Y-120680642D01*
X141475908Y-120680642D02*
X141523527Y-120775880D01*
X141523527Y-120775880D02*
X141571146Y-120823500D01*
X141571146Y-120823500D02*
X141666384Y-120871119D01*
X141666384Y-120871119D02*
X141856860Y-120871119D01*
X141856860Y-120871119D02*
X141952098Y-120823500D01*
X141952098Y-120823500D02*
X141999717Y-120775880D01*
X141999717Y-120775880D02*
X142047336Y-120680642D01*
X142047336Y-120680642D02*
X142047336Y-119871119D01*
X142475908Y-120823500D02*
X142618765Y-120871119D01*
X142618765Y-120871119D02*
X142856860Y-120871119D01*
X142856860Y-120871119D02*
X142952098Y-120823500D01*
X142952098Y-120823500D02*
X142999717Y-120775880D01*
X142999717Y-120775880D02*
X143047336Y-120680642D01*
X143047336Y-120680642D02*
X143047336Y-120585404D01*
X143047336Y-120585404D02*
X142999717Y-120490166D01*
X142999717Y-120490166D02*
X142952098Y-120442547D01*
X142952098Y-120442547D02*
X142856860Y-120394928D01*
X142856860Y-120394928D02*
X142666384Y-120347309D01*
X142666384Y-120347309D02*
X142571146Y-120299690D01*
X142571146Y-120299690D02*
X142523527Y-120252071D01*
X142523527Y-120252071D02*
X142475908Y-120156833D01*
X142475908Y-120156833D02*
X142475908Y-120061595D01*
X142475908Y-120061595D02*
X142523527Y-119966357D01*
X142523527Y-119966357D02*
X142571146Y-119918738D01*
X142571146Y-119918738D02*
X142666384Y-119871119D01*
X142666384Y-119871119D02*
X142904479Y-119871119D01*
X142904479Y-119871119D02*
X143047336Y-119918738D01*
X143475908Y-120347309D02*
X143809241Y-120347309D01*
X143952098Y-120871119D02*
X143475908Y-120871119D01*
X143475908Y-120871119D02*
X143475908Y-119871119D01*
X143475908Y-119871119D02*
X143952098Y-119871119D01*
X144333051Y-120823500D02*
X144475908Y-120871119D01*
X144475908Y-120871119D02*
X144714003Y-120871119D01*
X144714003Y-120871119D02*
X144809241Y-120823500D01*
X144809241Y-120823500D02*
X144856860Y-120775880D01*
X144856860Y-120775880D02*
X144904479Y-120680642D01*
X144904479Y-120680642D02*
X144904479Y-120585404D01*
X144904479Y-120585404D02*
X144856860Y-120490166D01*
X144856860Y-120490166D02*
X144809241Y-120442547D01*
X144809241Y-120442547D02*
X144714003Y-120394928D01*
X144714003Y-120394928D02*
X144523527Y-120347309D01*
X144523527Y-120347309D02*
X144428289Y-120299690D01*
X144428289Y-120299690D02*
X144380670Y-120252071D01*
X144380670Y-120252071D02*
X144333051Y-120156833D01*
X144333051Y-120156833D02*
X144333051Y-120061595D01*
X144333051Y-120061595D02*
X144380670Y-119966357D01*
X144380670Y-119966357D02*
X144428289Y-119918738D01*
X144428289Y-119918738D02*
X144523527Y-119871119D01*
X144523527Y-119871119D02*
X144761622Y-119871119D01*
X144761622Y-119871119D02*
X144904479Y-119918738D01*
D10*
X123386465Y-131997805D02*
X123957894Y-131997805D01*
X123272179Y-132340662D02*
X123672179Y-131140662D01*
X123672179Y-131140662D02*
X124072179Y-132340662D01*
X124643607Y-131654948D02*
X124529322Y-131597805D01*
X124529322Y-131597805D02*
X124472179Y-131540662D01*
X124472179Y-131540662D02*
X124415036Y-131426377D01*
X124415036Y-131426377D02*
X124415036Y-131369234D01*
X124415036Y-131369234D02*
X124472179Y-131254948D01*
X124472179Y-131254948D02*
X124529322Y-131197805D01*
X124529322Y-131197805D02*
X124643607Y-131140662D01*
X124643607Y-131140662D02*
X124872179Y-131140662D01*
X124872179Y-131140662D02*
X124986465Y-131197805D01*
X124986465Y-131197805D02*
X125043607Y-131254948D01*
X125043607Y-131254948D02*
X125100750Y-131369234D01*
X125100750Y-131369234D02*
X125100750Y-131426377D01*
X125100750Y-131426377D02*
X125043607Y-131540662D01*
X125043607Y-131540662D02*
X124986465Y-131597805D01*
X124986465Y-131597805D02*
X124872179Y-131654948D01*
X124872179Y-131654948D02*
X124643607Y-131654948D01*
X124643607Y-131654948D02*
X124529322Y-131712091D01*
X124529322Y-131712091D02*
X124472179Y-131769234D01*
X124472179Y-131769234D02*
X124415036Y-131883520D01*
X124415036Y-131883520D02*
X124415036Y-132112091D01*
X124415036Y-132112091D02*
X124472179Y-132226377D01*
X124472179Y-132226377D02*
X124529322Y-132283520D01*
X124529322Y-132283520D02*
X124643607Y-132340662D01*
X124643607Y-132340662D02*
X124872179Y-132340662D01*
X124872179Y-132340662D02*
X124986465Y-132283520D01*
X124986465Y-132283520D02*
X125043607Y-132226377D01*
X125043607Y-132226377D02*
X125100750Y-132112091D01*
X125100750Y-132112091D02*
X125100750Y-131883520D01*
X125100750Y-131883520D02*
X125043607Y-131769234D01*
X125043607Y-131769234D02*
X124986465Y-131712091D01*
X124986465Y-131712091D02*
X124872179Y-131654948D01*
X128386465Y-131997805D02*
X128957894Y-131997805D01*
X128272179Y-132340662D02*
X128672179Y-131140662D01*
X128672179Y-131140662D02*
X129072179Y-132340662D01*
X129357893Y-131140662D02*
X130157893Y-131140662D01*
X130157893Y-131140662D02*
X129643607Y-132340662D01*
X133386465Y-131997805D02*
X133957894Y-131997805D01*
X133272179Y-132340662D02*
X133672179Y-131140662D01*
X133672179Y-131140662D02*
X134072179Y-132340662D01*
X134986465Y-131140662D02*
X134757893Y-131140662D01*
X134757893Y-131140662D02*
X134643607Y-131197805D01*
X134643607Y-131197805D02*
X134586465Y-131254948D01*
X134586465Y-131254948D02*
X134472179Y-131426377D01*
X134472179Y-131426377D02*
X134415036Y-131654948D01*
X134415036Y-131654948D02*
X134415036Y-132112091D01*
X134415036Y-132112091D02*
X134472179Y-132226377D01*
X134472179Y-132226377D02*
X134529322Y-132283520D01*
X134529322Y-132283520D02*
X134643607Y-132340662D01*
X134643607Y-132340662D02*
X134872179Y-132340662D01*
X134872179Y-132340662D02*
X134986465Y-132283520D01*
X134986465Y-132283520D02*
X135043607Y-132226377D01*
X135043607Y-132226377D02*
X135100750Y-132112091D01*
X135100750Y-132112091D02*
X135100750Y-131826377D01*
X135100750Y-131826377D02*
X135043607Y-131712091D01*
X135043607Y-131712091D02*
X134986465Y-131654948D01*
X134986465Y-131654948D02*
X134872179Y-131597805D01*
X134872179Y-131597805D02*
X134643607Y-131597805D01*
X134643607Y-131597805D02*
X134529322Y-131654948D01*
X134529322Y-131654948D02*
X134472179Y-131712091D01*
X134472179Y-131712091D02*
X134415036Y-131826377D01*
X138386465Y-131997805D02*
X138957894Y-131997805D01*
X138272179Y-132340662D02*
X138672179Y-131140662D01*
X138672179Y-131140662D02*
X139072179Y-132340662D01*
X140043607Y-131140662D02*
X139472179Y-131140662D01*
X139472179Y-131140662D02*
X139415036Y-131712091D01*
X139415036Y-131712091D02*
X139472179Y-131654948D01*
X139472179Y-131654948D02*
X139586465Y-131597805D01*
X139586465Y-131597805D02*
X139872179Y-131597805D01*
X139872179Y-131597805D02*
X139986465Y-131654948D01*
X139986465Y-131654948D02*
X140043607Y-131712091D01*
X140043607Y-131712091D02*
X140100750Y-131826377D01*
X140100750Y-131826377D02*
X140100750Y-132112091D01*
X140100750Y-132112091D02*
X140043607Y-132226377D01*
X140043607Y-132226377D02*
X139986465Y-132283520D01*
X139986465Y-132283520D02*
X139872179Y-132340662D01*
X139872179Y-132340662D02*
X139586465Y-132340662D01*
X139586465Y-132340662D02*
X139472179Y-132283520D01*
X139472179Y-132283520D02*
X139415036Y-132226377D01*
X143386465Y-131997805D02*
X143957894Y-131997805D01*
X143272179Y-132340662D02*
X143672179Y-131140662D01*
X143672179Y-131140662D02*
X144072179Y-132340662D01*
X144986465Y-131540662D02*
X144986465Y-132340662D01*
X144700750Y-131083520D02*
X144415036Y-131940662D01*
X144415036Y-131940662D02*
X145157893Y-131940662D01*
X148386465Y-131997805D02*
X148957894Y-131997805D01*
X148272179Y-132340662D02*
X148672179Y-131140662D01*
X148672179Y-131140662D02*
X149072179Y-132340662D01*
X149357893Y-131140662D02*
X150100750Y-131140662D01*
X150100750Y-131140662D02*
X149700750Y-131597805D01*
X149700750Y-131597805D02*
X149872179Y-131597805D01*
X149872179Y-131597805D02*
X149986465Y-131654948D01*
X149986465Y-131654948D02*
X150043607Y-131712091D01*
X150043607Y-131712091D02*
X150100750Y-131826377D01*
X150100750Y-131826377D02*
X150100750Y-132112091D01*
X150100750Y-132112091D02*
X150043607Y-132226377D01*
X150043607Y-132226377D02*
X149986465Y-132283520D01*
X149986465Y-132283520D02*
X149872179Y-132340662D01*
X149872179Y-132340662D02*
X149529322Y-132340662D01*
X149529322Y-132340662D02*
X149415036Y-132283520D01*
X149415036Y-132283520D02*
X149357893Y-132226377D01*
X153386465Y-131997805D02*
X153957894Y-131997805D01*
X153272179Y-132340662D02*
X153672179Y-131140662D01*
X153672179Y-131140662D02*
X154072179Y-132340662D01*
X154415036Y-131254948D02*
X154472179Y-131197805D01*
X154472179Y-131197805D02*
X154586465Y-131140662D01*
X154586465Y-131140662D02*
X154872179Y-131140662D01*
X154872179Y-131140662D02*
X154986465Y-131197805D01*
X154986465Y-131197805D02*
X155043607Y-131254948D01*
X155043607Y-131254948D02*
X155100750Y-131369234D01*
X155100750Y-131369234D02*
X155100750Y-131483520D01*
X155100750Y-131483520D02*
X155043607Y-131654948D01*
X155043607Y-131654948D02*
X154357893Y-132340662D01*
X154357893Y-132340662D02*
X155100750Y-132340662D01*
X158386465Y-131997805D02*
X158957894Y-131997805D01*
X158272179Y-132340662D02*
X158672179Y-131140662D01*
X158672179Y-131140662D02*
X159072179Y-132340662D01*
X160100750Y-132340662D02*
X159415036Y-132340662D01*
X159757893Y-132340662D02*
X159757893Y-131140662D01*
X159757893Y-131140662D02*
X159643607Y-131312091D01*
X159643607Y-131312091D02*
X159529322Y-131426377D01*
X159529322Y-131426377D02*
X159415036Y-131483520D01*
X163653292Y-132208729D02*
X163881864Y-132208729D01*
X163881864Y-132208729D02*
X163996149Y-132265872D01*
X163996149Y-132265872D02*
X164110435Y-132380158D01*
X164110435Y-132380158D02*
X164167578Y-132608729D01*
X164167578Y-132608729D02*
X164167578Y-133008729D01*
X164167578Y-133008729D02*
X164110435Y-133237301D01*
X164110435Y-133237301D02*
X163996149Y-133351587D01*
X163996149Y-133351587D02*
X163881864Y-133408729D01*
X163881864Y-133408729D02*
X163653292Y-133408729D01*
X163653292Y-133408729D02*
X163539007Y-133351587D01*
X163539007Y-133351587D02*
X163424721Y-133237301D01*
X163424721Y-133237301D02*
X163367578Y-133008729D01*
X163367578Y-133008729D02*
X163367578Y-132608729D01*
X163367578Y-132608729D02*
X163424721Y-132380158D01*
X163424721Y-132380158D02*
X163539007Y-132265872D01*
X163539007Y-132265872D02*
X163653292Y-132208729D01*
X164681864Y-132208729D02*
X164681864Y-133180158D01*
X164681864Y-133180158D02*
X164739007Y-133294444D01*
X164739007Y-133294444D02*
X164796150Y-133351587D01*
X164796150Y-133351587D02*
X164910435Y-133408729D01*
X164910435Y-133408729D02*
X165139007Y-133408729D01*
X165139007Y-133408729D02*
X165253292Y-133351587D01*
X165253292Y-133351587D02*
X165310435Y-133294444D01*
X165310435Y-133294444D02*
X165367578Y-133180158D01*
X165367578Y-133180158D02*
X165367578Y-132208729D01*
X165767578Y-132208729D02*
X166453293Y-132208729D01*
X166110435Y-133408729D02*
X166110435Y-132208729D01*
X166853293Y-133408729D02*
X166853293Y-132208729D01*
X166853293Y-132208729D02*
X167310436Y-132208729D01*
X167310436Y-132208729D02*
X167424721Y-132265872D01*
X167424721Y-132265872D02*
X167481864Y-132323015D01*
X167481864Y-132323015D02*
X167539007Y-132437301D01*
X167539007Y-132437301D02*
X167539007Y-132608729D01*
X167539007Y-132608729D02*
X167481864Y-132723015D01*
X167481864Y-132723015D02*
X167424721Y-132780158D01*
X167424721Y-132780158D02*
X167310436Y-132837301D01*
X167310436Y-132837301D02*
X166853293Y-132837301D01*
X168053293Y-132208729D02*
X168053293Y-133180158D01*
X168053293Y-133180158D02*
X168110436Y-133294444D01*
X168110436Y-133294444D02*
X168167579Y-133351587D01*
X168167579Y-133351587D02*
X168281864Y-133408729D01*
X168281864Y-133408729D02*
X168510436Y-133408729D01*
X168510436Y-133408729D02*
X168624721Y-133351587D01*
X168624721Y-133351587D02*
X168681864Y-133294444D01*
X168681864Y-133294444D02*
X168739007Y-133180158D01*
X168739007Y-133180158D02*
X168739007Y-132208729D01*
X169139007Y-132208729D02*
X169824722Y-132208729D01*
X169481864Y-133408729D02*
X169481864Y-132208729D01*
X170167579Y-133351587D02*
X170339008Y-133408729D01*
X170339008Y-133408729D02*
X170624722Y-133408729D01*
X170624722Y-133408729D02*
X170739008Y-133351587D01*
X170739008Y-133351587D02*
X170796150Y-133294444D01*
X170796150Y-133294444D02*
X170853293Y-133180158D01*
X170853293Y-133180158D02*
X170853293Y-133065872D01*
X170853293Y-133065872D02*
X170796150Y-132951587D01*
X170796150Y-132951587D02*
X170739008Y-132894444D01*
X170739008Y-132894444D02*
X170624722Y-132837301D01*
X170624722Y-132837301D02*
X170396150Y-132780158D01*
X170396150Y-132780158D02*
X170281865Y-132723015D01*
X170281865Y-132723015D02*
X170224722Y-132665872D01*
X170224722Y-132665872D02*
X170167579Y-132551587D01*
X170167579Y-132551587D02*
X170167579Y-132437301D01*
X170167579Y-132437301D02*
X170224722Y-132323015D01*
X170224722Y-132323015D02*
X170281865Y-132265872D01*
X170281865Y-132265872D02*
X170396150Y-132208729D01*
X170396150Y-132208729D02*
X170681865Y-132208729D01*
X170681865Y-132208729D02*
X170853293Y-132265872D01*
X159739006Y-134140662D02*
X159967578Y-134140662D01*
X159967578Y-134140662D02*
X160081863Y-134197805D01*
X160081863Y-134197805D02*
X160196149Y-134312091D01*
X160196149Y-134312091D02*
X160253292Y-134540662D01*
X160253292Y-134540662D02*
X160253292Y-134940662D01*
X160253292Y-134940662D02*
X160196149Y-135169234D01*
X160196149Y-135169234D02*
X160081863Y-135283520D01*
X160081863Y-135283520D02*
X159967578Y-135340662D01*
X159967578Y-135340662D02*
X159739006Y-135340662D01*
X159739006Y-135340662D02*
X159624721Y-135283520D01*
X159624721Y-135283520D02*
X159510435Y-135169234D01*
X159510435Y-135169234D02*
X159453292Y-134940662D01*
X159453292Y-134940662D02*
X159453292Y-134540662D01*
X159453292Y-134540662D02*
X159510435Y-134312091D01*
X159510435Y-134312091D02*
X159624721Y-134197805D01*
X159624721Y-134197805D02*
X159739006Y-134140662D01*
X160767578Y-135340662D02*
X160767578Y-134140662D01*
X160767578Y-134140662D02*
X161224721Y-134140662D01*
X161224721Y-134140662D02*
X161339006Y-134197805D01*
X161339006Y-134197805D02*
X161396149Y-134254948D01*
X161396149Y-134254948D02*
X161453292Y-134369234D01*
X161453292Y-134369234D02*
X161453292Y-134540662D01*
X161453292Y-134540662D02*
X161396149Y-134654948D01*
X161396149Y-134654948D02*
X161339006Y-134712091D01*
X161339006Y-134712091D02*
X161224721Y-134769234D01*
X161224721Y-134769234D02*
X160767578Y-134769234D01*
X161967578Y-134712091D02*
X162367578Y-134712091D01*
X162539006Y-135340662D02*
X161967578Y-135340662D01*
X161967578Y-135340662D02*
X161967578Y-134140662D01*
X161967578Y-134140662D02*
X162539006Y-134140662D01*
X163053292Y-135340662D02*
X163053292Y-134140662D01*
X163053292Y-134140662D02*
X163739006Y-135340662D01*
X163739006Y-135340662D02*
X163739006Y-134140662D01*
X165910435Y-135226377D02*
X165853292Y-135283520D01*
X165853292Y-135283520D02*
X165681864Y-135340662D01*
X165681864Y-135340662D02*
X165567578Y-135340662D01*
X165567578Y-135340662D02*
X165396149Y-135283520D01*
X165396149Y-135283520D02*
X165281864Y-135169234D01*
X165281864Y-135169234D02*
X165224721Y-135054948D01*
X165224721Y-135054948D02*
X165167578Y-134826377D01*
X165167578Y-134826377D02*
X165167578Y-134654948D01*
X165167578Y-134654948D02*
X165224721Y-134426377D01*
X165224721Y-134426377D02*
X165281864Y-134312091D01*
X165281864Y-134312091D02*
X165396149Y-134197805D01*
X165396149Y-134197805D02*
X165567578Y-134140662D01*
X165567578Y-134140662D02*
X165681864Y-134140662D01*
X165681864Y-134140662D02*
X165853292Y-134197805D01*
X165853292Y-134197805D02*
X165910435Y-134254948D01*
X166653292Y-134140662D02*
X166881864Y-134140662D01*
X166881864Y-134140662D02*
X166996149Y-134197805D01*
X166996149Y-134197805D02*
X167110435Y-134312091D01*
X167110435Y-134312091D02*
X167167578Y-134540662D01*
X167167578Y-134540662D02*
X167167578Y-134940662D01*
X167167578Y-134940662D02*
X167110435Y-135169234D01*
X167110435Y-135169234D02*
X166996149Y-135283520D01*
X166996149Y-135283520D02*
X166881864Y-135340662D01*
X166881864Y-135340662D02*
X166653292Y-135340662D01*
X166653292Y-135340662D02*
X166539007Y-135283520D01*
X166539007Y-135283520D02*
X166424721Y-135169234D01*
X166424721Y-135169234D02*
X166367578Y-134940662D01*
X166367578Y-134940662D02*
X166367578Y-134540662D01*
X166367578Y-134540662D02*
X166424721Y-134312091D01*
X166424721Y-134312091D02*
X166539007Y-134197805D01*
X166539007Y-134197805D02*
X166653292Y-134140662D01*
X168253292Y-135340662D02*
X167681864Y-135340662D01*
X167681864Y-135340662D02*
X167681864Y-134140662D01*
X169224721Y-135340662D02*
X168653293Y-135340662D01*
X168653293Y-135340662D02*
X168653293Y-134140662D01*
X169624722Y-134712091D02*
X170024722Y-134712091D01*
X170196150Y-135340662D02*
X169624722Y-135340662D01*
X169624722Y-135340662D02*
X169624722Y-134140662D01*
X169624722Y-134140662D02*
X170196150Y-134140662D01*
X171396150Y-135226377D02*
X171339007Y-135283520D01*
X171339007Y-135283520D02*
X171167579Y-135340662D01*
X171167579Y-135340662D02*
X171053293Y-135340662D01*
X171053293Y-135340662D02*
X170881864Y-135283520D01*
X170881864Y-135283520D02*
X170767579Y-135169234D01*
X170767579Y-135169234D02*
X170710436Y-135054948D01*
X170710436Y-135054948D02*
X170653293Y-134826377D01*
X170653293Y-134826377D02*
X170653293Y-134654948D01*
X170653293Y-134654948D02*
X170710436Y-134426377D01*
X170710436Y-134426377D02*
X170767579Y-134312091D01*
X170767579Y-134312091D02*
X170881864Y-134197805D01*
X170881864Y-134197805D02*
X171053293Y-134140662D01*
X171053293Y-134140662D02*
X171167579Y-134140662D01*
X171167579Y-134140662D02*
X171339007Y-134197805D01*
X171339007Y-134197805D02*
X171396150Y-134254948D01*
X171739007Y-134140662D02*
X172424722Y-134140662D01*
X172081864Y-135340662D02*
X172081864Y-134140662D01*
X173053293Y-134140662D02*
X173281865Y-134140662D01*
X173281865Y-134140662D02*
X173396150Y-134197805D01*
X173396150Y-134197805D02*
X173510436Y-134312091D01*
X173510436Y-134312091D02*
X173567579Y-134540662D01*
X173567579Y-134540662D02*
X173567579Y-134940662D01*
X173567579Y-134940662D02*
X173510436Y-135169234D01*
X173510436Y-135169234D02*
X173396150Y-135283520D01*
X173396150Y-135283520D02*
X173281865Y-135340662D01*
X173281865Y-135340662D02*
X173053293Y-135340662D01*
X173053293Y-135340662D02*
X172939008Y-135283520D01*
X172939008Y-135283520D02*
X172824722Y-135169234D01*
X172824722Y-135169234D02*
X172767579Y-134940662D01*
X172767579Y-134940662D02*
X172767579Y-134540662D01*
X172767579Y-134540662D02*
X172824722Y-134312091D01*
X172824722Y-134312091D02*
X172939008Y-134197805D01*
X172939008Y-134197805D02*
X173053293Y-134140662D01*
X174767579Y-135340662D02*
X174367579Y-134769234D01*
X174081865Y-135340662D02*
X174081865Y-134140662D01*
X174081865Y-134140662D02*
X174539008Y-134140662D01*
X174539008Y-134140662D02*
X174653293Y-134197805D01*
X174653293Y-134197805D02*
X174710436Y-134254948D01*
X174710436Y-134254948D02*
X174767579Y-134369234D01*
X174767579Y-134369234D02*
X174767579Y-134540662D01*
X174767579Y-134540662D02*
X174710436Y-134654948D01*
X174710436Y-134654948D02*
X174653293Y-134712091D01*
X174653293Y-134712091D02*
X174539008Y-134769234D01*
X174539008Y-134769234D02*
X174081865Y-134769234D01*
X170948817Y-71022071D02*
X171177389Y-71022071D01*
X171177389Y-71022071D02*
X171291674Y-71079214D01*
X171291674Y-71079214D02*
X171405960Y-71193500D01*
X171405960Y-71193500D02*
X171463103Y-71422071D01*
X171463103Y-71422071D02*
X171463103Y-71822071D01*
X171463103Y-71822071D02*
X171405960Y-72050643D01*
X171405960Y-72050643D02*
X171291674Y-72164929D01*
X171291674Y-72164929D02*
X171177389Y-72222071D01*
X171177389Y-72222071D02*
X170948817Y-72222071D01*
X170948817Y-72222071D02*
X170834532Y-72164929D01*
X170834532Y-72164929D02*
X170720246Y-72050643D01*
X170720246Y-72050643D02*
X170663103Y-71822071D01*
X170663103Y-71822071D02*
X170663103Y-71422071D01*
X170663103Y-71422071D02*
X170720246Y-71193500D01*
X170720246Y-71193500D02*
X170834532Y-71079214D01*
X170834532Y-71079214D02*
X170948817Y-71022071D01*
X171977389Y-71022071D02*
X171977389Y-71993500D01*
X171977389Y-71993500D02*
X172034532Y-72107786D01*
X172034532Y-72107786D02*
X172091675Y-72164929D01*
X172091675Y-72164929D02*
X172205960Y-72222071D01*
X172205960Y-72222071D02*
X172434532Y-72222071D01*
X172434532Y-72222071D02*
X172548817Y-72164929D01*
X172548817Y-72164929D02*
X172605960Y-72107786D01*
X172605960Y-72107786D02*
X172663103Y-71993500D01*
X172663103Y-71993500D02*
X172663103Y-71022071D01*
X173063103Y-71022071D02*
X173748818Y-71022071D01*
X173405960Y-72222071D02*
X173405960Y-71022071D01*
X174148818Y-72222071D02*
X174148818Y-71022071D01*
X174148818Y-71022071D02*
X174605961Y-71022071D01*
X174605961Y-71022071D02*
X174720246Y-71079214D01*
X174720246Y-71079214D02*
X174777389Y-71136357D01*
X174777389Y-71136357D02*
X174834532Y-71250643D01*
X174834532Y-71250643D02*
X174834532Y-71422071D01*
X174834532Y-71422071D02*
X174777389Y-71536357D01*
X174777389Y-71536357D02*
X174720246Y-71593500D01*
X174720246Y-71593500D02*
X174605961Y-71650643D01*
X174605961Y-71650643D02*
X174148818Y-71650643D01*
X175348818Y-71022071D02*
X175348818Y-71993500D01*
X175348818Y-71993500D02*
X175405961Y-72107786D01*
X175405961Y-72107786D02*
X175463104Y-72164929D01*
X175463104Y-72164929D02*
X175577389Y-72222071D01*
X175577389Y-72222071D02*
X175805961Y-72222071D01*
X175805961Y-72222071D02*
X175920246Y-72164929D01*
X175920246Y-72164929D02*
X175977389Y-72107786D01*
X175977389Y-72107786D02*
X176034532Y-71993500D01*
X176034532Y-71993500D02*
X176034532Y-71022071D01*
X176434532Y-71022071D02*
X177120247Y-71022071D01*
X176777389Y-72222071D02*
X176777389Y-71022071D01*
X177463104Y-72164929D02*
X177634533Y-72222071D01*
X177634533Y-72222071D02*
X177920247Y-72222071D01*
X177920247Y-72222071D02*
X178034533Y-72164929D01*
X178034533Y-72164929D02*
X178091675Y-72107786D01*
X178091675Y-72107786D02*
X178148818Y-71993500D01*
X178148818Y-71993500D02*
X178148818Y-71879214D01*
X178148818Y-71879214D02*
X178091675Y-71764929D01*
X178091675Y-71764929D02*
X178034533Y-71707786D01*
X178034533Y-71707786D02*
X177920247Y-71650643D01*
X177920247Y-71650643D02*
X177691675Y-71593500D01*
X177691675Y-71593500D02*
X177577390Y-71536357D01*
X177577390Y-71536357D02*
X177520247Y-71479214D01*
X177520247Y-71479214D02*
X177463104Y-71364929D01*
X177463104Y-71364929D02*
X177463104Y-71250643D01*
X177463104Y-71250643D02*
X177520247Y-71136357D01*
X177520247Y-71136357D02*
X177577390Y-71079214D01*
X177577390Y-71079214D02*
X177691675Y-71022071D01*
X177691675Y-71022071D02*
X177977390Y-71022071D01*
X177977390Y-71022071D02*
X178148818Y-71079214D01*
X179886465Y-112997805D02*
X180457894Y-112997805D01*
X179772179Y-113340662D02*
X180172179Y-112140662D01*
X180172179Y-112140662D02*
X180572179Y-113340662D01*
X181143607Y-112654948D02*
X181029322Y-112597805D01*
X181029322Y-112597805D02*
X180972179Y-112540662D01*
X180972179Y-112540662D02*
X180915036Y-112426377D01*
X180915036Y-112426377D02*
X180915036Y-112369234D01*
X180915036Y-112369234D02*
X180972179Y-112254948D01*
X180972179Y-112254948D02*
X181029322Y-112197805D01*
X181029322Y-112197805D02*
X181143607Y-112140662D01*
X181143607Y-112140662D02*
X181372179Y-112140662D01*
X181372179Y-112140662D02*
X181486465Y-112197805D01*
X181486465Y-112197805D02*
X181543607Y-112254948D01*
X181543607Y-112254948D02*
X181600750Y-112369234D01*
X181600750Y-112369234D02*
X181600750Y-112426377D01*
X181600750Y-112426377D02*
X181543607Y-112540662D01*
X181543607Y-112540662D02*
X181486465Y-112597805D01*
X181486465Y-112597805D02*
X181372179Y-112654948D01*
X181372179Y-112654948D02*
X181143607Y-112654948D01*
X181143607Y-112654948D02*
X181029322Y-112712091D01*
X181029322Y-112712091D02*
X180972179Y-112769234D01*
X180972179Y-112769234D02*
X180915036Y-112883520D01*
X180915036Y-112883520D02*
X180915036Y-113112091D01*
X180915036Y-113112091D02*
X180972179Y-113226377D01*
X180972179Y-113226377D02*
X181029322Y-113283520D01*
X181029322Y-113283520D02*
X181143607Y-113340662D01*
X181143607Y-113340662D02*
X181372179Y-113340662D01*
X181372179Y-113340662D02*
X181486465Y-113283520D01*
X181486465Y-113283520D02*
X181543607Y-113226377D01*
X181543607Y-113226377D02*
X181600750Y-113112091D01*
X181600750Y-113112091D02*
X181600750Y-112883520D01*
X181600750Y-112883520D02*
X181543607Y-112769234D01*
X181543607Y-112769234D02*
X181486465Y-112712091D01*
X181486465Y-112712091D02*
X181372179Y-112654948D01*
X179886465Y-107997805D02*
X180457894Y-107997805D01*
X179772179Y-108340662D02*
X180172179Y-107140662D01*
X180172179Y-107140662D02*
X180572179Y-108340662D01*
X180857893Y-107140662D02*
X181657893Y-107140662D01*
X181657893Y-107140662D02*
X181143607Y-108340662D01*
X179886465Y-102997805D02*
X180457894Y-102997805D01*
X179772179Y-103340662D02*
X180172179Y-102140662D01*
X180172179Y-102140662D02*
X180572179Y-103340662D01*
X181486465Y-102140662D02*
X181257893Y-102140662D01*
X181257893Y-102140662D02*
X181143607Y-102197805D01*
X181143607Y-102197805D02*
X181086465Y-102254948D01*
X181086465Y-102254948D02*
X180972179Y-102426377D01*
X180972179Y-102426377D02*
X180915036Y-102654948D01*
X180915036Y-102654948D02*
X180915036Y-103112091D01*
X180915036Y-103112091D02*
X180972179Y-103226377D01*
X180972179Y-103226377D02*
X181029322Y-103283520D01*
X181029322Y-103283520D02*
X181143607Y-103340662D01*
X181143607Y-103340662D02*
X181372179Y-103340662D01*
X181372179Y-103340662D02*
X181486465Y-103283520D01*
X181486465Y-103283520D02*
X181543607Y-103226377D01*
X181543607Y-103226377D02*
X181600750Y-103112091D01*
X181600750Y-103112091D02*
X181600750Y-102826377D01*
X181600750Y-102826377D02*
X181543607Y-102712091D01*
X181543607Y-102712091D02*
X181486465Y-102654948D01*
X181486465Y-102654948D02*
X181372179Y-102597805D01*
X181372179Y-102597805D02*
X181143607Y-102597805D01*
X181143607Y-102597805D02*
X181029322Y-102654948D01*
X181029322Y-102654948D02*
X180972179Y-102712091D01*
X180972179Y-102712091D02*
X180915036Y-102826377D01*
X179886465Y-97997805D02*
X180457894Y-97997805D01*
X179772179Y-98340662D02*
X180172179Y-97140662D01*
X180172179Y-97140662D02*
X180572179Y-98340662D01*
X181543607Y-97140662D02*
X180972179Y-97140662D01*
X180972179Y-97140662D02*
X180915036Y-97712091D01*
X180915036Y-97712091D02*
X180972179Y-97654948D01*
X180972179Y-97654948D02*
X181086465Y-97597805D01*
X181086465Y-97597805D02*
X181372179Y-97597805D01*
X181372179Y-97597805D02*
X181486465Y-97654948D01*
X181486465Y-97654948D02*
X181543607Y-97712091D01*
X181543607Y-97712091D02*
X181600750Y-97826377D01*
X181600750Y-97826377D02*
X181600750Y-98112091D01*
X181600750Y-98112091D02*
X181543607Y-98226377D01*
X181543607Y-98226377D02*
X181486465Y-98283520D01*
X181486465Y-98283520D02*
X181372179Y-98340662D01*
X181372179Y-98340662D02*
X181086465Y-98340662D01*
X181086465Y-98340662D02*
X180972179Y-98283520D01*
X180972179Y-98283520D02*
X180915036Y-98226377D01*
X179886465Y-92997805D02*
X180457894Y-92997805D01*
X179772179Y-93340662D02*
X180172179Y-92140662D01*
X180172179Y-92140662D02*
X180572179Y-93340662D01*
X181486465Y-92540662D02*
X181486465Y-93340662D01*
X181200750Y-92083520D02*
X180915036Y-92940662D01*
X180915036Y-92940662D02*
X181657893Y-92940662D01*
X179886465Y-87997805D02*
X180457894Y-87997805D01*
X179772179Y-88340662D02*
X180172179Y-87140662D01*
X180172179Y-87140662D02*
X180572179Y-88340662D01*
X180857893Y-87140662D02*
X181600750Y-87140662D01*
X181600750Y-87140662D02*
X181200750Y-87597805D01*
X181200750Y-87597805D02*
X181372179Y-87597805D01*
X181372179Y-87597805D02*
X181486465Y-87654948D01*
X181486465Y-87654948D02*
X181543607Y-87712091D01*
X181543607Y-87712091D02*
X181600750Y-87826377D01*
X181600750Y-87826377D02*
X181600750Y-88112091D01*
X181600750Y-88112091D02*
X181543607Y-88226377D01*
X181543607Y-88226377D02*
X181486465Y-88283520D01*
X181486465Y-88283520D02*
X181372179Y-88340662D01*
X181372179Y-88340662D02*
X181029322Y-88340662D01*
X181029322Y-88340662D02*
X180915036Y-88283520D01*
X180915036Y-88283520D02*
X180857893Y-88226377D01*
X179918948Y-83393107D02*
X180490377Y-83393107D01*
X179804662Y-83735964D02*
X180204662Y-82535964D01*
X180204662Y-82535964D02*
X180604662Y-83735964D01*
X180947519Y-82650250D02*
X181004662Y-82593107D01*
X181004662Y-82593107D02*
X181118948Y-82535964D01*
X181118948Y-82535964D02*
X181404662Y-82535964D01*
X181404662Y-82535964D02*
X181518948Y-82593107D01*
X181518948Y-82593107D02*
X181576090Y-82650250D01*
X181576090Y-82650250D02*
X181633233Y-82764536D01*
X181633233Y-82764536D02*
X181633233Y-82878822D01*
X181633233Y-82878822D02*
X181576090Y-83050250D01*
X181576090Y-83050250D02*
X180890376Y-83735964D01*
X180890376Y-83735964D02*
X181633233Y-83735964D01*
X179886465Y-78497805D02*
X180457894Y-78497805D01*
X179772179Y-78840662D02*
X180172179Y-77640662D01*
X180172179Y-77640662D02*
X180572179Y-78840662D01*
X181600750Y-78840662D02*
X180915036Y-78840662D01*
X181257893Y-78840662D02*
X181257893Y-77640662D01*
X181257893Y-77640662D02*
X181143607Y-77812091D01*
X181143607Y-77812091D02*
X181029322Y-77926377D01*
X181029322Y-77926377D02*
X180915036Y-77983520D01*
X179780079Y-117498113D02*
X179665794Y-117440970D01*
X179665794Y-117440970D02*
X179494365Y-117440970D01*
X179494365Y-117440970D02*
X179322936Y-117498113D01*
X179322936Y-117498113D02*
X179208651Y-117612399D01*
X179208651Y-117612399D02*
X179151508Y-117726685D01*
X179151508Y-117726685D02*
X179094365Y-117955256D01*
X179094365Y-117955256D02*
X179094365Y-118126685D01*
X179094365Y-118126685D02*
X179151508Y-118355256D01*
X179151508Y-118355256D02*
X179208651Y-118469542D01*
X179208651Y-118469542D02*
X179322936Y-118583828D01*
X179322936Y-118583828D02*
X179494365Y-118640970D01*
X179494365Y-118640970D02*
X179608651Y-118640970D01*
X179608651Y-118640970D02*
X179780079Y-118583828D01*
X179780079Y-118583828D02*
X179837222Y-118526685D01*
X179837222Y-118526685D02*
X179837222Y-118126685D01*
X179837222Y-118126685D02*
X179608651Y-118126685D01*
X180351508Y-118640970D02*
X180351508Y-117440970D01*
X180351508Y-117440970D02*
X181037222Y-118640970D01*
X181037222Y-118640970D02*
X181037222Y-117440970D01*
X181608651Y-118640970D02*
X181608651Y-117440970D01*
X181608651Y-117440970D02*
X181894365Y-117440970D01*
X181894365Y-117440970D02*
X182065794Y-117498113D01*
X182065794Y-117498113D02*
X182180079Y-117612399D01*
X182180079Y-117612399D02*
X182237222Y-117726685D01*
X182237222Y-117726685D02*
X182294365Y-117955256D01*
X182294365Y-117955256D02*
X182294365Y-118126685D01*
X182294365Y-118126685D02*
X182237222Y-118355256D01*
X182237222Y-118355256D02*
X182180079Y-118469542D01*
X182180079Y-118469542D02*
X182065794Y-118583828D01*
X182065794Y-118583828D02*
X181894365Y-118640970D01*
X181894365Y-118640970D02*
X181608651Y-118640970D01*
X118072179Y-131197805D02*
X117957894Y-131140662D01*
X117957894Y-131140662D02*
X117786465Y-131140662D01*
X117786465Y-131140662D02*
X117615036Y-131197805D01*
X117615036Y-131197805D02*
X117500751Y-131312091D01*
X117500751Y-131312091D02*
X117443608Y-131426377D01*
X117443608Y-131426377D02*
X117386465Y-131654948D01*
X117386465Y-131654948D02*
X117386465Y-131826377D01*
X117386465Y-131826377D02*
X117443608Y-132054948D01*
X117443608Y-132054948D02*
X117500751Y-132169234D01*
X117500751Y-132169234D02*
X117615036Y-132283520D01*
X117615036Y-132283520D02*
X117786465Y-132340662D01*
X117786465Y-132340662D02*
X117900751Y-132340662D01*
X117900751Y-132340662D02*
X118072179Y-132283520D01*
X118072179Y-132283520D02*
X118129322Y-132226377D01*
X118129322Y-132226377D02*
X118129322Y-131826377D01*
X118129322Y-131826377D02*
X117900751Y-131826377D01*
X118643608Y-132340662D02*
X118643608Y-131140662D01*
X118643608Y-131140662D02*
X119329322Y-132340662D01*
X119329322Y-132340662D02*
X119329322Y-131140662D01*
X119900751Y-132340662D02*
X119900751Y-131140662D01*
X119900751Y-131140662D02*
X120186465Y-131140662D01*
X120186465Y-131140662D02*
X120357894Y-131197805D01*
X120357894Y-131197805D02*
X120472179Y-131312091D01*
X120472179Y-131312091D02*
X120529322Y-131426377D01*
X120529322Y-131426377D02*
X120586465Y-131654948D01*
X120586465Y-131654948D02*
X120586465Y-131826377D01*
X120586465Y-131826377D02*
X120529322Y-132054948D01*
X120529322Y-132054948D02*
X120472179Y-132169234D01*
X120472179Y-132169234D02*
X120357894Y-132283520D01*
X120357894Y-132283520D02*
X120186465Y-132340662D01*
X120186465Y-132340662D02*
X119900751Y-132340662D01*
X95919697Y-95956961D02*
X95233983Y-95956961D01*
X95576840Y-95956961D02*
X95576840Y-94756961D01*
X95576840Y-94756961D02*
X95462554Y-94928390D01*
X95462554Y-94928390D02*
X95348269Y-95042676D01*
X95348269Y-95042676D02*
X95233983Y-95099819D01*
X96376840Y-94871247D02*
X96433983Y-94814104D01*
X96433983Y-94814104D02*
X96548269Y-94756961D01*
X96548269Y-94756961D02*
X96833983Y-94756961D01*
X96833983Y-94756961D02*
X96948269Y-94814104D01*
X96948269Y-94814104D02*
X97005411Y-94871247D01*
X97005411Y-94871247D02*
X97062554Y-94985533D01*
X97062554Y-94985533D02*
X97062554Y-95099819D01*
X97062554Y-95099819D02*
X97005411Y-95271247D01*
X97005411Y-95271247D02*
X96319697Y-95956961D01*
X96319697Y-95956961D02*
X97062554Y-95956961D01*
X97576840Y-95499819D02*
X98491126Y-95499819D01*
X99005411Y-94871247D02*
X99062554Y-94814104D01*
X99062554Y-94814104D02*
X99176840Y-94756961D01*
X99176840Y-94756961D02*
X99462554Y-94756961D01*
X99462554Y-94756961D02*
X99576840Y-94814104D01*
X99576840Y-94814104D02*
X99633982Y-94871247D01*
X99633982Y-94871247D02*
X99691125Y-94985533D01*
X99691125Y-94985533D02*
X99691125Y-95099819D01*
X99691125Y-95099819D02*
X99633982Y-95271247D01*
X99633982Y-95271247D02*
X98948268Y-95956961D01*
X98948268Y-95956961D02*
X99691125Y-95956961D01*
X100719697Y-95156961D02*
X100719697Y-95956961D01*
X100433982Y-94699819D02*
X100148268Y-95556961D01*
X100148268Y-95556961D02*
X100891125Y-95556961D01*
X101176839Y-94756961D02*
X101576839Y-95956961D01*
X101576839Y-95956961D02*
X101976839Y-94756961D01*
X97657303Y-100201719D02*
X97543018Y-100144576D01*
X97543018Y-100144576D02*
X97371589Y-100144576D01*
X97371589Y-100144576D02*
X97200160Y-100201719D01*
X97200160Y-100201719D02*
X97085875Y-100316005D01*
X97085875Y-100316005D02*
X97028732Y-100430291D01*
X97028732Y-100430291D02*
X96971589Y-100658862D01*
X96971589Y-100658862D02*
X96971589Y-100830291D01*
X96971589Y-100830291D02*
X97028732Y-101058862D01*
X97028732Y-101058862D02*
X97085875Y-101173148D01*
X97085875Y-101173148D02*
X97200160Y-101287434D01*
X97200160Y-101287434D02*
X97371589Y-101344576D01*
X97371589Y-101344576D02*
X97485875Y-101344576D01*
X97485875Y-101344576D02*
X97657303Y-101287434D01*
X97657303Y-101287434D02*
X97714446Y-101230291D01*
X97714446Y-101230291D02*
X97714446Y-100830291D01*
X97714446Y-100830291D02*
X97485875Y-100830291D01*
X98228732Y-101344576D02*
X98228732Y-100144576D01*
X98228732Y-100144576D02*
X98914446Y-101344576D01*
X98914446Y-101344576D02*
X98914446Y-100144576D01*
X99485875Y-101344576D02*
X99485875Y-100144576D01*
X99485875Y-100144576D02*
X99771589Y-100144576D01*
X99771589Y-100144576D02*
X99943018Y-100201719D01*
X99943018Y-100201719D02*
X100057303Y-100316005D01*
X100057303Y-100316005D02*
X100114446Y-100430291D01*
X100114446Y-100430291D02*
X100171589Y-100658862D01*
X100171589Y-100658862D02*
X100171589Y-100830291D01*
X100171589Y-100830291D02*
X100114446Y-101058862D01*
X100114446Y-101058862D02*
X100057303Y-101173148D01*
X100057303Y-101173148D02*
X99943018Y-101287434D01*
X99943018Y-101287434D02*
X99771589Y-101344576D01*
X99771589Y-101344576D02*
X99485875Y-101344576D01*
D14*
X121048871Y-63734438D02*
X121525061Y-65734438D01*
X121525061Y-65734438D02*
X121906014Y-64305866D01*
X121906014Y-64305866D02*
X122286966Y-65734438D01*
X122286966Y-65734438D02*
X122763157Y-63734438D01*
X124477442Y-63734438D02*
X123525061Y-63734438D01*
X123525061Y-63734438D02*
X123429823Y-64686819D01*
X123429823Y-64686819D02*
X123525061Y-64591580D01*
X123525061Y-64591580D02*
X123715537Y-64496342D01*
X123715537Y-64496342D02*
X124191728Y-64496342D01*
X124191728Y-64496342D02*
X124382204Y-64591580D01*
X124382204Y-64591580D02*
X124477442Y-64686819D01*
X124477442Y-64686819D02*
X124572680Y-64877295D01*
X124572680Y-64877295D02*
X124572680Y-65353485D01*
X124572680Y-65353485D02*
X124477442Y-65543961D01*
X124477442Y-65543961D02*
X124382204Y-65639200D01*
X124382204Y-65639200D02*
X124191728Y-65734438D01*
X124191728Y-65734438D02*
X123715537Y-65734438D01*
X123715537Y-65734438D02*
X123525061Y-65639200D01*
X123525061Y-65639200D02*
X123429823Y-65543961D01*
X126382204Y-63734438D02*
X125429823Y-63734438D01*
X125429823Y-63734438D02*
X125334585Y-64686819D01*
X125334585Y-64686819D02*
X125429823Y-64591580D01*
X125429823Y-64591580D02*
X125620299Y-64496342D01*
X125620299Y-64496342D02*
X126096490Y-64496342D01*
X126096490Y-64496342D02*
X126286966Y-64591580D01*
X126286966Y-64591580D02*
X126382204Y-64686819D01*
X126382204Y-64686819D02*
X126477442Y-64877295D01*
X126477442Y-64877295D02*
X126477442Y-65353485D01*
X126477442Y-65353485D02*
X126382204Y-65543961D01*
X126382204Y-65543961D02*
X126286966Y-65639200D01*
X126286966Y-65639200D02*
X126096490Y-65734438D01*
X126096490Y-65734438D02*
X125620299Y-65734438D01*
X125620299Y-65734438D02*
X125429823Y-65639200D01*
X125429823Y-65639200D02*
X125334585Y-65543961D01*
X127715537Y-63734438D02*
X127906014Y-63734438D01*
X127906014Y-63734438D02*
X128096490Y-63829676D01*
X128096490Y-63829676D02*
X128191728Y-63924914D01*
X128191728Y-63924914D02*
X128286966Y-64115390D01*
X128286966Y-64115390D02*
X128382204Y-64496342D01*
X128382204Y-64496342D02*
X128382204Y-64972533D01*
X128382204Y-64972533D02*
X128286966Y-65353485D01*
X128286966Y-65353485D02*
X128191728Y-65543961D01*
X128191728Y-65543961D02*
X128096490Y-65639200D01*
X128096490Y-65639200D02*
X127906014Y-65734438D01*
X127906014Y-65734438D02*
X127715537Y-65734438D01*
X127715537Y-65734438D02*
X127525061Y-65639200D01*
X127525061Y-65639200D02*
X127429823Y-65543961D01*
X127429823Y-65543961D02*
X127334585Y-65353485D01*
X127334585Y-65353485D02*
X127239347Y-64972533D01*
X127239347Y-64972533D02*
X127239347Y-64496342D01*
X127239347Y-64496342D02*
X127334585Y-64115390D01*
X127334585Y-64115390D02*
X127429823Y-63924914D01*
X127429823Y-63924914D02*
X127525061Y-63829676D01*
X127525061Y-63829676D02*
X127715537Y-63734438D01*
X129620299Y-63734438D02*
X129810776Y-63734438D01*
X129810776Y-63734438D02*
X130001252Y-63829676D01*
X130001252Y-63829676D02*
X130096490Y-63924914D01*
X130096490Y-63924914D02*
X130191728Y-64115390D01*
X130191728Y-64115390D02*
X130286966Y-64496342D01*
X130286966Y-64496342D02*
X130286966Y-64972533D01*
X130286966Y-64972533D02*
X130191728Y-65353485D01*
X130191728Y-65353485D02*
X130096490Y-65543961D01*
X130096490Y-65543961D02*
X130001252Y-65639200D01*
X130001252Y-65639200D02*
X129810776Y-65734438D01*
X129810776Y-65734438D02*
X129620299Y-65734438D01*
X129620299Y-65734438D02*
X129429823Y-65639200D01*
X129429823Y-65639200D02*
X129334585Y-65543961D01*
X129334585Y-65543961D02*
X129239347Y-65353485D01*
X129239347Y-65353485D02*
X129144109Y-64972533D01*
X129144109Y-64972533D02*
X129144109Y-64496342D01*
X129144109Y-64496342D02*
X129239347Y-64115390D01*
X129239347Y-64115390D02*
X129334585Y-63924914D01*
X129334585Y-63924914D02*
X129429823Y-63829676D01*
X129429823Y-63829676D02*
X129620299Y-63734438D01*
X156139200Y-96855890D02*
X156234438Y-96570176D01*
X156234438Y-96570176D02*
X156234438Y-96093985D01*
X156234438Y-96093985D02*
X156139200Y-95903509D01*
X156139200Y-95903509D02*
X156043961Y-95808271D01*
X156043961Y-95808271D02*
X155853485Y-95713033D01*
X155853485Y-95713033D02*
X155663009Y-95713033D01*
X155663009Y-95713033D02*
X155472533Y-95808271D01*
X155472533Y-95808271D02*
X155377295Y-95903509D01*
X155377295Y-95903509D02*
X155282057Y-96093985D01*
X155282057Y-96093985D02*
X155186819Y-96474938D01*
X155186819Y-96474938D02*
X155091580Y-96665414D01*
X155091580Y-96665414D02*
X154996342Y-96760652D01*
X154996342Y-96760652D02*
X154805866Y-96855890D01*
X154805866Y-96855890D02*
X154615390Y-96855890D01*
X154615390Y-96855890D02*
X154424914Y-96760652D01*
X154424914Y-96760652D02*
X154329676Y-96665414D01*
X154329676Y-96665414D02*
X154234438Y-96474938D01*
X154234438Y-96474938D02*
X154234438Y-95998747D01*
X154234438Y-95998747D02*
X154329676Y-95713033D01*
X154234438Y-95141604D02*
X154234438Y-93998747D01*
X156234438Y-94570176D02*
X154234438Y-94570176D01*
X156234438Y-93332080D02*
X154234438Y-93332080D01*
X154234438Y-93332080D02*
X155663009Y-92665413D01*
X155663009Y-92665413D02*
X154234438Y-91998747D01*
X154234438Y-91998747D02*
X156234438Y-91998747D01*
X154234438Y-91236842D02*
X154234438Y-89998747D01*
X154234438Y-89998747D02*
X154996342Y-90665414D01*
X154996342Y-90665414D02*
X154996342Y-90379699D01*
X154996342Y-90379699D02*
X155091580Y-90189223D01*
X155091580Y-90189223D02*
X155186819Y-90093985D01*
X155186819Y-90093985D02*
X155377295Y-89998747D01*
X155377295Y-89998747D02*
X155853485Y-89998747D01*
X155853485Y-89998747D02*
X156043961Y-90093985D01*
X156043961Y-90093985D02*
X156139200Y-90189223D01*
X156139200Y-90189223D02*
X156234438Y-90379699D01*
X156234438Y-90379699D02*
X156234438Y-90951128D01*
X156234438Y-90951128D02*
X156139200Y-91141604D01*
X156139200Y-91141604D02*
X156043961Y-91236842D01*
X154424914Y-89236842D02*
X154329676Y-89141604D01*
X154329676Y-89141604D02*
X154234438Y-88951128D01*
X154234438Y-88951128D02*
X154234438Y-88474937D01*
X154234438Y-88474937D02*
X154329676Y-88284461D01*
X154329676Y-88284461D02*
X154424914Y-88189223D01*
X154424914Y-88189223D02*
X154615390Y-88093985D01*
X154615390Y-88093985D02*
X154805866Y-88093985D01*
X154805866Y-88093985D02*
X155091580Y-88189223D01*
X155091580Y-88189223D02*
X156234438Y-89332080D01*
X156234438Y-89332080D02*
X156234438Y-88093985D01*
X155186819Y-86570175D02*
X155186819Y-87236842D01*
X156234438Y-87236842D02*
X154234438Y-87236842D01*
X154234438Y-87236842D02*
X154234438Y-86284461D01*
X154901104Y-84665413D02*
X156234438Y-84665413D01*
X154139200Y-85141604D02*
X155567771Y-85617794D01*
X155567771Y-85617794D02*
X155567771Y-84379699D01*
X154234438Y-83236842D02*
X154234438Y-83046365D01*
X154234438Y-83046365D02*
X154329676Y-82855889D01*
X154329676Y-82855889D02*
X154424914Y-82760651D01*
X154424914Y-82760651D02*
X154615390Y-82665413D01*
X154615390Y-82665413D02*
X154996342Y-82570175D01*
X154996342Y-82570175D02*
X155472533Y-82570175D01*
X155472533Y-82570175D02*
X155853485Y-82665413D01*
X155853485Y-82665413D02*
X156043961Y-82760651D01*
X156043961Y-82760651D02*
X156139200Y-82855889D01*
X156139200Y-82855889D02*
X156234438Y-83046365D01*
X156234438Y-83046365D02*
X156234438Y-83236842D01*
X156234438Y-83236842D02*
X156139200Y-83427318D01*
X156139200Y-83427318D02*
X156043961Y-83522556D01*
X156043961Y-83522556D02*
X155853485Y-83617794D01*
X155853485Y-83617794D02*
X155472533Y-83713032D01*
X155472533Y-83713032D02*
X154996342Y-83713032D01*
X154996342Y-83713032D02*
X154615390Y-83617794D01*
X154615390Y-83617794D02*
X154424914Y-83522556D01*
X154424914Y-83522556D02*
X154329676Y-83427318D01*
X154329676Y-83427318D02*
X154234438Y-83236842D01*
X156234438Y-80665413D02*
X156234438Y-81808270D01*
X156234438Y-81236842D02*
X154234438Y-81236842D01*
X154234438Y-81236842D02*
X154520152Y-81427318D01*
X154520152Y-81427318D02*
X154710628Y-81617794D01*
X154710628Y-81617794D02*
X154805866Y-81808270D01*
X156043961Y-78665413D02*
X156139200Y-78760651D01*
X156139200Y-78760651D02*
X156234438Y-79046365D01*
X156234438Y-79046365D02*
X156234438Y-79236841D01*
X156234438Y-79236841D02*
X156139200Y-79522556D01*
X156139200Y-79522556D02*
X155948723Y-79713032D01*
X155948723Y-79713032D02*
X155758247Y-79808270D01*
X155758247Y-79808270D02*
X155377295Y-79903508D01*
X155377295Y-79903508D02*
X155091580Y-79903508D01*
X155091580Y-79903508D02*
X154710628Y-79808270D01*
X154710628Y-79808270D02*
X154520152Y-79713032D01*
X154520152Y-79713032D02*
X154329676Y-79522556D01*
X154329676Y-79522556D02*
X154234438Y-79236841D01*
X154234438Y-79236841D02*
X154234438Y-79046365D01*
X154234438Y-79046365D02*
X154329676Y-78760651D01*
X154329676Y-78760651D02*
X154424914Y-78665413D01*
X156043961Y-76665413D02*
X156139200Y-76760651D01*
X156139200Y-76760651D02*
X156234438Y-77046365D01*
X156234438Y-77046365D02*
X156234438Y-77236841D01*
X156234438Y-77236841D02*
X156139200Y-77522556D01*
X156139200Y-77522556D02*
X155948723Y-77713032D01*
X155948723Y-77713032D02*
X155758247Y-77808270D01*
X155758247Y-77808270D02*
X155377295Y-77903508D01*
X155377295Y-77903508D02*
X155091580Y-77903508D01*
X155091580Y-77903508D02*
X154710628Y-77808270D01*
X154710628Y-77808270D02*
X154520152Y-77713032D01*
X154520152Y-77713032D02*
X154329676Y-77522556D01*
X154329676Y-77522556D02*
X154234438Y-77236841D01*
X154234438Y-77236841D02*
X154234438Y-77046365D01*
X154234438Y-77046365D02*
X154329676Y-76760651D01*
X154329676Y-76760651D02*
X154424914Y-76665413D01*
X154234438Y-75808270D02*
X155853485Y-75808270D01*
X155853485Y-75808270D02*
X156043961Y-75713032D01*
X156043961Y-75713032D02*
X156139200Y-75617794D01*
X156139200Y-75617794D02*
X156234438Y-75427318D01*
X156234438Y-75427318D02*
X156234438Y-75046365D01*
X156234438Y-75046365D02*
X156139200Y-74855889D01*
X156139200Y-74855889D02*
X156043961Y-74760651D01*
X156043961Y-74760651D02*
X155853485Y-74665413D01*
X155853485Y-74665413D02*
X154234438Y-74665413D01*
X154234438Y-72855889D02*
X154234438Y-73236842D01*
X154234438Y-73236842D02*
X154329676Y-73427318D01*
X154329676Y-73427318D02*
X154424914Y-73522556D01*
X154424914Y-73522556D02*
X154710628Y-73713032D01*
X154710628Y-73713032D02*
X155091580Y-73808270D01*
X155091580Y-73808270D02*
X155853485Y-73808270D01*
X155853485Y-73808270D02*
X156043961Y-73713032D01*
X156043961Y-73713032D02*
X156139200Y-73617794D01*
X156139200Y-73617794D02*
X156234438Y-73427318D01*
X156234438Y-73427318D02*
X156234438Y-73046365D01*
X156234438Y-73046365D02*
X156139200Y-72855889D01*
X156139200Y-72855889D02*
X156043961Y-72760651D01*
X156043961Y-72760651D02*
X155853485Y-72665413D01*
X155853485Y-72665413D02*
X155377295Y-72665413D01*
X155377295Y-72665413D02*
X155186819Y-72760651D01*
X155186819Y-72760651D02*
X155091580Y-72855889D01*
X155091580Y-72855889D02*
X154996342Y-73046365D01*
X154996342Y-73046365D02*
X154996342Y-73427318D01*
X154996342Y-73427318D02*
X155091580Y-73617794D01*
X155091580Y-73617794D02*
X155186819Y-73713032D01*
X155186819Y-73713032D02*
X155377295Y-73808270D01*
D15*
X172066667Y-124624819D02*
X172066667Y-123624819D01*
X172066667Y-123624819D02*
X172447619Y-123624819D01*
X172447619Y-123624819D02*
X172542857Y-123672438D01*
X172542857Y-123672438D02*
X172590476Y-123720057D01*
X172590476Y-123720057D02*
X172638095Y-123815295D01*
X172638095Y-123815295D02*
X172638095Y-123958152D01*
X172638095Y-123958152D02*
X172590476Y-124053390D01*
X172590476Y-124053390D02*
X172542857Y-124101009D01*
X172542857Y-124101009D02*
X172447619Y-124148628D01*
X172447619Y-124148628D02*
X172066667Y-124148628D01*
X172971429Y-123624819D02*
X173209524Y-124624819D01*
X173209524Y-124624819D02*
X173400000Y-123910533D01*
X173400000Y-123910533D02*
X173590476Y-124624819D01*
X173590476Y-124624819D02*
X173828572Y-123624819D01*
X174780952Y-124624819D02*
X174447619Y-124148628D01*
X174209524Y-124624819D02*
X174209524Y-123624819D01*
X174209524Y-123624819D02*
X174590476Y-123624819D01*
X174590476Y-123624819D02*
X174685714Y-123672438D01*
X174685714Y-123672438D02*
X174733333Y-123720057D01*
X174733333Y-123720057D02*
X174780952Y-123815295D01*
X174780952Y-123815295D02*
X174780952Y-123958152D01*
X174780952Y-123958152D02*
X174733333Y-124053390D01*
X174733333Y-124053390D02*
X174685714Y-124101009D01*
X174685714Y-124101009D02*
X174590476Y-124148628D01*
X174590476Y-124148628D02*
X174209524Y-124148628D01*
X124764819Y-100047618D02*
X125574342Y-100047618D01*
X125574342Y-100047618D02*
X125669580Y-99999999D01*
X125669580Y-99999999D02*
X125717200Y-99952380D01*
X125717200Y-99952380D02*
X125764819Y-99857142D01*
X125764819Y-99857142D02*
X125764819Y-99666666D01*
X125764819Y-99666666D02*
X125717200Y-99571428D01*
X125717200Y-99571428D02*
X125669580Y-99523809D01*
X125669580Y-99523809D02*
X125574342Y-99476190D01*
X125574342Y-99476190D02*
X124764819Y-99476190D01*
X125764819Y-98523809D02*
X125764819Y-98999999D01*
X125764819Y-98999999D02*
X124764819Y-98999999D01*
X125764819Y-98190475D02*
X124764819Y-98190475D01*
X124764819Y-98190475D02*
X125764819Y-97619047D01*
X125764819Y-97619047D02*
X124764819Y-97619047D01*
X124860057Y-97190475D02*
X124812438Y-97142856D01*
X124812438Y-97142856D02*
X124764819Y-97047618D01*
X124764819Y-97047618D02*
X124764819Y-96809523D01*
X124764819Y-96809523D02*
X124812438Y-96714285D01*
X124812438Y-96714285D02*
X124860057Y-96666666D01*
X124860057Y-96666666D02*
X124955295Y-96619047D01*
X124955295Y-96619047D02*
X125050533Y-96619047D01*
X125050533Y-96619047D02*
X125193390Y-96666666D01*
X125193390Y-96666666D02*
X125764819Y-97238094D01*
X125764819Y-97238094D02*
X125764819Y-96619047D01*
X125193390Y-96047618D02*
X125145771Y-96142856D01*
X125145771Y-96142856D02*
X125098152Y-96190475D01*
X125098152Y-96190475D02*
X125002914Y-96238094D01*
X125002914Y-96238094D02*
X124955295Y-96238094D01*
X124955295Y-96238094D02*
X124860057Y-96190475D01*
X124860057Y-96190475D02*
X124812438Y-96142856D01*
X124812438Y-96142856D02*
X124764819Y-96047618D01*
X124764819Y-96047618D02*
X124764819Y-95857142D01*
X124764819Y-95857142D02*
X124812438Y-95761904D01*
X124812438Y-95761904D02*
X124860057Y-95714285D01*
X124860057Y-95714285D02*
X124955295Y-95666666D01*
X124955295Y-95666666D02*
X125002914Y-95666666D01*
X125002914Y-95666666D02*
X125098152Y-95714285D01*
X125098152Y-95714285D02*
X125145771Y-95761904D01*
X125145771Y-95761904D02*
X125193390Y-95857142D01*
X125193390Y-95857142D02*
X125193390Y-96047618D01*
X125193390Y-96047618D02*
X125241009Y-96142856D01*
X125241009Y-96142856D02*
X125288628Y-96190475D01*
X125288628Y-96190475D02*
X125383866Y-96238094D01*
X125383866Y-96238094D02*
X125574342Y-96238094D01*
X125574342Y-96238094D02*
X125669580Y-96190475D01*
X125669580Y-96190475D02*
X125717200Y-96142856D01*
X125717200Y-96142856D02*
X125764819Y-96047618D01*
X125764819Y-96047618D02*
X125764819Y-95857142D01*
X125764819Y-95857142D02*
X125717200Y-95761904D01*
X125717200Y-95761904D02*
X125669580Y-95714285D01*
X125669580Y-95714285D02*
X125574342Y-95666666D01*
X125574342Y-95666666D02*
X125383866Y-95666666D01*
X125383866Y-95666666D02*
X125288628Y-95714285D01*
X125288628Y-95714285D02*
X125241009Y-95761904D01*
X125241009Y-95761904D02*
X125193390Y-95857142D01*
X124764819Y-95047618D02*
X124764819Y-94952380D01*
X124764819Y-94952380D02*
X124812438Y-94857142D01*
X124812438Y-94857142D02*
X124860057Y-94809523D01*
X124860057Y-94809523D02*
X124955295Y-94761904D01*
X124955295Y-94761904D02*
X125145771Y-94714285D01*
X125145771Y-94714285D02*
X125383866Y-94714285D01*
X125383866Y-94714285D02*
X125574342Y-94761904D01*
X125574342Y-94761904D02*
X125669580Y-94809523D01*
X125669580Y-94809523D02*
X125717200Y-94857142D01*
X125717200Y-94857142D02*
X125764819Y-94952380D01*
X125764819Y-94952380D02*
X125764819Y-95047618D01*
X125764819Y-95047618D02*
X125717200Y-95142856D01*
X125717200Y-95142856D02*
X125669580Y-95190475D01*
X125669580Y-95190475D02*
X125574342Y-95238094D01*
X125574342Y-95238094D02*
X125383866Y-95285713D01*
X125383866Y-95285713D02*
X125145771Y-95285713D01*
X125145771Y-95285713D02*
X124955295Y-95238094D01*
X124955295Y-95238094D02*
X124860057Y-95190475D01*
X124860057Y-95190475D02*
X124812438Y-95142856D01*
X124812438Y-95142856D02*
X124764819Y-95047618D01*
X124764819Y-94380951D02*
X124764819Y-93761904D01*
X124764819Y-93761904D02*
X125145771Y-94095237D01*
X125145771Y-94095237D02*
X125145771Y-93952380D01*
X125145771Y-93952380D02*
X125193390Y-93857142D01*
X125193390Y-93857142D02*
X125241009Y-93809523D01*
X125241009Y-93809523D02*
X125336247Y-93761904D01*
X125336247Y-93761904D02*
X125574342Y-93761904D01*
X125574342Y-93761904D02*
X125669580Y-93809523D01*
X125669580Y-93809523D02*
X125717200Y-93857142D01*
X125717200Y-93857142D02*
X125764819Y-93952380D01*
X125764819Y-93952380D02*
X125764819Y-94238094D01*
X125764819Y-94238094D02*
X125717200Y-94333332D01*
X125717200Y-94333332D02*
X125669580Y-94380951D01*
X125479104Y-93380951D02*
X125479104Y-92904761D01*
X125764819Y-93476189D02*
X124764819Y-93142856D01*
X124764819Y-93142856D02*
X125764819Y-92809523D01*
X137186064Y-99147096D02*
X137995587Y-99147096D01*
X137995587Y-99147096D02*
X138090825Y-99099477D01*
X138090825Y-99099477D02*
X138138445Y-99051858D01*
X138138445Y-99051858D02*
X138186064Y-98956620D01*
X138186064Y-98956620D02*
X138186064Y-98766144D01*
X138186064Y-98766144D02*
X138138445Y-98670906D01*
X138138445Y-98670906D02*
X138090825Y-98623287D01*
X138090825Y-98623287D02*
X137995587Y-98575668D01*
X137995587Y-98575668D02*
X137186064Y-98575668D01*
X138186064Y-98099477D02*
X137186064Y-98099477D01*
X137186064Y-98099477D02*
X137186064Y-97861382D01*
X137186064Y-97861382D02*
X137233683Y-97718525D01*
X137233683Y-97718525D02*
X137328921Y-97623287D01*
X137328921Y-97623287D02*
X137424159Y-97575668D01*
X137424159Y-97575668D02*
X137614635Y-97528049D01*
X137614635Y-97528049D02*
X137757492Y-97528049D01*
X137757492Y-97528049D02*
X137947968Y-97575668D01*
X137947968Y-97575668D02*
X138043206Y-97623287D01*
X138043206Y-97623287D02*
X138138445Y-97718525D01*
X138138445Y-97718525D02*
X138186064Y-97861382D01*
X138186064Y-97861382D02*
X138186064Y-98099477D01*
X138186064Y-97099477D02*
X137186064Y-97099477D01*
X137186064Y-97099477D02*
X138186064Y-96528049D01*
X138186064Y-96528049D02*
X137186064Y-96528049D01*
X137281302Y-96099477D02*
X137233683Y-96051858D01*
X137233683Y-96051858D02*
X137186064Y-95956620D01*
X137186064Y-95956620D02*
X137186064Y-95718525D01*
X137186064Y-95718525D02*
X137233683Y-95623287D01*
X137233683Y-95623287D02*
X137281302Y-95575668D01*
X137281302Y-95575668D02*
X137376540Y-95528049D01*
X137376540Y-95528049D02*
X137471778Y-95528049D01*
X137471778Y-95528049D02*
X137614635Y-95575668D01*
X137614635Y-95575668D02*
X138186064Y-96147096D01*
X138186064Y-96147096D02*
X138186064Y-95528049D01*
X138186064Y-95051858D02*
X138186064Y-94861382D01*
X138186064Y-94861382D02*
X138138445Y-94766144D01*
X138138445Y-94766144D02*
X138090825Y-94718525D01*
X138090825Y-94718525D02*
X137947968Y-94623287D01*
X137947968Y-94623287D02*
X137757492Y-94575668D01*
X137757492Y-94575668D02*
X137376540Y-94575668D01*
X137376540Y-94575668D02*
X137281302Y-94623287D01*
X137281302Y-94623287D02*
X137233683Y-94670906D01*
X137233683Y-94670906D02*
X137186064Y-94766144D01*
X137186064Y-94766144D02*
X137186064Y-94956620D01*
X137186064Y-94956620D02*
X137233683Y-95051858D01*
X137233683Y-95051858D02*
X137281302Y-95099477D01*
X137281302Y-95099477D02*
X137376540Y-95147096D01*
X137376540Y-95147096D02*
X137614635Y-95147096D01*
X137614635Y-95147096D02*
X137709873Y-95099477D01*
X137709873Y-95099477D02*
X137757492Y-95051858D01*
X137757492Y-95051858D02*
X137805111Y-94956620D01*
X137805111Y-94956620D02*
X137805111Y-94766144D01*
X137805111Y-94766144D02*
X137757492Y-94670906D01*
X137757492Y-94670906D02*
X137709873Y-94623287D01*
X137709873Y-94623287D02*
X137614635Y-94575668D01*
X137614635Y-94004239D02*
X137567016Y-94099477D01*
X137567016Y-94099477D02*
X137519397Y-94147096D01*
X137519397Y-94147096D02*
X137424159Y-94194715D01*
X137424159Y-94194715D02*
X137376540Y-94194715D01*
X137376540Y-94194715D02*
X137281302Y-94147096D01*
X137281302Y-94147096D02*
X137233683Y-94099477D01*
X137233683Y-94099477D02*
X137186064Y-94004239D01*
X137186064Y-94004239D02*
X137186064Y-93813763D01*
X137186064Y-93813763D02*
X137233683Y-93718525D01*
X137233683Y-93718525D02*
X137281302Y-93670906D01*
X137281302Y-93670906D02*
X137376540Y-93623287D01*
X137376540Y-93623287D02*
X137424159Y-93623287D01*
X137424159Y-93623287D02*
X137519397Y-93670906D01*
X137519397Y-93670906D02*
X137567016Y-93718525D01*
X137567016Y-93718525D02*
X137614635Y-93813763D01*
X137614635Y-93813763D02*
X137614635Y-94004239D01*
X137614635Y-94004239D02*
X137662254Y-94099477D01*
X137662254Y-94099477D02*
X137709873Y-94147096D01*
X137709873Y-94147096D02*
X137805111Y-94194715D01*
X137805111Y-94194715D02*
X137995587Y-94194715D01*
X137995587Y-94194715D02*
X138090825Y-94147096D01*
X138090825Y-94147096D02*
X138138445Y-94099477D01*
X138138445Y-94099477D02*
X138186064Y-94004239D01*
X138186064Y-94004239D02*
X138186064Y-93813763D01*
X138186064Y-93813763D02*
X138138445Y-93718525D01*
X138138445Y-93718525D02*
X138090825Y-93670906D01*
X138090825Y-93670906D02*
X137995587Y-93623287D01*
X137995587Y-93623287D02*
X137805111Y-93623287D01*
X137805111Y-93623287D02*
X137709873Y-93670906D01*
X137709873Y-93670906D02*
X137662254Y-93718525D01*
X137662254Y-93718525D02*
X137614635Y-93813763D01*
X138186064Y-92670906D02*
X138186064Y-93242334D01*
X138186064Y-92956620D02*
X137186064Y-92956620D01*
X137186064Y-92956620D02*
X137328921Y-93051858D01*
X137328921Y-93051858D02*
X137424159Y-93147096D01*
X137424159Y-93147096D02*
X137471778Y-93242334D01*
X140904761Y-65784819D02*
X140333333Y-65784819D01*
X140619047Y-65784819D02*
X140619047Y-64784819D01*
X140619047Y-64784819D02*
X140523809Y-64927676D01*
X140523809Y-64927676D02*
X140428571Y-65022914D01*
X140428571Y-65022914D02*
X140333333Y-65070533D01*
X141523809Y-64784819D02*
X141619047Y-64784819D01*
X141619047Y-64784819D02*
X141714285Y-64832438D01*
X141714285Y-64832438D02*
X141761904Y-64880057D01*
X141761904Y-64880057D02*
X141809523Y-64975295D01*
X141809523Y-64975295D02*
X141857142Y-65165771D01*
X141857142Y-65165771D02*
X141857142Y-65403866D01*
X141857142Y-65403866D02*
X141809523Y-65594342D01*
X141809523Y-65594342D02*
X141761904Y-65689580D01*
X141761904Y-65689580D02*
X141714285Y-65737200D01*
X141714285Y-65737200D02*
X141619047Y-65784819D01*
X141619047Y-65784819D02*
X141523809Y-65784819D01*
X141523809Y-65784819D02*
X141428571Y-65737200D01*
X141428571Y-65737200D02*
X141380952Y-65689580D01*
X141380952Y-65689580D02*
X141333333Y-65594342D01*
X141333333Y-65594342D02*
X141285714Y-65403866D01*
X141285714Y-65403866D02*
X141285714Y-65165771D01*
X141285714Y-65165771D02*
X141333333Y-64975295D01*
X141333333Y-64975295D02*
X141380952Y-64880057D01*
X141380952Y-64880057D02*
X141428571Y-64832438D01*
X141428571Y-64832438D02*
X141523809Y-64784819D01*
X142285714Y-65784819D02*
X142285714Y-64784819D01*
X142380952Y-65403866D02*
X142666666Y-65784819D01*
X142666666Y-65118152D02*
X142285714Y-65499104D01*
X126658095Y-108854819D02*
X126658095Y-107854819D01*
X127229523Y-108854819D02*
X126800952Y-108283390D01*
X127229523Y-107854819D02*
X126658095Y-108426247D01*
X136318095Y-83054819D02*
X136318095Y-82054819D01*
X136889523Y-83054819D02*
X136460952Y-82483390D01*
X136889523Y-82054819D02*
X136318095Y-82626247D01*
D16*
%TO.C,D3*%
X171800000Y-127135000D02*
X175685000Y-127135000D01*
X175685000Y-124865000D02*
X171800000Y-124865000D01*
X175685000Y-127135000D02*
X175685000Y-124865000D01*
%TO.C,R2*%
X167110436Y-126910000D02*
X168564564Y-126910000D01*
X167110436Y-125090000D02*
X168564564Y-125090000D01*
%TO.C,C4*%
X98788748Y-124410000D02*
X100211252Y-124410000D01*
X98788748Y-122590000D02*
X100211252Y-122590000D01*
%TO.C,C3*%
X98788748Y-121410000D02*
X100211252Y-121410000D01*
X98788748Y-119590000D02*
X100211252Y-119590000D01*
%TO.C,C5*%
X98788748Y-127410000D02*
X100211252Y-127410000D01*
X98788748Y-125590000D02*
X100211252Y-125590000D01*
%TO.C,W5500_right1*%
X134120000Y-58920000D02*
X135500000Y-58920000D01*
X134120000Y-60300000D02*
X134120000Y-58920000D01*
X134120000Y-61570000D02*
X134120000Y-74380000D01*
X134120000Y-61570000D02*
X136880000Y-61570000D01*
X134120000Y-74380000D02*
X136880000Y-74380000D01*
X136880000Y-61570000D02*
X136880000Y-74380000D01*
%TO.C,W5500_left1*%
X113620000Y-58880000D02*
X115000000Y-58880000D01*
X113620000Y-60260000D02*
X113620000Y-58880000D01*
X113620000Y-61530000D02*
X113620000Y-74340000D01*
X113620000Y-61530000D02*
X116380000Y-61530000D01*
X113620000Y-74340000D02*
X116380000Y-74340000D01*
X116380000Y-61530000D02*
X116380000Y-74340000D01*
%TO.C,U3*%
X123060000Y-83930000D02*
X123060000Y-106910000D01*
X123060000Y-106910000D02*
X127560000Y-106910000D01*
X124310000Y-83930000D02*
X123060000Y-83930000D01*
X127560000Y-83930000D02*
X126310000Y-83930000D01*
X127560000Y-106910000D02*
X127560000Y-83930000D01*
X126310000Y-83930000D02*
G75*
G02*
X124310000Y-83930000I-1000000J0D01*
G01*
%TO.C,U2*%
X135440000Y-84090000D02*
X135440000Y-107070000D01*
X135440000Y-107070000D02*
X139940000Y-107070000D01*
X136690000Y-84090000D02*
X135440000Y-84090000D01*
X139940000Y-84090000D02*
X138690000Y-84090000D01*
X139940000Y-107070000D02*
X139940000Y-84090000D01*
X138690000Y-84090000D02*
G75*
G02*
X136690000Y-84090000I-1000000J0D01*
G01*
%TO.C,U1*%
X105190000Y-69610000D02*
X105190000Y-59390000D01*
X106570000Y-69610000D02*
X106570000Y-59390000D01*
X109810000Y-69610000D02*
X105190000Y-69610000D01*
X105190000Y-66350000D02*
X106570000Y-66350000D01*
X105190000Y-62650000D02*
X106570000Y-62650000D01*
X105190000Y-59390000D02*
X109810000Y-59390000D01*
X109810000Y-59390000D02*
X109810000Y-69610000D01*
%TO.C,R10*%
X113264564Y-134150000D02*
X111810436Y-134150000D01*
X113264564Y-132330000D02*
X111810436Y-132330000D01*
%TO.C,R9*%
X113264564Y-130840000D02*
X111810436Y-130840000D01*
X113264564Y-129020000D02*
X111810436Y-129020000D01*
%TO.C,R8*%
X113264564Y-127530000D02*
X111810436Y-127530000D01*
X113264564Y-125710000D02*
X111810436Y-125710000D01*
%TO.C,R7*%
X113264564Y-124220000D02*
X111810436Y-124220000D01*
X113264564Y-122400000D02*
X111810436Y-122400000D01*
%TO.C,R6*%
X113264564Y-120910000D02*
X111810436Y-120910000D01*
X113264564Y-119090000D02*
X111810436Y-119090000D01*
%TO.C,R5*%
X113264564Y-117410000D02*
X111810436Y-117410000D01*
X113264564Y-115590000D02*
X111810436Y-115590000D01*
%TO.C,R4*%
X113264564Y-114100000D02*
X111810436Y-114100000D01*
X113264564Y-112280000D02*
X111810436Y-112280000D01*
%TO.C,R3*%
X113264564Y-110790000D02*
X111810436Y-110790000D01*
X113264564Y-108970000D02*
X111810436Y-108970000D01*
%TO.C,R1*%
X140772936Y-62590000D02*
X142227064Y-62590000D01*
X140772936Y-64410000D02*
X142227064Y-64410000D01*
%TO.C,L1*%
X117620000Y-85000000D02*
G75*
G02*
X107380000Y-85000000I-5120000J0D01*
G01*
X107380000Y-85000000D02*
G75*
G02*
X117620000Y-85000000I5120000J0D01*
G01*
%TO.C,J3*%
X162120000Y-129620000D02*
X116380000Y-129620000D01*
X162120000Y-126000000D02*
X160880000Y-126000000D01*
X162120000Y-125000000D02*
X160880000Y-125000000D01*
X162120000Y-123700000D02*
X160880000Y-123700000D01*
X162120000Y-121580000D02*
X162120000Y-129620000D01*
X159300000Y-121580000D02*
X162120000Y-121580000D01*
X157120000Y-126000000D02*
X155812000Y-126000000D01*
X157120000Y-125000000D02*
X155812000Y-125000000D01*
X157120000Y-123700000D02*
X154543000Y-123700000D01*
X153457000Y-123700000D02*
X149543000Y-123700000D01*
X152188000Y-126000000D02*
X150812000Y-126000000D01*
X152188000Y-125000000D02*
X150812000Y-125000000D01*
X148457000Y-123700000D02*
X144543000Y-123700000D01*
X147188000Y-126000000D02*
X145812000Y-126000000D01*
X147188000Y-125000000D02*
X145812000Y-125000000D01*
X143457000Y-123700000D02*
X139543000Y-123700000D01*
X142188000Y-126000000D02*
X140812000Y-126000000D01*
X142188000Y-125000000D02*
X140812000Y-125000000D01*
X138457000Y-123700000D02*
X134543000Y-123700000D01*
X137188000Y-126000000D02*
X135812000Y-126000000D01*
X137188000Y-125000000D02*
X135812000Y-125000000D01*
X133457000Y-123700000D02*
X129543000Y-123700000D01*
X132188000Y-126000000D02*
X130812000Y-126000000D01*
X132188000Y-125000000D02*
X130812000Y-125000000D01*
X128457000Y-123700000D02*
X124543000Y-123700000D01*
X127188000Y-126000000D02*
X125812000Y-126000000D01*
X127188000Y-125000000D02*
X125812000Y-125000000D01*
X123457000Y-123700000D02*
X119543000Y-123700000D01*
X122188000Y-126000000D02*
X120812000Y-126000000D01*
X122188000Y-125000000D02*
X120812000Y-125000000D01*
X118457000Y-123700000D02*
X116380000Y-123700000D01*
X117188000Y-126000000D02*
X116380000Y-126000000D01*
X117188000Y-125000000D02*
X116380000Y-125000000D01*
X116380000Y-129620000D02*
X116380000Y-121580000D01*
X116380000Y-121580000D02*
X158700000Y-121580000D01*
X159000000Y-121580000D02*
X158560000Y-120970000D01*
X159440000Y-120970000D01*
X159000000Y-121580000D01*
G36*
X159000000Y-121580000D02*
G01*
X158560000Y-120970000D01*
X159440000Y-120970000D01*
X159000000Y-121580000D01*
G37*
%TO.C,J2*%
X178120000Y-74880000D02*
X178120000Y-120620000D01*
X174500000Y-74880000D02*
X174500000Y-76120000D01*
X173500000Y-74880000D02*
X173500000Y-76120000D01*
X172200000Y-74880000D02*
X172200000Y-76120000D01*
X170080000Y-74880000D02*
X178120000Y-74880000D01*
X170080000Y-77700000D02*
X170080000Y-74880000D01*
X174500000Y-79880000D02*
X174500000Y-81188000D01*
X173500000Y-79880000D02*
X173500000Y-81188000D01*
X172200000Y-79880000D02*
X172200000Y-82457000D01*
X172200000Y-83543000D02*
X172200000Y-87457000D01*
X174500000Y-84812000D02*
X174500000Y-86188000D01*
X173500000Y-84812000D02*
X173500000Y-86188000D01*
X172200000Y-88543000D02*
X172200000Y-92457000D01*
X174500000Y-89812000D02*
X174500000Y-91188000D01*
X173500000Y-89812000D02*
X173500000Y-91188000D01*
X172200000Y-93543000D02*
X172200000Y-97457000D01*
X174500000Y-94812000D02*
X174500000Y-96188000D01*
X173500000Y-94812000D02*
X173500000Y-96188000D01*
X172200000Y-98543000D02*
X172200000Y-102457000D01*
X174500000Y-99812000D02*
X174500000Y-101188000D01*
X173500000Y-99812000D02*
X173500000Y-101188000D01*
X172200000Y-103543000D02*
X172200000Y-107457000D01*
X174500000Y-104812000D02*
X174500000Y-106188000D01*
X173500000Y-104812000D02*
X173500000Y-106188000D01*
X172200000Y-108543000D02*
X172200000Y-112457000D01*
X174500000Y-109812000D02*
X174500000Y-111188000D01*
X173500000Y-109812000D02*
X173500000Y-111188000D01*
X172200000Y-113543000D02*
X172200000Y-117457000D01*
X174500000Y-114812000D02*
X174500000Y-116188000D01*
X173500000Y-114812000D02*
X173500000Y-116188000D01*
X172200000Y-118543000D02*
X172200000Y-120620000D01*
X174500000Y-119812000D02*
X174500000Y-120620000D01*
X173500000Y-119812000D02*
X173500000Y-120620000D01*
X178120000Y-120620000D02*
X170080000Y-120620000D01*
X170080000Y-120620000D02*
X170080000Y-78300000D01*
X170080000Y-78000000D02*
X169470000Y-78440000D01*
X169470000Y-77560000D01*
X170080000Y-78000000D01*
G36*
X170080000Y-78000000D02*
G01*
X169470000Y-78440000D01*
X169470000Y-77560000D01*
X170080000Y-78000000D01*
G37*
%TO.C,J1*%
X111120000Y-92380000D02*
X111120000Y-102620000D01*
X109000000Y-92380000D02*
X109000000Y-102620000D01*
X105000000Y-92380000D02*
X105000000Y-102620000D01*
X102880000Y-92380000D02*
X111120000Y-92380000D01*
X102880000Y-94700000D02*
X102880000Y-92380000D01*
X111120000Y-102620000D02*
X102880000Y-102620000D01*
X102880000Y-102620000D02*
X102880000Y-95300000D01*
X102880000Y-95000000D02*
X102270000Y-95440000D01*
X102270000Y-94560000D01*
X102880000Y-95000000D01*
G36*
X102880000Y-95000000D02*
G01*
X102270000Y-95440000D01*
X102270000Y-94560000D01*
X102880000Y-95000000D01*
G37*
%TO.C,F16*%
X166310436Y-112090000D02*
X167764564Y-112090000D01*
X166310436Y-113910000D02*
X167764564Y-113910000D01*
%TO.C,F15*%
X166272936Y-107090000D02*
X167727064Y-107090000D01*
X166272936Y-108910000D02*
X167727064Y-108910000D01*
%TO.C,F14*%
X166310436Y-102090000D02*
X167764564Y-102090000D01*
X166310436Y-103910000D02*
X167764564Y-103910000D01*
%TO.C,F13*%
X166310436Y-97090000D02*
X167764564Y-97090000D01*
X166310436Y-98910000D02*
X167764564Y-98910000D01*
%TO.C,F12*%
X166310436Y-92090000D02*
X167764564Y-92090000D01*
X166310436Y-93910000D02*
X167764564Y-93910000D01*
%TO.C,F11*%
X166310436Y-87090000D02*
X167764564Y-87090000D01*
X166310436Y-88910000D02*
X167764564Y-88910000D01*
%TO.C,F10*%
X166310436Y-82090000D02*
X167764564Y-82090000D01*
X166310436Y-83910000D02*
X167764564Y-83910000D01*
%TO.C,F9*%
X166177206Y-77034009D02*
X167631334Y-77034009D01*
X166177206Y-78854009D02*
X167631334Y-78854009D01*
%TO.C,F8*%
X124910000Y-116772936D02*
X124910000Y-118227064D01*
X123090000Y-116772936D02*
X123090000Y-118227064D01*
%TO.C,F7*%
X129910000Y-116772936D02*
X129910000Y-118227064D01*
X128090000Y-116772936D02*
X128090000Y-118227064D01*
%TO.C,F6*%
X134910000Y-116772936D02*
X134910000Y-118227064D01*
X133090000Y-116772936D02*
X133090000Y-118227064D01*
%TO.C,F5*%
X139910000Y-116772936D02*
X139910000Y-118227064D01*
X138090000Y-116772936D02*
X138090000Y-118227064D01*
%TO.C,F4*%
X144910000Y-116735436D02*
X144910000Y-118189564D01*
X143090000Y-116735436D02*
X143090000Y-118189564D01*
%TO.C,F3*%
X149910000Y-116772936D02*
X149910000Y-118227064D01*
X148090000Y-116772936D02*
X148090000Y-118227064D01*
%TO.C,F2*%
X154910000Y-116810436D02*
X154910000Y-118264564D01*
X153090000Y-116810436D02*
X153090000Y-118264564D01*
%TO.C,F1*%
X159910000Y-116810436D02*
X159910000Y-118264564D01*
X158090000Y-116810436D02*
X158090000Y-118264564D01*
%TO.C,D11*%
X104615000Y-132425000D02*
X104615000Y-134695000D01*
X104615000Y-134695000D02*
X108500000Y-134695000D01*
X108500000Y-132425000D02*
X104615000Y-132425000D01*
%TO.C,D10*%
X104615000Y-129035000D02*
X104615000Y-131305000D01*
X104615000Y-131305000D02*
X108500000Y-131305000D01*
X108500000Y-129035000D02*
X104615000Y-129035000D01*
%TO.C,D9*%
X104615000Y-125645000D02*
X104615000Y-127915000D01*
X104615000Y-127915000D02*
X108500000Y-127915000D01*
X108500000Y-125645000D02*
X104615000Y-125645000D01*
%TO.C,D8*%
X104615000Y-122255000D02*
X104615000Y-124525000D01*
X104615000Y-124525000D02*
X108500000Y-124525000D01*
X108500000Y-122255000D02*
X104615000Y-122255000D01*
%TO.C,D7*%
X104615000Y-118865000D02*
X104615000Y-121135000D01*
X104615000Y-121135000D02*
X108500000Y-121135000D01*
X108500000Y-118865000D02*
X104615000Y-118865000D01*
%TO.C,D6*%
X104615000Y-115475000D02*
X104615000Y-117745000D01*
X104615000Y-117745000D02*
X108500000Y-117745000D01*
X108500000Y-115475000D02*
X104615000Y-115475000D01*
%TO.C,D5*%
X104615000Y-112085000D02*
X104615000Y-114355000D01*
X104615000Y-114355000D02*
X108500000Y-114355000D01*
X108500000Y-112085000D02*
X104615000Y-112085000D01*
%TO.C,D4*%
X104615000Y-108695000D02*
X104615000Y-110965000D01*
X104615000Y-110965000D02*
X108500000Y-110965000D01*
X108500000Y-108695000D02*
X104615000Y-108695000D01*
%TO.C,D2*%
X128260000Y-110500000D02*
X129280000Y-110500000D01*
X130060000Y-109030000D02*
X130060000Y-111970000D01*
X130180000Y-109030000D02*
X130180000Y-111970000D01*
X130300000Y-109030000D02*
X130300000Y-111970000D01*
X135740000Y-110500000D02*
X134720000Y-110500000D01*
X129280000Y-109030000D02*
X134720000Y-109030000D01*
X134720000Y-111970000D01*
X129280000Y-111970000D01*
X129280000Y-109030000D01*
%TO.C,D1*%
X135240000Y-80500000D02*
X134220000Y-80500000D01*
X133440000Y-81970000D02*
X133440000Y-79030000D01*
X133320000Y-81970000D02*
X133320000Y-79030000D01*
X133200000Y-81970000D02*
X133200000Y-79030000D01*
X127760000Y-80500000D02*
X128780000Y-80500000D01*
X134220000Y-81970000D02*
X128780000Y-81970000D01*
X128780000Y-79030000D01*
X134220000Y-79030000D01*
X134220000Y-81970000D01*
%TO.C,C6*%
X94990302Y-111685000D02*
X95790302Y-111685000D01*
X95390302Y-111285000D02*
X95390302Y-112085000D01*
X99400000Y-109920000D02*
X99400000Y-118080000D01*
X99440000Y-109920000D02*
X99440000Y-118080000D01*
X99480000Y-109921000D02*
X99480000Y-118079000D01*
X99520000Y-109922000D02*
X99520000Y-118078000D01*
X99560000Y-109923000D02*
X99560000Y-118077000D01*
X99600000Y-109925000D02*
X99600000Y-118075000D01*
X99640000Y-109927000D02*
X99640000Y-118073000D01*
X99680000Y-109930000D02*
X99680000Y-118070000D01*
X99720000Y-109932000D02*
X99720000Y-118068000D01*
X99760000Y-109936000D02*
X99760000Y-118064000D01*
X99800000Y-109939000D02*
X99800000Y-118061000D01*
X99840000Y-109944000D02*
X99840000Y-118056000D01*
X99880000Y-109948000D02*
X99880000Y-118052000D01*
X99920000Y-109953000D02*
X99920000Y-118047000D01*
X99960000Y-109958000D02*
X99960000Y-118042000D01*
X100000000Y-109964000D02*
X100000000Y-118036000D01*
X100040000Y-109970000D02*
X100040000Y-118030000D01*
X100080000Y-109977000D02*
X100080000Y-118023000D01*
X100120000Y-109983000D02*
X100120000Y-118017000D01*
X100160000Y-109991000D02*
X100160000Y-118009000D01*
X100200000Y-109998000D02*
X100200000Y-118002000D01*
X100240000Y-110007000D02*
X100240000Y-117993000D01*
X100280000Y-110015000D02*
X100280000Y-112960000D01*
X100280000Y-115040000D02*
X100280000Y-117985000D01*
X100320000Y-110024000D02*
X100320000Y-112960000D01*
X100320000Y-115040000D02*
X100320000Y-117976000D01*
X100360000Y-110033000D02*
X100360000Y-112960000D01*
X100360000Y-115040000D02*
X100360000Y-117967000D01*
X100400000Y-110043000D02*
X100400000Y-112960000D01*
X100400000Y-115040000D02*
X100400000Y-117957000D01*
X100440000Y-110053000D02*
X100440000Y-112960000D01*
X100440000Y-115040000D02*
X100440000Y-117947000D01*
X100480000Y-110064000D02*
X100480000Y-112960000D01*
X100480000Y-115040000D02*
X100480000Y-117936000D01*
X100520000Y-110075000D02*
X100520000Y-112960000D01*
X100520000Y-115040000D02*
X100520000Y-117925000D01*
X100560000Y-110087000D02*
X100560000Y-112960000D01*
X100560000Y-115040000D02*
X100560000Y-117913000D01*
X100600000Y-110099000D02*
X100600000Y-112960000D01*
X100600000Y-115040000D02*
X100600000Y-117901000D01*
X100640000Y-110111000D02*
X100640000Y-112960000D01*
X100640000Y-115040000D02*
X100640000Y-117889000D01*
X100680000Y-110124000D02*
X100680000Y-112960000D01*
X100680000Y-115040000D02*
X100680000Y-117876000D01*
X100720000Y-110137000D02*
X100720000Y-112960000D01*
X100720000Y-115040000D02*
X100720000Y-117863000D01*
X100760000Y-110151000D02*
X100760000Y-112960000D01*
X100760000Y-115040000D02*
X100760000Y-117849000D01*
X100800000Y-110165000D02*
X100800000Y-112960000D01*
X100800000Y-115040000D02*
X100800000Y-117835000D01*
X100840000Y-110180000D02*
X100840000Y-112960000D01*
X100840000Y-115040000D02*
X100840000Y-117820000D01*
X100880000Y-110195000D02*
X100880000Y-112960000D01*
X100880000Y-115040000D02*
X100880000Y-117805000D01*
X100920000Y-110211000D02*
X100920000Y-112960000D01*
X100920000Y-115040000D02*
X100920000Y-117789000D01*
X100960000Y-110227000D02*
X100960000Y-112960000D01*
X100960000Y-115040000D02*
X100960000Y-117773000D01*
X101000000Y-110243000D02*
X101000000Y-112960000D01*
X101000000Y-115040000D02*
X101000000Y-117757000D01*
X101040000Y-110260000D02*
X101040000Y-112960000D01*
X101040000Y-115040000D02*
X101040000Y-117740000D01*
X101080000Y-110278000D02*
X101080000Y-112960000D01*
X101080000Y-115040000D02*
X101080000Y-117722000D01*
X101120000Y-110296000D02*
X101120000Y-112960000D01*
X101120000Y-115040000D02*
X101120000Y-117704000D01*
X101160000Y-110315000D02*
X101160000Y-112960000D01*
X101160000Y-115040000D02*
X101160000Y-117685000D01*
X101200000Y-110334000D02*
X101200000Y-112960000D01*
X101200000Y-115040000D02*
X101200000Y-117666000D01*
X101240000Y-110354000D02*
X101240000Y-112960000D01*
X101240000Y-115040000D02*
X101240000Y-117646000D01*
X101280000Y-110374000D02*
X101280000Y-112960000D01*
X101280000Y-115040000D02*
X101280000Y-117626000D01*
X101320000Y-110395000D02*
X101320000Y-112960000D01*
X101320000Y-115040000D02*
X101320000Y-117605000D01*
X101360000Y-110416000D02*
X101360000Y-112960000D01*
X101360000Y-115040000D02*
X101360000Y-117584000D01*
X101400000Y-110438000D02*
X101400000Y-112960000D01*
X101400000Y-115040000D02*
X101400000Y-117562000D01*
X101440000Y-110461000D02*
X101440000Y-112960000D01*
X101440000Y-115040000D02*
X101440000Y-117539000D01*
X101480000Y-110484000D02*
X101480000Y-112960000D01*
X101480000Y-115040000D02*
X101480000Y-117516000D01*
X101520000Y-110507000D02*
X101520000Y-112960000D01*
X101520000Y-115040000D02*
X101520000Y-117493000D01*
X101560000Y-110532000D02*
X101560000Y-112960000D01*
X101560000Y-115040000D02*
X101560000Y-117468000D01*
X101600000Y-110557000D02*
X101600000Y-112960000D01*
X101600000Y-115040000D02*
X101600000Y-117443000D01*
X101640000Y-110582000D02*
X101640000Y-112960000D01*
X101640000Y-115040000D02*
X101640000Y-117418000D01*
X101680000Y-110608000D02*
X101680000Y-112960000D01*
X101680000Y-115040000D02*
X101680000Y-117392000D01*
X101720000Y-110635000D02*
X101720000Y-112960000D01*
X101720000Y-115040000D02*
X101720000Y-117365000D01*
X101760000Y-110663000D02*
X101760000Y-112960000D01*
X101760000Y-115040000D02*
X101760000Y-117337000D01*
X101800000Y-110691000D02*
X101800000Y-112960000D01*
X101800000Y-115040000D02*
X101800000Y-117309000D01*
X101840000Y-110720000D02*
X101840000Y-112960000D01*
X101840000Y-115040000D02*
X101840000Y-117280000D01*
X101880000Y-110750000D02*
X101880000Y-112960000D01*
X101880000Y-115040000D02*
X101880000Y-117250000D01*
X101920000Y-110781000D02*
X101920000Y-112960000D01*
X101920000Y-115040000D02*
X101920000Y-117219000D01*
X101960000Y-110812000D02*
X101960000Y-112960000D01*
X101960000Y-115040000D02*
X101960000Y-117188000D01*
X102000000Y-110844000D02*
X102000000Y-112960000D01*
X102000000Y-115040000D02*
X102000000Y-117156000D01*
X102040000Y-110877000D02*
X102040000Y-112960000D01*
X102040000Y-115040000D02*
X102040000Y-117123000D01*
X102080000Y-110911000D02*
X102080000Y-112960000D01*
X102080000Y-115040000D02*
X102080000Y-117089000D01*
X102120000Y-110945000D02*
X102120000Y-112960000D01*
X102120000Y-115040000D02*
X102120000Y-117055000D01*
X102160000Y-110981000D02*
X102160000Y-112960000D01*
X102160000Y-115040000D02*
X102160000Y-117019000D01*
X102200000Y-111018000D02*
X102200000Y-112960000D01*
X102200000Y-115040000D02*
X102200000Y-116982000D01*
X102240000Y-111055000D02*
X102240000Y-112960000D01*
X102240000Y-115040000D02*
X102240000Y-116945000D01*
X102280000Y-111094000D02*
X102280000Y-112960000D01*
X102280000Y-115040000D02*
X102280000Y-116906000D01*
X102320000Y-111133000D02*
X102320000Y-112960000D01*
X102320000Y-115040000D02*
X102320000Y-116867000D01*
X102360000Y-111174000D02*
X102360000Y-116826000D01*
X102400000Y-111216000D02*
X102400000Y-116784000D01*
X102440000Y-111259000D02*
X102440000Y-116741000D01*
X102480000Y-111304000D02*
X102480000Y-116696000D01*
X102520000Y-111349000D02*
X102520000Y-116651000D01*
X102560000Y-111396000D02*
X102560000Y-116604000D01*
X102600000Y-111445000D02*
X102600000Y-116555000D01*
X102640000Y-111495000D02*
X102640000Y-116505000D01*
X102680000Y-111547000D02*
X102680000Y-116453000D01*
X102720000Y-111600000D02*
X102720000Y-116400000D01*
X102760000Y-111656000D02*
X102760000Y-116344000D01*
X102800000Y-111713000D02*
X102800000Y-116287000D01*
X102840000Y-111773000D02*
X102840000Y-116227000D01*
X102880000Y-111835000D02*
X102880000Y-116165000D01*
X102920000Y-111899000D02*
X102920000Y-116101000D01*
X102960000Y-111966000D02*
X102960000Y-116034000D01*
X103000000Y-112036000D02*
X103000000Y-115964000D01*
X103040000Y-112110000D02*
X103040000Y-115890000D01*
X103080000Y-112187000D02*
X103080000Y-115813000D01*
X103120000Y-112269000D02*
X103120000Y-115731000D01*
X103160000Y-112356000D02*
X103160000Y-115644000D01*
X103200000Y-112448000D02*
X103200000Y-115552000D01*
X103240000Y-112547000D02*
X103240000Y-115453000D01*
X103280000Y-112654000D02*
X103280000Y-115346000D01*
X103320000Y-112772000D02*
X103320000Y-115228000D01*
X103360000Y-112903000D02*
X103360000Y-115097000D01*
X103400000Y-113053000D02*
X103400000Y-114947000D01*
X103440000Y-113232000D02*
X103440000Y-114768000D01*
X103480000Y-113467000D02*
X103480000Y-114533000D01*
X103520000Y-114000000D02*
G75*
G02*
X95280000Y-114000000I-4120000J0D01*
G01*
X95280000Y-114000000D02*
G75*
G02*
X103520000Y-114000000I4120000J0D01*
G01*
%TO.C,C2*%
X106847323Y-82875000D02*
X105847323Y-82875000D01*
X106347323Y-83375000D02*
X106347323Y-82375000D01*
X101367677Y-85080000D02*
X101367677Y-74920000D01*
X101327677Y-85080000D02*
X101327677Y-74920000D01*
X101287677Y-85079000D02*
X101287677Y-74921000D01*
X101247677Y-85079000D02*
X101247677Y-74921000D01*
X101207677Y-85077000D02*
X101207677Y-74923000D01*
X101167677Y-85076000D02*
X101167677Y-74924000D01*
X101127677Y-85074000D02*
X101127677Y-74926000D01*
X101087677Y-85072000D02*
X101087677Y-74928000D01*
X101047677Y-85070000D02*
X101047677Y-74930000D01*
X101007677Y-85067000D02*
X101007677Y-74933000D01*
X100967677Y-85064000D02*
X100967677Y-74936000D01*
X100927677Y-85061000D02*
X100927677Y-74939000D01*
X100887677Y-85057000D02*
X100887677Y-74943000D01*
X100847677Y-85054000D02*
X100847677Y-74946000D01*
X100807677Y-85049000D02*
X100807677Y-74951000D01*
X100767677Y-85045000D02*
X100767677Y-74955000D01*
X100727677Y-85040000D02*
X100727677Y-74960000D01*
X100687677Y-85035000D02*
X100687677Y-74965000D01*
X100647677Y-85029000D02*
X100647677Y-74971000D01*
X100607677Y-85023000D02*
X100607677Y-74977000D01*
X100567677Y-85017000D02*
X100567677Y-74983000D01*
X100527677Y-85011000D02*
X100527677Y-74989000D01*
X100487677Y-85004000D02*
X100487677Y-74996000D01*
X100447677Y-84997000D02*
X100447677Y-75003000D01*
X100407677Y-84989000D02*
X100407677Y-75011000D01*
X100367677Y-84981000D02*
X100367677Y-75019000D01*
X100327677Y-84973000D02*
X100327677Y-75027000D01*
X100287677Y-84965000D02*
X100287677Y-75035000D01*
X100247677Y-84956000D02*
X100247677Y-75044000D01*
X100207677Y-84947000D02*
X100207677Y-75053000D01*
X100167677Y-84937000D02*
X100167677Y-75063000D01*
X100127677Y-84928000D02*
X100127677Y-75072000D01*
X100087677Y-84917000D02*
X100087677Y-81240000D01*
X100087677Y-78760000D02*
X100087677Y-75083000D01*
X100047677Y-84907000D02*
X100047677Y-81240000D01*
X100047677Y-78760000D02*
X100047677Y-75093000D01*
X100007677Y-84896000D02*
X100007677Y-81240000D01*
X100007677Y-78760000D02*
X100007677Y-75104000D01*
X99967677Y-84885000D02*
X99967677Y-81240000D01*
X99967677Y-78760000D02*
X99967677Y-75115000D01*
X99927677Y-84873000D02*
X99927677Y-81240000D01*
X99927677Y-78760000D02*
X99927677Y-75127000D01*
X99887677Y-84861000D02*
X99887677Y-81240000D01*
X99887677Y-78760000D02*
X99887677Y-75139000D01*
X99847677Y-84849000D02*
X99847677Y-81240000D01*
X99847677Y-78760000D02*
X99847677Y-75151000D01*
X99807677Y-84837000D02*
X99807677Y-81240000D01*
X99807677Y-78760000D02*
X99807677Y-75163000D01*
X99767677Y-84824000D02*
X99767677Y-81240000D01*
X99767677Y-78760000D02*
X99767677Y-75176000D01*
X99727677Y-84810000D02*
X99727677Y-81240000D01*
X99727677Y-78760000D02*
X99727677Y-75190000D01*
X99687677Y-84797000D02*
X99687677Y-81240000D01*
X99687677Y-78760000D02*
X99687677Y-75203000D01*
X99647677Y-84782000D02*
X99647677Y-81240000D01*
X99647677Y-78760000D02*
X99647677Y-75218000D01*
X99607677Y-84768000D02*
X99607677Y-81240000D01*
X99607677Y-78760000D02*
X99607677Y-75232000D01*
X99567677Y-84753000D02*
X99567677Y-81240000D01*
X99567677Y-78760000D02*
X99567677Y-75247000D01*
X99527677Y-84738000D02*
X99527677Y-81240000D01*
X99527677Y-78760000D02*
X99527677Y-75262000D01*
X99487677Y-84722000D02*
X99487677Y-81240000D01*
X99487677Y-78760000D02*
X99487677Y-75278000D01*
X99447677Y-84706000D02*
X99447677Y-81240000D01*
X99447677Y-78760000D02*
X99447677Y-75294000D01*
X99407677Y-84690000D02*
X99407677Y-81240000D01*
X99407677Y-78760000D02*
X99407677Y-75310000D01*
X99367677Y-84673000D02*
X99367677Y-81240000D01*
X99367677Y-78760000D02*
X99367677Y-75327000D01*
X99327677Y-84656000D02*
X99327677Y-81240000D01*
X99327677Y-78760000D02*
X99327677Y-75344000D01*
X99287677Y-84638000D02*
X99287677Y-81240000D01*
X99287677Y-78760000D02*
X99287677Y-75362000D01*
X99247677Y-84620000D02*
X99247677Y-81240000D01*
X99247677Y-78760000D02*
X99247677Y-75380000D01*
X99207677Y-84602000D02*
X99207677Y-81240000D01*
X99207677Y-78760000D02*
X99207677Y-75398000D01*
X99167677Y-84583000D02*
X99167677Y-81240000D01*
X99167677Y-78760000D02*
X99167677Y-75417000D01*
X99127677Y-84564000D02*
X99127677Y-81240000D01*
X99127677Y-78760000D02*
X99127677Y-75436000D01*
X99087677Y-84544000D02*
X99087677Y-81240000D01*
X99087677Y-78760000D02*
X99087677Y-75456000D01*
X99047677Y-84524000D02*
X99047677Y-81240000D01*
X99047677Y-78760000D02*
X99047677Y-75476000D01*
X99007677Y-84504000D02*
X99007677Y-81240000D01*
X99007677Y-78760000D02*
X99007677Y-75496000D01*
X98967677Y-84483000D02*
X98967677Y-81240000D01*
X98967677Y-78760000D02*
X98967677Y-75517000D01*
X98927677Y-84461000D02*
X98927677Y-81240000D01*
X98927677Y-78760000D02*
X98927677Y-75539000D01*
X98887677Y-84439000D02*
X98887677Y-81240000D01*
X98887677Y-78760000D02*
X98887677Y-75561000D01*
X98847677Y-84417000D02*
X98847677Y-81240000D01*
X98847677Y-78760000D02*
X98847677Y-75583000D01*
X98807677Y-84394000D02*
X98807677Y-81240000D01*
X98807677Y-78760000D02*
X98807677Y-75606000D01*
X98767677Y-84371000D02*
X98767677Y-81240000D01*
X98767677Y-78760000D02*
X98767677Y-75629000D01*
X98727677Y-84347000D02*
X98727677Y-81240000D01*
X98727677Y-78760000D02*
X98727677Y-75653000D01*
X98687677Y-84323000D02*
X98687677Y-81240000D01*
X98687677Y-78760000D02*
X98687677Y-75677000D01*
X98647677Y-84298000D02*
X98647677Y-81240000D01*
X98647677Y-78760000D02*
X98647677Y-75702000D01*
X98607677Y-84272000D02*
X98607677Y-81240000D01*
X98607677Y-78760000D02*
X98607677Y-75728000D01*
X98567677Y-84247000D02*
X98567677Y-81240000D01*
X98567677Y-78760000D02*
X98567677Y-75753000D01*
X98527677Y-84220000D02*
X98527677Y-81240000D01*
X98527677Y-78760000D02*
X98527677Y-75780000D01*
X98487677Y-84193000D02*
X98487677Y-81240000D01*
X98487677Y-78760000D02*
X98487677Y-75807000D01*
X98447677Y-84166000D02*
X98447677Y-81240000D01*
X98447677Y-78760000D02*
X98447677Y-75834000D01*
X98407677Y-84138000D02*
X98407677Y-81240000D01*
X98407677Y-78760000D02*
X98407677Y-75862000D01*
X98367677Y-84109000D02*
X98367677Y-81240000D01*
X98367677Y-78760000D02*
X98367677Y-75891000D01*
X98327677Y-84080000D02*
X98327677Y-81240000D01*
X98327677Y-78760000D02*
X98327677Y-75920000D01*
X98287677Y-84050000D02*
X98287677Y-81240000D01*
X98287677Y-78760000D02*
X98287677Y-75950000D01*
X98247677Y-84020000D02*
X98247677Y-81240000D01*
X98247677Y-78760000D02*
X98247677Y-75980000D01*
X98207677Y-83988000D02*
X98207677Y-81240000D01*
X98207677Y-78760000D02*
X98207677Y-76012000D01*
X98167677Y-83957000D02*
X98167677Y-81240000D01*
X98167677Y-78760000D02*
X98167677Y-76043000D01*
X98127677Y-83924000D02*
X98127677Y-81240000D01*
X98127677Y-78760000D02*
X98127677Y-76076000D01*
X98087677Y-83891000D02*
X98087677Y-81240000D01*
X98087677Y-78760000D02*
X98087677Y-76109000D01*
X98047677Y-83858000D02*
X98047677Y-81240000D01*
X98047677Y-78760000D02*
X98047677Y-76142000D01*
X98007677Y-83823000D02*
X98007677Y-81240000D01*
X98007677Y-78760000D02*
X98007677Y-76177000D01*
X97967677Y-83788000D02*
X97967677Y-81240000D01*
X97967677Y-78760000D02*
X97967677Y-76212000D01*
X97927677Y-83752000D02*
X97927677Y-81240000D01*
X97927677Y-78760000D02*
X97927677Y-76248000D01*
X97887677Y-83716000D02*
X97887677Y-81240000D01*
X97887677Y-78760000D02*
X97887677Y-76284000D01*
X97847677Y-83678000D02*
X97847677Y-81240000D01*
X97847677Y-78760000D02*
X97847677Y-76322000D01*
X97807677Y-83640000D02*
X97807677Y-81240000D01*
X97807677Y-78760000D02*
X97807677Y-76360000D01*
X97767677Y-83601000D02*
X97767677Y-81240000D01*
X97767677Y-78760000D02*
X97767677Y-76399000D01*
X97727677Y-83561000D02*
X97727677Y-81240000D01*
X97727677Y-78760000D02*
X97727677Y-76439000D01*
X97687677Y-83520000D02*
X97687677Y-81240000D01*
X97687677Y-78760000D02*
X97687677Y-76480000D01*
X97647677Y-83478000D02*
X97647677Y-81240000D01*
X97647677Y-78760000D02*
X97647677Y-76522000D01*
X97607677Y-83435000D02*
X97607677Y-76565000D01*
X97567677Y-83391000D02*
X97567677Y-76609000D01*
X97527677Y-83347000D02*
X97527677Y-76653000D01*
X97487677Y-83301000D02*
X97487677Y-76699000D01*
X97447677Y-83254000D02*
X97447677Y-76746000D01*
X97407677Y-83205000D02*
X97407677Y-76795000D01*
X97367677Y-83156000D02*
X97367677Y-76844000D01*
X97327677Y-83105000D02*
X97327677Y-76895000D01*
X97287677Y-83053000D02*
X97287677Y-76947000D01*
X97247677Y-83000000D02*
X97247677Y-77000000D01*
X97207677Y-82945000D02*
X97207677Y-77055000D01*
X97167677Y-82888000D02*
X97167677Y-77112000D01*
X97127677Y-82830000D02*
X97127677Y-77170000D01*
X97087677Y-82770000D02*
X97087677Y-77230000D01*
X97047677Y-82708000D02*
X97047677Y-77292000D01*
X97007677Y-82644000D02*
X97007677Y-77356000D01*
X96967677Y-82578000D02*
X96967677Y-77422000D01*
X96927677Y-82510000D02*
X96927677Y-77490000D01*
X96887677Y-82439000D02*
X96887677Y-77561000D01*
X96847677Y-82365000D02*
X96847677Y-77635000D01*
X96807677Y-82288000D02*
X96807677Y-77712000D01*
X96767677Y-82208000D02*
X96767677Y-77792000D01*
X96727677Y-82124000D02*
X96727677Y-77876000D01*
X96687677Y-82037000D02*
X96687677Y-77963000D01*
X96647677Y-81944000D02*
X96647677Y-78056000D01*
X96607677Y-81846000D02*
X96607677Y-78154000D01*
X96567677Y-81742000D02*
X96567677Y-78258000D01*
X96527677Y-81630000D02*
X96527677Y-78370000D01*
X96487677Y-81509000D02*
X96487677Y-78491000D01*
X96447677Y-81377000D02*
X96447677Y-78623000D01*
X96407677Y-81230000D02*
X96407677Y-78770000D01*
X96367677Y-81062000D02*
X96367677Y-78938000D01*
X96327677Y-80862000D02*
X96327677Y-79138000D01*
X96287677Y-80599000D02*
X96287677Y-79401000D01*
X106487677Y-80000000D02*
G75*
G02*
X96247677Y-80000000I-5120000J0D01*
G01*
X96247677Y-80000000D02*
G75*
G02*
X106487677Y-80000000I5120000J0D01*
G01*
%TO.C,C1*%
X101686252Y-72910000D02*
X100263748Y-72910000D01*
X101686252Y-71090000D02*
X100263748Y-71090000D01*
%TO.C,Black_pill_right1*%
X161120000Y-59040000D02*
X162500000Y-59040000D01*
X161120000Y-60420000D02*
X161120000Y-59040000D01*
X161120000Y-61690000D02*
X161120000Y-110060000D01*
X161120000Y-61690000D02*
X163880000Y-61690000D01*
X161120000Y-110060000D02*
X163880000Y-110060000D01*
X163880000Y-61690000D02*
X163880000Y-110060000D01*
%TO.C,Black_pill_left1*%
X146120000Y-58960000D02*
X147500000Y-58960000D01*
X146120000Y-60340000D02*
X146120000Y-58960000D01*
X146120000Y-61610000D02*
X146120000Y-109980000D01*
X146120000Y-61610000D02*
X148880000Y-61610000D01*
X146120000Y-109980000D02*
X148880000Y-109980000D01*
X148880000Y-61610000D02*
X148880000Y-109980000D01*
%TD*%
M02*
