%TF.GenerationSoftware,KiCad,Pcbnew,9.0.4-1.fc42*%
%TF.CreationDate,2025-10-01T21:15:53+08:00*%
%TF.ProjectId,lan_outlet,6c616e5f-6f75-4746-9c65-742e6b696361,rev?*%
%TF.SameCoordinates,Original*%
%TF.FileFunction,Soldermask,Top*%
%TF.FilePolarity,Negative*%
%FSLAX46Y46*%
G04 Gerber Fmt 4.6, Leading zero omitted, Abs format (unit mm)*
G04 Created by KiCad (PCBNEW 9.0.4-1.fc42) date 2025-10-01 21:15:53*
%MOMM*%
%LPD*%
G01*
G04 APERTURE LIST*
G04 Aperture macros list*
%AMRoundRect*
0 Rectangle with rounded corners*
0 $1 Rounding radius*
0 $2 $3 $4 $5 $6 $7 $8 $9 X,Y pos of 4 corners*
0 Add a 4 corners polygon primitive as box body*
4,1,4,$2,$3,$4,$5,$6,$7,$8,$9,$2,$3,0*
0 Add four circle primitives for the rounded corners*
1,1,$1+$1,$2,$3*
1,1,$1+$1,$4,$5*
1,1,$1+$1,$6,$7*
1,1,$1+$1,$8,$9*
0 Add four rect primitives between the rounded corners*
20,1,$1+$1,$2,$3,$4,$5,0*
20,1,$1+$1,$4,$5,$6,$7,0*
20,1,$1+$1,$6,$7,$8,$9,0*
20,1,$1+$1,$8,$9,$2,$3,0*%
G04 Aperture macros list end*
%ADD10RoundRect,0.250000X0.375000X0.625000X-0.375000X0.625000X-0.375000X-0.625000X0.375000X-0.625000X0*%
%ADD11RoundRect,0.250000X-0.312500X-0.625000X0.312500X-0.625000X0.312500X0.625000X-0.312500X0.625000X0*%
%ADD12RoundRect,0.250000X-0.325000X-0.650000X0.325000X-0.650000X0.325000X0.650000X-0.325000X0.650000X0*%
%ADD13C,6.400000*%
%ADD14R,1.700000X1.700000*%
%ADD15C,1.700000*%
%ADD16RoundRect,0.250000X-0.950000X-0.550000X0.950000X-0.550000X0.950000X0.550000X-0.950000X0.550000X0*%
%ADD17O,2.400000X1.600000*%
%ADD18R,1.800000X1.275000*%
%ADD19O,1.800000X1.275000*%
%ADD20RoundRect,0.250000X0.312500X0.625000X-0.312500X0.625000X-0.312500X-0.625000X0.312500X-0.625000X0*%
%ADD21C,2.400000*%
%ADD22RoundRect,0.250001X1.149999X1.149999X-1.149999X1.149999X-1.149999X-1.149999X1.149999X-1.149999X0*%
%ADD23C,2.800000*%
%ADD24RoundRect,0.250001X-1.149999X1.149999X-1.149999X-1.149999X1.149999X-1.149999X1.149999X1.149999X0*%
%ADD25RoundRect,0.250000X-1.000000X1.000000X-1.000000X-1.000000X1.000000X-1.000000X1.000000X1.000000X0*%
%ADD26C,2.500000*%
%ADD27RoundRect,0.250000X-0.625000X0.312500X-0.625000X-0.312500X0.625000X-0.312500X0.625000X0.312500X0*%
%ADD28RoundRect,0.250000X-0.375000X-0.625000X0.375000X-0.625000X0.375000X0.625000X-0.375000X0.625000X0*%
%ADD29RoundRect,0.249999X-0.850001X-0.850001X0.850001X-0.850001X0.850001X0.850001X-0.850001X0.850001X0*%
%ADD30C,2.200000*%
%ADD31RoundRect,0.249999X0.850001X0.850001X-0.850001X0.850001X-0.850001X-0.850001X0.850001X-0.850001X0*%
%ADD32RoundRect,0.250000X-0.550000X-0.550000X0.550000X-0.550000X0.550000X0.550000X-0.550000X0.550000X0*%
%ADD33C,1.600000*%
%ADD34RoundRect,0.250000X0.750000X0.750000X-0.750000X0.750000X-0.750000X-0.750000X0.750000X-0.750000X0*%
%ADD35C,2.000000*%
%ADD36RoundRect,0.250000X0.325000X0.650000X-0.325000X0.650000X-0.325000X-0.650000X0.325000X-0.650000X0*%
G04 APERTURE END LIST*
D10*
%TO.C,D3*%
X172000000Y-126000000D03*
X174800000Y-126000000D03*
%TD*%
D11*
%TO.C,R2*%
X169300000Y-126000000D03*
X166375000Y-126000000D03*
%TD*%
D12*
%TO.C,C4*%
X100975000Y-123500000D03*
X98025000Y-123500000D03*
%TD*%
%TO.C,C3*%
X100975000Y-120500000D03*
X98025000Y-120500000D03*
%TD*%
%TO.C,C5*%
X100975000Y-126500000D03*
X98025000Y-126500000D03*
%TD*%
D13*
%TO.C,H4*%
X177500000Y-131500000D03*
%TD*%
%TO.C,H3*%
X100500000Y-131500000D03*
%TD*%
%TO.C,H2*%
X177500000Y-63500000D03*
%TD*%
%TO.C,H1*%
X100500000Y-63500000D03*
%TD*%
D14*
%TO.C,W5500_right1*%
X135500000Y-60300000D03*
D15*
X135500000Y-62840000D03*
X135500000Y-65380000D03*
X135500000Y-67920000D03*
X135500000Y-70460000D03*
X135500000Y-73000000D03*
%TD*%
D14*
%TO.C,W5500_left1*%
X115000000Y-60260000D03*
D15*
X115000000Y-62800000D03*
X115000000Y-65340000D03*
X115000000Y-67880000D03*
X115000000Y-70420000D03*
X115000000Y-72960000D03*
%TD*%
D16*
%TO.C,U3*%
X121500000Y-85260000D03*
D17*
X121500000Y-87800000D03*
X121500000Y-90340000D03*
X121500000Y-92880000D03*
X121500000Y-95420000D03*
X121500000Y-97960000D03*
X121500000Y-100500000D03*
X121500000Y-103040000D03*
X121500000Y-105580000D03*
X129120000Y-105580000D03*
X129120000Y-103040000D03*
X129120000Y-100500000D03*
X129120000Y-97960000D03*
X129120000Y-95420000D03*
X129120000Y-92880000D03*
X129120000Y-90340000D03*
X129120000Y-87800000D03*
X129120000Y-85260000D03*
%TD*%
D16*
%TO.C,U2*%
X133880000Y-85420000D03*
D17*
X133880000Y-87960000D03*
X133880000Y-90500000D03*
X133880000Y-93040000D03*
X133880000Y-95580000D03*
X133880000Y-98120000D03*
X133880000Y-100660000D03*
X133880000Y-103200000D03*
X133880000Y-105740000D03*
X141500000Y-105740000D03*
X141500000Y-103200000D03*
X141500000Y-100660000D03*
X141500000Y-98120000D03*
X141500000Y-95580000D03*
X141500000Y-93040000D03*
X141500000Y-90500000D03*
X141500000Y-87960000D03*
X141500000Y-85420000D03*
%TD*%
D18*
%TO.C,U1*%
X108450000Y-67900000D03*
D19*
X108450000Y-66200000D03*
X108450000Y-64500000D03*
X108450000Y-62800000D03*
X108450000Y-61100000D03*
%TD*%
D20*
%TO.C,R10*%
X114000000Y-133240000D03*
X111075000Y-133240000D03*
%TD*%
%TO.C,R9*%
X114000000Y-129930000D03*
X111075000Y-129930000D03*
%TD*%
%TO.C,R8*%
X114000000Y-126620000D03*
X111075000Y-126620000D03*
%TD*%
%TO.C,R7*%
X114000000Y-123310000D03*
X111075000Y-123310000D03*
%TD*%
%TO.C,R6*%
X114000000Y-120000000D03*
X111075000Y-120000000D03*
%TD*%
%TO.C,R5*%
X114000000Y-116500000D03*
X111075000Y-116500000D03*
%TD*%
%TO.C,R4*%
X114000000Y-113190000D03*
X111075000Y-113190000D03*
%TD*%
%TO.C,R3*%
X114000000Y-109880000D03*
X111075000Y-109880000D03*
%TD*%
D11*
%TO.C,R1*%
X140037500Y-63500000D03*
X142962500Y-63500000D03*
%TD*%
D21*
%TO.C,L1*%
X110000000Y-85000000D03*
X115000000Y-85000000D03*
%TD*%
D22*
%TO.C,J3*%
X159000000Y-125500000D03*
D23*
X154000000Y-125500000D03*
X149000000Y-125500000D03*
X144000000Y-125500000D03*
X139000000Y-125500000D03*
X134000000Y-125500000D03*
X129000000Y-125500000D03*
X124000000Y-125500000D03*
X119000000Y-125500000D03*
%TD*%
D24*
%TO.C,J2*%
X174000000Y-78000000D03*
D23*
X174000000Y-83000000D03*
X174000000Y-88000000D03*
X174000000Y-93000000D03*
X174000000Y-98000000D03*
X174000000Y-103000000D03*
X174000000Y-108000000D03*
X174000000Y-113000000D03*
X174000000Y-118000000D03*
%TD*%
D25*
%TO.C,J1*%
X107000000Y-95000000D03*
D26*
X107000000Y-100000000D03*
%TD*%
D11*
%TO.C,F16*%
X165575000Y-113000000D03*
X168500000Y-113000000D03*
%TD*%
%TO.C,F15*%
X165537500Y-108000000D03*
X168462500Y-108000000D03*
%TD*%
%TO.C,F14*%
X165575000Y-103000000D03*
X168500000Y-103000000D03*
%TD*%
%TO.C,F13*%
X165575000Y-98000000D03*
X168500000Y-98000000D03*
%TD*%
%TO.C,F12*%
X165575000Y-93000000D03*
X168500000Y-93000000D03*
%TD*%
%TO.C,F11*%
X165575000Y-88000000D03*
X168500000Y-88000000D03*
%TD*%
%TO.C,F10*%
X165575000Y-83000000D03*
X168500000Y-83000000D03*
%TD*%
%TO.C,F9*%
X165441770Y-77944009D03*
X168366770Y-77944009D03*
%TD*%
D27*
%TO.C,F8*%
X124000000Y-116037500D03*
X124000000Y-118962500D03*
%TD*%
%TO.C,F7*%
X129000000Y-116037500D03*
X129000000Y-118962500D03*
%TD*%
%TO.C,F6*%
X134000000Y-116037500D03*
X134000000Y-118962500D03*
%TD*%
%TO.C,F5*%
X139000000Y-116037500D03*
X139000000Y-118962500D03*
%TD*%
%TO.C,F4*%
X144000000Y-116000000D03*
X144000000Y-118925000D03*
%TD*%
%TO.C,F3*%
X149000000Y-116037500D03*
X149000000Y-118962500D03*
%TD*%
%TO.C,F2*%
X154000000Y-116075000D03*
X154000000Y-119000000D03*
%TD*%
%TO.C,F1*%
X159000000Y-116075000D03*
X159000000Y-119000000D03*
%TD*%
D28*
%TO.C,D11*%
X105500000Y-133560000D03*
X108300000Y-133560000D03*
%TD*%
%TO.C,D10*%
X105500000Y-130170000D03*
X108300000Y-130170000D03*
%TD*%
%TO.C,D9*%
X105500000Y-126780000D03*
X108300000Y-126780000D03*
%TD*%
%TO.C,D8*%
X105500000Y-123390000D03*
X108300000Y-123390000D03*
%TD*%
%TO.C,D7*%
X105500000Y-120000000D03*
X108300000Y-120000000D03*
%TD*%
%TO.C,D6*%
X105500000Y-116610000D03*
X108300000Y-116610000D03*
%TD*%
%TO.C,D5*%
X105500000Y-113220000D03*
X108300000Y-113220000D03*
%TD*%
%TO.C,D4*%
X105500000Y-109830000D03*
X108300000Y-109830000D03*
%TD*%
D29*
%TO.C,D2*%
X126920000Y-110500000D03*
D30*
X137080000Y-110500000D03*
%TD*%
D31*
%TO.C,D1*%
X136580000Y-80500000D03*
D30*
X126420000Y-80500000D03*
%TD*%
D32*
%TO.C,C6*%
X97500000Y-114000000D03*
D33*
X101300000Y-114000000D03*
%TD*%
D34*
%TO.C,C2*%
X103867677Y-80000000D03*
D35*
X98867677Y-80000000D03*
%TD*%
D36*
%TO.C,C1*%
X102450000Y-72000000D03*
X99500000Y-72000000D03*
%TD*%
D14*
%TO.C,Black_pill_right1*%
X162500000Y-60420000D03*
D15*
X162500000Y-62960000D03*
X162500000Y-65500000D03*
X162500000Y-68040000D03*
X162500000Y-70580000D03*
X162500000Y-73120000D03*
X162500000Y-75660000D03*
X162500000Y-78200000D03*
X162500000Y-80740000D03*
X162500000Y-83280000D03*
X162500000Y-85820000D03*
X162500000Y-88360000D03*
X162500000Y-90900000D03*
X162500000Y-93440000D03*
X162500000Y-95980000D03*
X162500000Y-98520000D03*
X162500000Y-101060000D03*
X162500000Y-103600000D03*
X162500000Y-106140000D03*
X162500000Y-108680000D03*
%TD*%
D14*
%TO.C,Black_pill_left1*%
X147500000Y-60340000D03*
D15*
X147500000Y-62880000D03*
X147500000Y-65420000D03*
X147500000Y-67960000D03*
X147500000Y-70500000D03*
X147500000Y-73040000D03*
X147500000Y-75580000D03*
X147500000Y-78120000D03*
X147500000Y-80660000D03*
X147500000Y-83200000D03*
X147500000Y-85740000D03*
X147500000Y-88280000D03*
X147500000Y-90820000D03*
X147500000Y-93360000D03*
X147500000Y-95900000D03*
X147500000Y-98440000D03*
X147500000Y-100980000D03*
X147500000Y-103520000D03*
X147500000Y-106060000D03*
X147500000Y-108600000D03*
%TD*%
M02*
