%TF.GenerationSoftware,KiCad,Pcbnew,9.0.4-1.fc42*%
%TF.CreationDate,2025-10-01T21:15:53+08:00*%
%TF.ProjectId,lan_outlet,6c616e5f-6f75-4746-9c65-742e6b696361,rev?*%
%TF.SameCoordinates,Original*%
%TF.FileFunction,Paste,Top*%
%TF.FilePolarity,Positive*%
%FSLAX46Y46*%
G04 Gerber Fmt 4.6, Leading zero omitted, Abs format (unit mm)*
G04 Created by KiCad (PCBNEW 9.0.4-1.fc42) date 2025-10-01 21:15:53*
%MOMM*%
%LPD*%
G01*
G04 APERTURE LIST*
G04 Aperture macros list*
%AMRoundRect*
0 Rectangle with rounded corners*
0 $1 Rounding radius*
0 $2 $3 $4 $5 $6 $7 $8 $9 X,Y pos of 4 corners*
0 Add a 4 corners polygon primitive as box body*
4,1,4,$2,$3,$4,$5,$6,$7,$8,$9,$2,$3,0*
0 Add four circle primitives for the rounded corners*
1,1,$1+$1,$2,$3*
1,1,$1+$1,$4,$5*
1,1,$1+$1,$6,$7*
1,1,$1+$1,$8,$9*
0 Add four rect primitives between the rounded corners*
20,1,$1+$1,$2,$3,$4,$5,0*
20,1,$1+$1,$4,$5,$6,$7,0*
20,1,$1+$1,$6,$7,$8,$9,0*
20,1,$1+$1,$8,$9,$2,$3,0*%
G04 Aperture macros list end*
%ADD10RoundRect,0.250000X0.375000X0.625000X-0.375000X0.625000X-0.375000X-0.625000X0.375000X-0.625000X0*%
%ADD11RoundRect,0.250000X-0.312500X-0.625000X0.312500X-0.625000X0.312500X0.625000X-0.312500X0.625000X0*%
%ADD12RoundRect,0.250000X-0.325000X-0.650000X0.325000X-0.650000X0.325000X0.650000X-0.325000X0.650000X0*%
%ADD13RoundRect,0.250000X0.312500X0.625000X-0.312500X0.625000X-0.312500X-0.625000X0.312500X-0.625000X0*%
%ADD14RoundRect,0.250000X-0.625000X0.312500X-0.625000X-0.312500X0.625000X-0.312500X0.625000X0.312500X0*%
%ADD15RoundRect,0.250000X-0.375000X-0.625000X0.375000X-0.625000X0.375000X0.625000X-0.375000X0.625000X0*%
%ADD16RoundRect,0.250000X0.325000X0.650000X-0.325000X0.650000X-0.325000X-0.650000X0.325000X-0.650000X0*%
G04 APERTURE END LIST*
D10*
%TO.C,D3*%
X172000000Y-126000000D03*
X174800000Y-126000000D03*
%TD*%
D11*
%TO.C,R2*%
X169300000Y-126000000D03*
X166375000Y-126000000D03*
%TD*%
D12*
%TO.C,C4*%
X100975000Y-123500000D03*
X98025000Y-123500000D03*
%TD*%
%TO.C,C3*%
X100975000Y-120500000D03*
X98025000Y-120500000D03*
%TD*%
%TO.C,C5*%
X100975000Y-126500000D03*
X98025000Y-126500000D03*
%TD*%
D13*
%TO.C,R10*%
X114000000Y-133240000D03*
X111075000Y-133240000D03*
%TD*%
%TO.C,R9*%
X114000000Y-129930000D03*
X111075000Y-129930000D03*
%TD*%
%TO.C,R8*%
X114000000Y-126620000D03*
X111075000Y-126620000D03*
%TD*%
%TO.C,R7*%
X114000000Y-123310000D03*
X111075000Y-123310000D03*
%TD*%
%TO.C,R6*%
X114000000Y-120000000D03*
X111075000Y-120000000D03*
%TD*%
%TO.C,R5*%
X114000000Y-116500000D03*
X111075000Y-116500000D03*
%TD*%
%TO.C,R4*%
X114000000Y-113190000D03*
X111075000Y-113190000D03*
%TD*%
%TO.C,R3*%
X114000000Y-109880000D03*
X111075000Y-109880000D03*
%TD*%
D11*
%TO.C,R1*%
X140037500Y-63500000D03*
X142962500Y-63500000D03*
%TD*%
%TO.C,F16*%
X165575000Y-113000000D03*
X168500000Y-113000000D03*
%TD*%
%TO.C,F15*%
X165537500Y-108000000D03*
X168462500Y-108000000D03*
%TD*%
%TO.C,F14*%
X165575000Y-103000000D03*
X168500000Y-103000000D03*
%TD*%
%TO.C,F13*%
X165575000Y-98000000D03*
X168500000Y-98000000D03*
%TD*%
%TO.C,F12*%
X165575000Y-93000000D03*
X168500000Y-93000000D03*
%TD*%
%TO.C,F11*%
X165575000Y-88000000D03*
X168500000Y-88000000D03*
%TD*%
%TO.C,F10*%
X165575000Y-83000000D03*
X168500000Y-83000000D03*
%TD*%
%TO.C,F9*%
X165441770Y-77944009D03*
X168366770Y-77944009D03*
%TD*%
D14*
%TO.C,F8*%
X124000000Y-116037500D03*
X124000000Y-118962500D03*
%TD*%
%TO.C,F7*%
X129000000Y-116037500D03*
X129000000Y-118962500D03*
%TD*%
%TO.C,F6*%
X134000000Y-116037500D03*
X134000000Y-118962500D03*
%TD*%
%TO.C,F5*%
X139000000Y-116037500D03*
X139000000Y-118962500D03*
%TD*%
%TO.C,F4*%
X144000000Y-116000000D03*
X144000000Y-118925000D03*
%TD*%
%TO.C,F3*%
X149000000Y-116037500D03*
X149000000Y-118962500D03*
%TD*%
%TO.C,F2*%
X154000000Y-116075000D03*
X154000000Y-119000000D03*
%TD*%
%TO.C,F1*%
X159000000Y-116075000D03*
X159000000Y-119000000D03*
%TD*%
D15*
%TO.C,D11*%
X105500000Y-133560000D03*
X108300000Y-133560000D03*
%TD*%
%TO.C,D10*%
X105500000Y-130170000D03*
X108300000Y-130170000D03*
%TD*%
%TO.C,D9*%
X105500000Y-126780000D03*
X108300000Y-126780000D03*
%TD*%
%TO.C,D8*%
X105500000Y-123390000D03*
X108300000Y-123390000D03*
%TD*%
%TO.C,D7*%
X105500000Y-120000000D03*
X108300000Y-120000000D03*
%TD*%
%TO.C,D6*%
X105500000Y-116610000D03*
X108300000Y-116610000D03*
%TD*%
%TO.C,D5*%
X105500000Y-113220000D03*
X108300000Y-113220000D03*
%TD*%
%TO.C,D4*%
X105500000Y-109830000D03*
X108300000Y-109830000D03*
%TD*%
D16*
%TO.C,C1*%
X102450000Y-72000000D03*
X99500000Y-72000000D03*
%TD*%
M02*
