M48
; DRILL file {KiCad 9.0.4-1.fc42} date 2025-10-01T21:15:56+0800
; FORMAT={-:-/ absolute / metric / decimal}
; #@! TF.CreationDate,2025-10-01T21:15:56+08:00
; #@! TF.GenerationSoftware,Kicad,Pcbnew,9.0.4-1.fc42
; #@! TF.FileFunction,Plated,1,2,PTH
FMAT,2
METRIC
; #@! TA.AperFunction,Plated,PTH,ViaDrill
T1C0.300
; #@! TA.AperFunction,Plated,PTH,ComponentDrill
T2C0.800
; #@! TA.AperFunction,Plated,PTH,ComponentDrill
T3C1.000
; #@! TA.AperFunction,Plated,PTH,ComponentDrill
T4C1.100
; #@! TA.AperFunction,Plated,PTH,ComponentDrill
T5C1.200
; #@! TA.AperFunction,Plated,PTH,ComponentDrill
T6C1.300
; #@! TA.AperFunction,Plated,PTH,ComponentDrill
T7C3.200
%
G90
G05
T1
X111.5Y-99.5
X118.0Y-104.5
X118.939Y-108.963
X119.0Y-104.0
X119.006Y-106.494
X119.5Y-114.5
X119.624Y-109.376
X124.0Y-116.037
X124.256Y-111.744
X124.5Y-103.0
X125.5Y-103.0
X126.5Y-103.0
X126.5Y-107.5
X129.0Y-116.037
X129.5Y-110.5
X130.5Y-111.0
X131.5Y-111.0
X132.5Y-111.0
X134.0Y-116.037
X138.0Y-85.0
X139.0Y-116.037
X143.929Y-116.071
X165.442Y-77.944
X165.537Y-108.0
X165.575Y-83.0
X165.575Y-88.0
X165.575Y-93.0
X165.575Y-98.0
X165.575Y-103.0
X165.575Y-113.0
T2
X97.5Y-114.0
X101.3Y-114.0
X121.5Y-85.26
X121.5Y-87.8
X121.5Y-90.34
X121.5Y-92.88
X121.5Y-95.42
X121.5Y-97.96
X121.5Y-100.5
X121.5Y-103.04
X121.5Y-105.58
X129.12Y-85.26
X129.12Y-87.8
X129.12Y-90.34
X129.12Y-92.88
X129.12Y-95.42
X129.12Y-97.96
X129.12Y-100.5
X129.12Y-103.04
X129.12Y-105.58
X133.88Y-85.42
X133.88Y-87.96
X133.88Y-90.5
X133.88Y-93.04
X133.88Y-95.58
X133.88Y-98.12
X133.88Y-100.66
X133.88Y-103.2
X133.88Y-105.74
X141.5Y-85.42
X141.5Y-87.96
X141.5Y-90.5
X141.5Y-93.04
X141.5Y-95.58
X141.5Y-98.12
X141.5Y-100.66
X141.5Y-103.2
X141.5Y-105.74
T3
X98.868Y-80.0
X103.868Y-80.0
X115.0Y-60.26
X115.0Y-62.8
X115.0Y-65.34
X115.0Y-67.88
X115.0Y-70.42
X115.0Y-72.96
X135.5Y-60.3
X135.5Y-62.84
X135.5Y-65.38
X135.5Y-67.92
X135.5Y-70.46
X135.5Y-73.0
X147.5Y-60.34
X147.5Y-62.88
X147.5Y-65.42
X147.5Y-67.96
X147.5Y-70.5
X147.5Y-73.04
X147.5Y-75.58
X147.5Y-78.12
X147.5Y-80.66
X147.5Y-83.2
X147.5Y-85.74
X147.5Y-88.28
X147.5Y-90.82
X147.5Y-93.36
X147.5Y-95.9
X147.5Y-98.44
X147.5Y-100.98
X147.5Y-103.52
X147.5Y-106.06
X147.5Y-108.6
X162.5Y-60.42
X162.5Y-62.96
X162.5Y-65.5
X162.5Y-68.04
X162.5Y-70.58
X162.5Y-73.12
X162.5Y-75.66
X162.5Y-78.2
X162.5Y-80.74
X162.5Y-83.28
X162.5Y-85.82
X162.5Y-88.36
X162.5Y-90.9
X162.5Y-93.44
X162.5Y-95.98
X162.5Y-98.52
X162.5Y-101.06
X162.5Y-103.6
X162.5Y-106.14
X162.5Y-108.68
T4
X108.45Y-61.1
X108.45Y-62.8
X108.45Y-64.5
X108.45Y-66.2
X108.45Y-67.9
X126.42Y-80.5
X126.92Y-110.5
X136.58Y-80.5
X137.08Y-110.5
T5
X110.0Y-85.0
X115.0Y-85.0
T6
X107.0Y-95.0
X107.0Y-100.0
X119.0Y-125.5
X124.0Y-125.5
X129.0Y-125.5
X134.0Y-125.5
X139.0Y-125.5
X144.0Y-125.5
X149.0Y-125.5
X154.0Y-125.5
X159.0Y-125.5
X174.0Y-78.0
X174.0Y-83.0
X174.0Y-88.0
X174.0Y-93.0
X174.0Y-98.0
X174.0Y-103.0
X174.0Y-108.0
X174.0Y-113.0
X174.0Y-118.0
T7
X100.5Y-63.5
X100.5Y-131.5
X177.5Y-63.5
X177.5Y-131.5
M30
