%TF.GenerationSoftware,KiCad,Pcbnew,9.0.4-1.fc42*%
%TF.CreationDate,2025-10-01T21:15:53+08:00*%
%TF.ProjectId,lan_outlet,6c616e5f-6f75-4746-9c65-742e6b696361,rev?*%
%TF.SameCoordinates,Original*%
%TF.FileFunction,Copper,L2,Bot*%
%TF.FilePolarity,Positive*%
%FSLAX46Y46*%
G04 Gerber Fmt 4.6, Leading zero omitted, Abs format (unit mm)*
G04 Created by KiCad (PCBNEW 9.0.4-1.fc42) date 2025-10-01 21:15:53*
%MOMM*%
%LPD*%
G01*
G04 APERTURE LIST*
G04 Aperture macros list*
%AMRoundRect*
0 Rectangle with rounded corners*
0 $1 Rounding radius*
0 $2 $3 $4 $5 $6 $7 $8 $9 X,Y pos of 4 corners*
0 Add a 4 corners polygon primitive as box body*
4,1,4,$2,$3,$4,$5,$6,$7,$8,$9,$2,$3,0*
0 Add four circle primitives for the rounded corners*
1,1,$1+$1,$2,$3*
1,1,$1+$1,$4,$5*
1,1,$1+$1,$6,$7*
1,1,$1+$1,$8,$9*
0 Add four rect primitives between the rounded corners*
20,1,$1+$1,$2,$3,$4,$5,0*
20,1,$1+$1,$4,$5,$6,$7,0*
20,1,$1+$1,$6,$7,$8,$9,0*
20,1,$1+$1,$8,$9,$2,$3,0*%
G04 Aperture macros list end*
%TA.AperFunction,ComponentPad*%
%ADD10C,6.400000*%
%TD*%
%TA.AperFunction,ComponentPad*%
%ADD11R,1.700000X1.700000*%
%TD*%
%TA.AperFunction,ComponentPad*%
%ADD12C,1.700000*%
%TD*%
%TA.AperFunction,ComponentPad*%
%ADD13RoundRect,0.250000X-0.950000X-0.550000X0.950000X-0.550000X0.950000X0.550000X-0.950000X0.550000X0*%
%TD*%
%TA.AperFunction,ComponentPad*%
%ADD14O,2.400000X1.600000*%
%TD*%
%TA.AperFunction,ComponentPad*%
%ADD15R,1.800000X1.275000*%
%TD*%
%TA.AperFunction,ComponentPad*%
%ADD16O,1.800000X1.275000*%
%TD*%
%TA.AperFunction,ComponentPad*%
%ADD17C,2.400000*%
%TD*%
%TA.AperFunction,ComponentPad*%
%ADD18RoundRect,0.250001X1.149999X1.149999X-1.149999X1.149999X-1.149999X-1.149999X1.149999X-1.149999X0*%
%TD*%
%TA.AperFunction,ComponentPad*%
%ADD19C,2.800000*%
%TD*%
%TA.AperFunction,ComponentPad*%
%ADD20RoundRect,0.250001X-1.149999X1.149999X-1.149999X-1.149999X1.149999X-1.149999X1.149999X1.149999X0*%
%TD*%
%TA.AperFunction,ComponentPad*%
%ADD21RoundRect,0.250000X-1.000000X1.000000X-1.000000X-1.000000X1.000000X-1.000000X1.000000X1.000000X0*%
%TD*%
%TA.AperFunction,ComponentPad*%
%ADD22C,2.500000*%
%TD*%
%TA.AperFunction,ComponentPad*%
%ADD23RoundRect,0.249999X-0.850001X-0.850001X0.850001X-0.850001X0.850001X0.850001X-0.850001X0.850001X0*%
%TD*%
%TA.AperFunction,ComponentPad*%
%ADD24C,2.200000*%
%TD*%
%TA.AperFunction,ComponentPad*%
%ADD25RoundRect,0.249999X0.850001X0.850001X-0.850001X0.850001X-0.850001X-0.850001X0.850001X-0.850001X0*%
%TD*%
%TA.AperFunction,ComponentPad*%
%ADD26RoundRect,0.250000X-0.550000X-0.550000X0.550000X-0.550000X0.550000X0.550000X-0.550000X0.550000X0*%
%TD*%
%TA.AperFunction,ComponentPad*%
%ADD27C,1.600000*%
%TD*%
%TA.AperFunction,ComponentPad*%
%ADD28RoundRect,0.250000X0.750000X0.750000X-0.750000X0.750000X-0.750000X-0.750000X0.750000X-0.750000X0*%
%TD*%
%TA.AperFunction,ComponentPad*%
%ADD29C,2.000000*%
%TD*%
%TA.AperFunction,ViaPad*%
%ADD30C,0.600000*%
%TD*%
%TA.AperFunction,Conductor*%
%ADD31C,0.300000*%
%TD*%
%TA.AperFunction,Conductor*%
%ADD32C,0.600000*%
%TD*%
G04 APERTURE END LIST*
D10*
%TO.P,H4,1,1*%
%TO.N,GND*%
X177500000Y-131500000D03*
%TD*%
%TO.P,H3,1,1*%
%TO.N,GND*%
X100500000Y-131500000D03*
%TD*%
%TO.P,H2,1,1*%
%TO.N,GND*%
X177500000Y-63500000D03*
%TD*%
%TO.P,H1,1,1*%
%TO.N,GND*%
X100500000Y-63500000D03*
%TD*%
D11*
%TO.P,W5500_right1,1,Pin_1*%
%TO.N,GND*%
X135500000Y-60300000D03*
D12*
%TO.P,W5500_right1,2,Pin_2*%
%TO.N,+3.3V*%
X135500000Y-62840000D03*
%TO.P,W5500_right1,3,Pin_3*%
X135500000Y-65380000D03*
%TO.P,W5500_right1,4,Pin_4*%
%TO.N,unconnected-(W5500_right1-Pin_4-Pad4)*%
X135500000Y-67920000D03*
%TO.P,W5500_right1,5,Pin_5*%
%TO.N,RST*%
X135500000Y-70460000D03*
%TO.P,W5500_right1,6,Pin_6*%
%TO.N,MISO*%
X135500000Y-73000000D03*
%TD*%
D11*
%TO.P,W5500_left1,1,Pin_1*%
%TO.N,GND*%
X115000000Y-60260000D03*
D12*
%TO.P,W5500_left1,2,Pin_2*%
X115000000Y-62800000D03*
%TO.P,W5500_left1,3,Pin_3*%
%TO.N,MOSI*%
X115000000Y-65340000D03*
%TO.P,W5500_left1,4,Pin_4*%
%TO.N,SCK*%
X115000000Y-67880000D03*
%TO.P,W5500_left1,5,Pin_5*%
%TO.N,CS*%
X115000000Y-70420000D03*
%TO.P,W5500_left1,6,Pin_6*%
%TO.N,unconnected-(W5500_left1-Pin_6-Pad6)*%
X115000000Y-72960000D03*
%TD*%
D13*
%TO.P,U3,1,I1*%
%TO.N,OUT1*%
X121500000Y-85260000D03*
D14*
%TO.P,U3,2,I2*%
%TO.N,OUT2*%
X121500000Y-87800000D03*
%TO.P,U3,3,I3*%
%TO.N,OUT3*%
X121500000Y-90340000D03*
%TO.P,U3,4,I4*%
%TO.N,OUT4*%
X121500000Y-92880000D03*
%TO.P,U3,5,I5*%
%TO.N,OUT5*%
X121500000Y-95420000D03*
%TO.P,U3,6,I6*%
%TO.N,OUT6*%
X121500000Y-97960000D03*
%TO.P,U3,7,I7*%
%TO.N,OUT7*%
X121500000Y-100500000D03*
%TO.P,U3,8,I8*%
%TO.N,OUT8*%
X121500000Y-103040000D03*
%TO.P,U3,9,GND*%
%TO.N,GND*%
X121500000Y-105580000D03*
%TO.P,U3,10,COM*%
%TO.N,Net-(D1-K)*%
X129120000Y-105580000D03*
%TO.P,U3,11,O8*%
%TO.N,Net-(U3-O8)*%
X129120000Y-103040000D03*
%TO.P,U3,12,O7*%
%TO.N,Net-(U3-O7)*%
X129120000Y-100500000D03*
%TO.P,U3,13,O6*%
%TO.N,Net-(U3-O6)*%
X129120000Y-97960000D03*
%TO.P,U3,14,O5*%
%TO.N,Net-(U3-O5)*%
X129120000Y-95420000D03*
%TO.P,U3,15,O4*%
%TO.N,Net-(U3-O4)*%
X129120000Y-92880000D03*
%TO.P,U3,16,O3*%
%TO.N,Net-(U3-O3)*%
X129120000Y-90340000D03*
%TO.P,U3,17,O2*%
%TO.N,Net-(U3-O2)*%
X129120000Y-87800000D03*
%TO.P,U3,18,O1*%
%TO.N,Net-(U3-O1)*%
X129120000Y-85260000D03*
%TD*%
D13*
%TO.P,U2,1,IN1*%
%TO.N,OUT1*%
X133880000Y-85420000D03*
D14*
%TO.P,U2,2,IN2*%
%TO.N,OUT2*%
X133880000Y-87960000D03*
%TO.P,U2,3,IN3*%
%TO.N,OUT3*%
X133880000Y-90500000D03*
%TO.P,U2,4,IN4*%
%TO.N,OUT4*%
X133880000Y-93040000D03*
%TO.P,U2,5,IN5*%
%TO.N,OUT5*%
X133880000Y-95580000D03*
%TO.P,U2,6,IN6*%
%TO.N,OUT6*%
X133880000Y-98120000D03*
%TO.P,U2,7,IN7*%
%TO.N,OUT7*%
X133880000Y-100660000D03*
%TO.P,U2,8,IN8*%
%TO.N,OUT8*%
X133880000Y-103200000D03*
%TO.P,U2,9,VS*%
%TO.N,Net-(D1-K)*%
X133880000Y-105740000D03*
%TO.P,U2,10,GND*%
%TO.N,GND*%
X141500000Y-105740000D03*
%TO.P,U2,11,OUT8*%
%TO.N,Net-(U2-OUT8)*%
X141500000Y-103200000D03*
%TO.P,U2,12,OUT7*%
%TO.N,Net-(U2-OUT7)*%
X141500000Y-100660000D03*
%TO.P,U2,13,OUT6*%
%TO.N,Net-(U2-OUT6)*%
X141500000Y-98120000D03*
%TO.P,U2,14,OUT5*%
%TO.N,Net-(U2-OUT5)*%
X141500000Y-95580000D03*
%TO.P,U2,15,OUT4*%
%TO.N,Net-(U2-OUT4)*%
X141500000Y-93040000D03*
%TO.P,U2,16,OUT3*%
%TO.N,Net-(U2-OUT3)*%
X141500000Y-90500000D03*
%TO.P,U2,17,OUT2*%
%TO.N,Net-(U2-OUT2)*%
X141500000Y-87960000D03*
%TO.P,U2,18,OUT1*%
%TO.N,Net-(U2-OUT1)*%
X141500000Y-85420000D03*
%TD*%
D15*
%TO.P,U1,1,VIN*%
%TO.N,Net-(D1-K)*%
X108450000Y-67900000D03*
D16*
%TO.P,U1,2,OUT*%
%TO.N,Net-(D2-K)*%
X108450000Y-66200000D03*
%TO.P,U1,3,GND*%
%TO.N,GND*%
X108450000Y-64500000D03*
%TO.P,U1,4,FB*%
%TO.N,+3.3V*%
X108450000Y-62800000D03*
%TO.P,U1,5,~{ON}/OFF*%
%TO.N,GND*%
X108450000Y-61100000D03*
%TD*%
D17*
%TO.P,L1,1,1*%
%TO.N,Net-(D2-K)*%
X110000000Y-85000000D03*
%TO.P,L1,2,2*%
%TO.N,+3.3V*%
X115000000Y-85000000D03*
%TD*%
D18*
%TO.P,J3,1,Pin_1*%
%TO.N,Net-(J3-Pin_1)*%
X159000000Y-125500000D03*
D19*
%TO.P,J3,2,Pin_2*%
%TO.N,Net-(J3-Pin_2)*%
X154000000Y-125500000D03*
%TO.P,J3,3,Pin_3*%
%TO.N,Net-(J3-Pin_3)*%
X149000000Y-125500000D03*
%TO.P,J3,4,Pin_4*%
%TO.N,Net-(J3-Pin_4)*%
X144000000Y-125500000D03*
%TO.P,J3,5,Pin_5*%
%TO.N,Net-(J3-Pin_5)*%
X139000000Y-125500000D03*
%TO.P,J3,6,Pin_6*%
%TO.N,Net-(J3-Pin_6)*%
X134000000Y-125500000D03*
%TO.P,J3,7,Pin_7*%
%TO.N,Net-(J3-Pin_7)*%
X129000000Y-125500000D03*
%TO.P,J3,8,Pin_8*%
%TO.N,Net-(J3-Pin_8)*%
X124000000Y-125500000D03*
%TO.P,J3,9,Pin_9*%
%TO.N,GND*%
X119000000Y-125500000D03*
%TD*%
D20*
%TO.P,J2,1,Pin_1*%
%TO.N,Net-(J2-Pin_1)*%
X174000000Y-78000000D03*
D19*
%TO.P,J2,2,Pin_2*%
%TO.N,Net-(J2-Pin_2)*%
X174000000Y-83000000D03*
%TO.P,J2,3,Pin_3*%
%TO.N,Net-(J2-Pin_3)*%
X174000000Y-88000000D03*
%TO.P,J2,4,Pin_4*%
%TO.N,Net-(J2-Pin_4)*%
X174000000Y-93000000D03*
%TO.P,J2,5,Pin_5*%
%TO.N,Net-(J2-Pin_5)*%
X174000000Y-98000000D03*
%TO.P,J2,6,Pin_6*%
%TO.N,Net-(J2-Pin_6)*%
X174000000Y-103000000D03*
%TO.P,J2,7,Pin_7*%
%TO.N,Net-(J2-Pin_7)*%
X174000000Y-108000000D03*
%TO.P,J2,8,Pin_8*%
%TO.N,Net-(J2-Pin_8)*%
X174000000Y-113000000D03*
%TO.P,J2,9,Pin_9*%
%TO.N,GND*%
X174000000Y-118000000D03*
%TD*%
D21*
%TO.P,J1,1,Pin_1*%
%TO.N,Net-(D1-A)*%
X107000000Y-95000000D03*
D22*
%TO.P,J1,2,Pin_2*%
%TO.N,GND*%
X107000000Y-100000000D03*
%TD*%
D23*
%TO.P,D2,1,K*%
%TO.N,Net-(D2-K)*%
X126920000Y-110500000D03*
D24*
%TO.P,D2,2,A*%
%TO.N,GND*%
X137080000Y-110500000D03*
%TD*%
D25*
%TO.P,D1,1,K*%
%TO.N,Net-(D1-K)*%
X136580000Y-80500000D03*
D24*
%TO.P,D1,2,A*%
%TO.N,Net-(D1-A)*%
X126420000Y-80500000D03*
%TD*%
D26*
%TO.P,C6,1*%
%TO.N,+3.3V*%
X97500000Y-114000000D03*
D27*
%TO.P,C6,2*%
%TO.N,GND*%
X101300000Y-114000000D03*
%TD*%
D28*
%TO.P,C2,1*%
%TO.N,Net-(D1-K)*%
X103867677Y-80000000D03*
D29*
%TO.P,C2,2*%
%TO.N,GND*%
X98867677Y-80000000D03*
%TD*%
D11*
%TO.P,Black_pill_right1,1,Pin_1*%
%TO.N,unconnected-(Black_pill_right1-Pin_1-Pad1)*%
X162500000Y-60420000D03*
D12*
%TO.P,Black_pill_right1,2,Pin_2*%
%TO.N,GND*%
X162500000Y-62960000D03*
%TO.P,Black_pill_right1,3,Pin_3*%
%TO.N,+3.3V*%
X162500000Y-65500000D03*
%TO.P,Black_pill_right1,4,Pin_4*%
%TO.N,unconnected-(Black_pill_right1-Pin_4-Pad4)*%
X162500000Y-68040000D03*
%TO.P,Black_pill_right1,5,Pin_5*%
%TO.N,OUT3*%
X162500000Y-70580000D03*
%TO.P,Black_pill_right1,6,Pin_6*%
%TO.N,OUT2*%
X162500000Y-73120000D03*
%TO.P,Black_pill_right1,7,Pin_7*%
%TO.N,OUT1*%
X162500000Y-75660000D03*
%TO.P,Black_pill_right1,8,Pin_8*%
%TO.N,MOSI*%
X162500000Y-78200000D03*
%TO.P,Black_pill_right1,9,Pin_9*%
%TO.N,MISO*%
X162500000Y-80740000D03*
%TO.P,Black_pill_right1,10,Pin_10*%
%TO.N,SCK*%
X162500000Y-83280000D03*
%TO.P,Black_pill_right1,11,Pin_11*%
%TO.N,CS*%
X162500000Y-85820000D03*
%TO.P,Black_pill_right1,12,Pin_12*%
%TO.N,RST*%
X162500000Y-88360000D03*
%TO.P,Black_pill_right1,13,Pin_13*%
%TO.N,unconnected-(Black_pill_right1-Pin_13-Pad13)*%
X162500000Y-90900000D03*
%TO.P,Black_pill_right1,14,Pin_14*%
%TO.N,unconnected-(Black_pill_right1-Pin_14-Pad14)*%
X162500000Y-93440000D03*
%TO.P,Black_pill_right1,15,Pin_15*%
%TO.N,unconnected-(Black_pill_right1-Pin_15-Pad15)*%
X162500000Y-95980000D03*
%TO.P,Black_pill_right1,16,Pin_16*%
%TO.N,unconnected-(Black_pill_right1-Pin_16-Pad16)*%
X162500000Y-98520000D03*
%TO.P,Black_pill_right1,17,Pin_17*%
%TO.N,unconnected-(Black_pill_right1-Pin_17-Pad17)*%
X162500000Y-101060000D03*
%TO.P,Black_pill_right1,18,Pin_18*%
%TO.N,unconnected-(Black_pill_right1-Pin_18-Pad18)*%
X162500000Y-103600000D03*
%TO.P,Black_pill_right1,19,Pin_19*%
%TO.N,unconnected-(Black_pill_right1-Pin_19-Pad19)*%
X162500000Y-106140000D03*
%TO.P,Black_pill_right1,20,Pin_20*%
%TO.N,unconnected-(Black_pill_right1-Pin_20-Pad20)*%
X162500000Y-108680000D03*
%TD*%
D11*
%TO.P,Black_pill_left1,1,Pin_1*%
%TO.N,unconnected-(Black_pill_left1-Pin_1-Pad1)*%
X147500000Y-60340000D03*
D12*
%TO.P,Black_pill_left1,2,Pin_2*%
%TO.N,unconnected-(Black_pill_left1-Pin_2-Pad2)*%
X147500000Y-62880000D03*
%TO.P,Black_pill_left1,3,Pin_3*%
%TO.N,unconnected-(Black_pill_left1-Pin_3-Pad3)*%
X147500000Y-65420000D03*
%TO.P,Black_pill_left1,4,Pin_4*%
%TO.N,unconnected-(Black_pill_left1-Pin_4-Pad4)*%
X147500000Y-67960000D03*
%TO.P,Black_pill_left1,5,Pin_5*%
%TO.N,unconnected-(Black_pill_left1-Pin_5-Pad5)*%
X147500000Y-70500000D03*
%TO.P,Black_pill_left1,6,Pin_6*%
%TO.N,unconnected-(Black_pill_left1-Pin_6-Pad6)*%
X147500000Y-73040000D03*
%TO.P,Black_pill_left1,7,Pin_7*%
%TO.N,Net-(Black_pill_left1-Pin_7)*%
X147500000Y-75580000D03*
%TO.P,Black_pill_left1,8,Pin_8*%
%TO.N,unconnected-(Black_pill_left1-Pin_8-Pad8)*%
X147500000Y-78120000D03*
%TO.P,Black_pill_left1,9,Pin_9*%
%TO.N,unconnected-(Black_pill_left1-Pin_9-Pad9)*%
X147500000Y-80660000D03*
%TO.P,Black_pill_left1,10,Pin_10*%
%TO.N,unconnected-(Black_pill_left1-Pin_10-Pad10)*%
X147500000Y-83200000D03*
%TO.P,Black_pill_left1,11,Pin_11*%
%TO.N,OUT4*%
X147500000Y-85740000D03*
%TO.P,Black_pill_left1,12,Pin_12*%
%TO.N,OUT5*%
X147500000Y-88280000D03*
%TO.P,Black_pill_left1,13,Pin_13*%
%TO.N,OUT6*%
X147500000Y-90820000D03*
%TO.P,Black_pill_left1,14,Pin_14*%
%TO.N,OUT7*%
X147500000Y-93360000D03*
%TO.P,Black_pill_left1,15,Pin_15*%
%TO.N,OUT8*%
X147500000Y-95900000D03*
%TO.P,Black_pill_left1,16,Pin_16*%
%TO.N,unconnected-(Black_pill_left1-Pin_16-Pad16)*%
X147500000Y-98440000D03*
%TO.P,Black_pill_left1,17,Pin_17*%
%TO.N,unconnected-(Black_pill_left1-Pin_17-Pad17)*%
X147500000Y-100980000D03*
%TO.P,Black_pill_left1,18,Pin_18*%
%TO.N,unconnected-(Black_pill_left1-Pin_18-Pad18)*%
X147500000Y-103520000D03*
%TO.P,Black_pill_left1,19,Pin_19*%
%TO.N,GND*%
X147500000Y-106060000D03*
%TO.P,Black_pill_left1,20,Pin_20*%
%TO.N,+3.3V*%
X147500000Y-108600000D03*
%TD*%
D30*
%TO.N,GND*%
X111500000Y-99500000D03*
%TO.N,Net-(D1-K)*%
X126500000Y-107500000D03*
%TO.N,Net-(U3-O1)*%
X119005833Y-106494167D03*
X124255833Y-111744167D03*
X119500000Y-114500000D03*
X124500000Y-103000000D03*
%TO.N,Net-(U3-O2)*%
X125500000Y-103000000D03*
X118938883Y-108963245D03*
%TO.N,Net-(U3-O3)*%
X119624461Y-109375539D03*
X126500000Y-103000000D03*
%TO.N,Net-(U3-O4)*%
X132500000Y-111000000D03*
X143928798Y-116071202D03*
%TO.N,Net-(U3-O5)*%
X131500000Y-111000000D03*
X139000000Y-116037500D03*
%TO.N,Net-(U3-O6)*%
X130500000Y-111000000D03*
X134000000Y-116037500D03*
%TO.N,Net-(U3-O7)*%
X129500000Y-110500000D03*
X129000000Y-116037500D03*
%TO.N,Net-(U3-O8)*%
X124000000Y-116037500D03*
%TO.N,Net-(U2-OUT1)*%
X118000000Y-104500000D03*
X165441770Y-77944009D03*
%TO.N,Net-(U2-OUT2)*%
X138000000Y-85000000D03*
X119000000Y-104000000D03*
X165575000Y-83000000D03*
%TO.N,Net-(U2-OUT3)*%
X165575000Y-88000000D03*
%TO.N,Net-(U2-OUT4)*%
X165575000Y-93000000D03*
%TO.N,Net-(U2-OUT5)*%
X165575000Y-98000000D03*
%TO.N,Net-(U2-OUT6)*%
X165575000Y-103000000D03*
%TO.N,Net-(U2-OUT7)*%
X165537500Y-108000000D03*
%TO.N,Net-(U2-OUT8)*%
X165575000Y-113000000D03*
%TD*%
D31*
%TO.N,GND*%
X117580000Y-105580000D02*
X111500000Y-99500000D01*
X121500000Y-105580000D02*
X117580000Y-105580000D01*
%TO.N,Net-(D1-K)*%
X132120000Y-107500000D02*
X126500000Y-107500000D01*
X133880000Y-105740000D02*
X132120000Y-107500000D01*
%TO.N,Net-(U3-O8)*%
X129120000Y-103040000D02*
X127001000Y-105159000D01*
X128025870Y-109049000D02*
X128371000Y-109394130D01*
X127001000Y-105159000D02*
X127001000Y-105707520D01*
X127001000Y-105707520D02*
X125104260Y-107604260D01*
X126549000Y-109049000D02*
X128025870Y-109049000D01*
X125104260Y-107604260D02*
X126549000Y-109049000D01*
X128371000Y-111666500D02*
X124000000Y-116037500D01*
X128371000Y-109394130D02*
X128371000Y-111666500D01*
%TO.N,Net-(D1-K)*%
X133880000Y-105740000D02*
X129280000Y-105740000D01*
X129280000Y-105740000D02*
X129120000Y-105580000D01*
%TO.N,+3.3V*%
X147500000Y-108600000D02*
X161299000Y-94801000D01*
X161299000Y-94801000D02*
X161299000Y-92804529D01*
X161299000Y-92804529D02*
X162002529Y-92101000D01*
X162002529Y-92101000D02*
X162997471Y-92101000D01*
X162997471Y-92101000D02*
X164202000Y-90896471D01*
X164202000Y-90896471D02*
X164202000Y-67202000D01*
X164202000Y-67202000D02*
X162500000Y-65500000D01*
%TO.N,Net-(U3-O1)*%
X119500000Y-114500000D02*
X122255833Y-111744167D01*
X122255833Y-111744167D02*
X124255833Y-111744167D01*
X119005833Y-106494167D02*
X119242666Y-106731000D01*
X122376760Y-106731000D02*
X124500000Y-104607760D01*
X124500000Y-104607760D02*
X124500000Y-103000000D01*
X119242666Y-106731000D02*
X122376760Y-106731000D01*
%TO.N,Net-(U3-O2)*%
X125500000Y-103000000D02*
X125500000Y-105000000D01*
X121775461Y-108724539D02*
X119177589Y-108724539D01*
X125500000Y-105000000D02*
X121775461Y-108724539D01*
X119177589Y-108724539D02*
X118938883Y-108963245D01*
%TO.N,Net-(U3-O3)*%
X126500000Y-103000000D02*
X126500000Y-105500000D01*
X126500000Y-105500000D02*
X122624461Y-109375539D01*
X122624461Y-109375539D02*
X119624461Y-109375539D01*
%TO.N,Net-(U3-O4)*%
X139954356Y-116071202D02*
X143928798Y-116071202D01*
X134883154Y-111000000D02*
X139954356Y-116071202D01*
X132500000Y-111000000D02*
X134883154Y-111000000D01*
%TO.N,Net-(U3-O5)*%
X131500000Y-111000000D02*
X136500000Y-116000000D01*
X136500000Y-116000000D02*
X138962500Y-116000000D01*
X138962500Y-116000000D02*
X139000000Y-116037500D01*
%TO.N,Net-(U3-O6)*%
X130500000Y-113000000D02*
X133537500Y-116037500D01*
X133537500Y-116037500D02*
X134000000Y-116037500D01*
X130500000Y-111000000D02*
X130500000Y-113000000D01*
%TO.N,Net-(U3-O7)*%
X129500000Y-110500000D02*
X129500000Y-115537500D01*
X129500000Y-115537500D02*
X129000000Y-116037500D01*
D32*
%TO.N,GND*%
X177500000Y-63500000D02*
X180500000Y-66500000D01*
X180500000Y-66500000D02*
X180500000Y-128500000D01*
X180500000Y-128500000D02*
X177500000Y-131500000D01*
D31*
%TO.N,+3.3V*%
X135500000Y-65380000D02*
X134259000Y-64139000D01*
X134259000Y-64139000D02*
X109789000Y-64139000D01*
X109789000Y-64139000D02*
X108450000Y-62800000D01*
X162500000Y-65500000D02*
X161219000Y-64219000D01*
X161219000Y-64219000D02*
X136661000Y-64219000D01*
X136661000Y-64219000D02*
X135500000Y-65380000D01*
D32*
%TO.N,GND*%
X107000000Y-100000000D02*
X98867677Y-91867677D01*
X98867677Y-91867677D02*
X98867677Y-80000000D01*
%TO.N,Net-(U2-OUT1)*%
X141500000Y-85420000D02*
X138279000Y-82199000D01*
X138279000Y-82199000D02*
X120859212Y-82199000D01*
X120859212Y-82199000D02*
X118000000Y-85058212D01*
X118000000Y-85058212D02*
X118000000Y-104500000D01*
%TO.N,Net-(D2-K)*%
X126920000Y-110500000D02*
X119000000Y-110500000D01*
X119000000Y-110500000D02*
X110000000Y-101500000D01*
X110000000Y-101500000D02*
X110000000Y-85000000D01*
%TO.N,Net-(U2-OUT2)*%
X121190998Y-83000000D02*
X119000000Y-85190998D01*
X138000000Y-85000000D02*
X136000000Y-83000000D01*
X136000000Y-83000000D02*
X121190998Y-83000000D01*
X119000000Y-85190998D02*
X119000000Y-104000000D01*
%TO.N,Net-(U2-OUT3)*%
X141500000Y-90500000D02*
X136595002Y-95404998D01*
X145993968Y-117005000D02*
X167233922Y-117005000D01*
X136595002Y-95404998D02*
X136595002Y-107606036D01*
X136595002Y-107606036D02*
X145993968Y-117005000D01*
X167233922Y-117005000D02*
X169580000Y-114658922D01*
X169580000Y-114658922D02*
X169580000Y-92005000D01*
X169580000Y-92005000D02*
X165575000Y-88000000D01*
%TO.N,Net-(U2-OUT4)*%
X141500000Y-93040000D02*
X137396002Y-97143998D01*
X137396002Y-97143998D02*
X137396002Y-107274250D01*
X137396002Y-107274250D02*
X146325753Y-116204000D01*
X146325753Y-116204000D02*
X166902141Y-116204000D01*
X166902141Y-116204000D02*
X168779000Y-114327138D01*
X168779000Y-114327138D02*
X168779000Y-96204000D01*
X168779000Y-96204000D02*
X165575000Y-93000000D01*
%TO.N,Net-(U2-OUT5)*%
X141500000Y-95580000D02*
X138197001Y-98882999D01*
X138197001Y-98882999D02*
X138197001Y-106942464D01*
X138197001Y-106942464D02*
X146657538Y-115403000D01*
X146657538Y-115403000D02*
X166570355Y-115403000D01*
X166570355Y-115403000D02*
X167978000Y-113995354D01*
X167978000Y-113995354D02*
X167978000Y-100403000D01*
X167978000Y-100403000D02*
X165575000Y-98000000D01*
%TO.N,Net-(U2-OUT6)*%
X141500000Y-98120000D02*
X138998000Y-100622000D01*
X138998000Y-100622000D02*
X138998000Y-106610678D01*
X138998000Y-106610678D02*
X146989323Y-114602000D01*
X146989323Y-114602000D02*
X166238569Y-114602000D01*
X166238569Y-114602000D02*
X167177000Y-113663569D01*
X167177000Y-104602000D02*
X165575000Y-103000000D01*
X167177000Y-113663569D02*
X167177000Y-104602000D01*
%TO.N,Net-(U2-OUT7)*%
X141500000Y-100660000D02*
X139799000Y-102361000D01*
X139799000Y-102361000D02*
X139799000Y-106278892D01*
X139799000Y-106278892D02*
X147321108Y-113801000D01*
X147321108Y-113801000D02*
X165906786Y-113801000D01*
X165906786Y-113801000D02*
X166376000Y-113331785D01*
X166376000Y-113331785D02*
X166376000Y-108838500D01*
X166376000Y-108838500D02*
X165537500Y-108000000D01*
%TO.N,Net-(U2-OUT8)*%
X146149000Y-109159603D02*
X149989397Y-113000000D01*
X141500000Y-103200000D02*
X146149000Y-107849000D01*
X146149000Y-107849000D02*
X146149000Y-109159603D01*
X149989397Y-113000000D02*
X165575000Y-113000000D01*
D31*
%TO.N,OUT3*%
X133880000Y-90500000D02*
X137809000Y-86571000D01*
X137809000Y-86571000D02*
X144832529Y-86571000D01*
X163701000Y-88857471D02*
X163701000Y-71781000D01*
X163701000Y-71781000D02*
X162500000Y-70580000D01*
X144832529Y-86571000D02*
X147002529Y-84401000D01*
X147002529Y-84401000D02*
X156842529Y-84401000D01*
X156842529Y-84401000D02*
X162002529Y-89561000D01*
X162997471Y-89561000D02*
X163701000Y-88857471D01*
X162002529Y-89561000D02*
X162997471Y-89561000D01*
%TO.N,MOSI*%
X115000000Y-65340000D02*
X116379000Y-66719000D01*
X116379000Y-66719000D02*
X151019000Y-66719000D01*
X151019000Y-66719000D02*
X162500000Y-78200000D01*
%TO.N,MISO*%
X135500000Y-73000000D02*
X134299000Y-71799000D01*
X134299000Y-71799000D02*
X134299000Y-69962529D01*
X134299000Y-69962529D02*
X135002529Y-69259000D01*
X135002529Y-69259000D02*
X151019000Y-69259000D01*
X151019000Y-69259000D02*
X162500000Y-80740000D01*
%TO.N,RST*%
X135500000Y-70460000D02*
X144361000Y-79321000D01*
X144361000Y-79321000D02*
X153461000Y-79321000D01*
X153461000Y-79321000D02*
X162500000Y-88360000D01*
%TO.N,OUT8*%
X121500000Y-103040000D02*
X122889000Y-101651000D01*
X122889000Y-101651000D02*
X132331000Y-101651000D01*
X132331000Y-101651000D02*
X133880000Y-103200000D01*
%TO.N,OUT7*%
X121500000Y-100500000D02*
X122889000Y-99111000D01*
X122889000Y-99111000D02*
X132331000Y-99111000D01*
X132331000Y-99111000D02*
X133880000Y-100660000D01*
%TO.N,OUT6*%
X121500000Y-97960000D02*
X122889000Y-96571000D01*
X122889000Y-96571000D02*
X132331000Y-96571000D01*
X132331000Y-96571000D02*
X133880000Y-98120000D01*
%TO.N,OUT5*%
X121500000Y-95420000D02*
X122651000Y-94269000D01*
X122651000Y-94269000D02*
X132569000Y-94269000D01*
X132569000Y-94269000D02*
X133880000Y-95580000D01*
%TO.N,OUT4*%
X121500000Y-92880000D02*
X122651000Y-91729000D01*
X122651000Y-91729000D02*
X132569000Y-91729000D01*
X132569000Y-91729000D02*
X133880000Y-93040000D01*
%TO.N,OUT3*%
X121500000Y-90340000D02*
X122651000Y-89189000D01*
X122651000Y-89189000D02*
X132569000Y-89189000D01*
X132569000Y-89189000D02*
X133880000Y-90500000D01*
%TO.N,OUT2*%
X121500000Y-87800000D02*
X122729000Y-86571000D01*
X122729000Y-86571000D02*
X132491000Y-86571000D01*
X132491000Y-86571000D02*
X133880000Y-87960000D01*
%TO.N,OUT1*%
X121500000Y-85260000D02*
X122651000Y-84109000D01*
X122651000Y-84109000D02*
X132569000Y-84109000D01*
X132569000Y-84109000D02*
X133880000Y-85420000D01*
D32*
%TO.N,GND*%
X119000000Y-125500000D02*
X113000000Y-131500000D01*
X113000000Y-131500000D02*
X100500000Y-131500000D01*
%TO.N,Net-(D1-K)*%
X136580000Y-80500000D02*
X136500000Y-80500000D01*
X136500000Y-80500000D02*
X134899000Y-78899000D01*
X104968677Y-78899000D02*
X103867677Y-80000000D01*
X134899000Y-78899000D02*
X104968677Y-78899000D01*
%TD*%
%TA.AperFunction,Conductor*%
%TO.N,GND*%
G36*
X113657533Y-59020185D02*
G01*
X113703288Y-59072989D01*
X113713232Y-59142147D01*
X113706676Y-59167833D01*
X113656403Y-59302620D01*
X113656401Y-59302627D01*
X113650000Y-59362155D01*
X113650000Y-60010000D01*
X114566988Y-60010000D01*
X114534075Y-60067007D01*
X114500000Y-60194174D01*
X114500000Y-60325826D01*
X114534075Y-60452993D01*
X114566988Y-60510000D01*
X113650000Y-60510000D01*
X113650000Y-61157844D01*
X113656401Y-61217372D01*
X113656403Y-61217379D01*
X113706645Y-61352086D01*
X113706649Y-61352093D01*
X113792809Y-61467187D01*
X113792812Y-61467190D01*
X113907906Y-61553350D01*
X113907913Y-61553354D01*
X114042620Y-61603596D01*
X114042619Y-61603596D01*
X114125444Y-61612501D01*
X114125116Y-61615550D01*
X114142014Y-61614642D01*
X114201196Y-61647642D01*
X114870591Y-62317037D01*
X114807007Y-62334075D01*
X114692993Y-62399901D01*
X114599901Y-62492993D01*
X114534075Y-62607007D01*
X114517037Y-62670591D01*
X113884728Y-62038282D01*
X113884727Y-62038282D01*
X113845380Y-62092439D01*
X113748904Y-62281782D01*
X113683242Y-62483869D01*
X113683242Y-62483872D01*
X113650000Y-62693753D01*
X113650000Y-62906246D01*
X113683242Y-63116127D01*
X113683242Y-63116130D01*
X113750411Y-63322854D01*
X113749086Y-63323284D01*
X113755892Y-63386501D01*
X113724625Y-63448984D01*
X113664540Y-63484644D01*
X113633859Y-63488500D01*
X110109808Y-63488500D01*
X110042769Y-63468815D01*
X110022127Y-63452181D01*
X109830583Y-63260637D01*
X109797098Y-63199314D01*
X109800332Y-63134640D01*
X109822479Y-63066482D01*
X109846060Y-62917597D01*
X109850500Y-62889568D01*
X109850500Y-62710431D01*
X109827268Y-62563757D01*
X109822479Y-62533518D01*
X109767126Y-62363160D01*
X109685805Y-62203558D01*
X109580518Y-62058643D01*
X109559202Y-62037327D01*
X109525717Y-61976004D01*
X109530701Y-61906312D01*
X109559202Y-61861965D01*
X109580133Y-61841033D01*
X109580133Y-61841032D01*
X109685376Y-61696180D01*
X109766659Y-61536652D01*
X109821991Y-61366359D01*
X109824583Y-61350000D01*
X108940748Y-61350000D01*
X108962518Y-61312292D01*
X109000000Y-61172409D01*
X109000000Y-61027591D01*
X108962518Y-60887708D01*
X108940748Y-60850000D01*
X109824583Y-60850000D01*
X109821991Y-60833640D01*
X109766659Y-60663347D01*
X109691039Y-60514933D01*
X109691038Y-60514931D01*
X109685378Y-60503821D01*
X109580133Y-60358967D01*
X109580133Y-60358966D01*
X109453533Y-60232366D01*
X109308680Y-60127123D01*
X109149152Y-60045840D01*
X108978859Y-59990508D01*
X108802022Y-59962500D01*
X108700000Y-59962500D01*
X108700000Y-60609252D01*
X108662292Y-60587482D01*
X108522409Y-60550000D01*
X108377591Y-60550000D01*
X108237708Y-60587482D01*
X108200000Y-60609252D01*
X108200000Y-59962500D01*
X108097978Y-59962500D01*
X107921140Y-59990508D01*
X107750847Y-60045840D01*
X107591319Y-60127123D01*
X107446467Y-60232366D01*
X107446466Y-60232366D01*
X107319866Y-60358966D01*
X107319866Y-60358967D01*
X107214623Y-60503819D01*
X107133340Y-60663347D01*
X107078008Y-60833640D01*
X107075417Y-60850000D01*
X107959252Y-60850000D01*
X107937482Y-60887708D01*
X107900000Y-61027591D01*
X107900000Y-61172409D01*
X107937482Y-61312292D01*
X107959252Y-61350000D01*
X107075417Y-61350000D01*
X107078008Y-61366359D01*
X107133340Y-61536652D01*
X107214623Y-61696180D01*
X107319866Y-61841032D01*
X107319866Y-61841033D01*
X107340798Y-61861965D01*
X107374283Y-61923288D01*
X107369299Y-61992980D01*
X107340798Y-62037327D01*
X107319484Y-62058640D01*
X107319484Y-62058641D01*
X107319482Y-62058643D01*
X107274265Y-62120878D01*
X107214195Y-62203557D01*
X107132875Y-62363157D01*
X107077520Y-62533521D01*
X107049500Y-62710431D01*
X107049500Y-62889568D01*
X107077520Y-63066476D01*
X107077521Y-63066482D01*
X107132874Y-63236840D01*
X107214195Y-63396442D01*
X107319482Y-63541357D01*
X107319484Y-63541359D01*
X107340798Y-63562673D01*
X107374283Y-63623996D01*
X107369299Y-63693688D01*
X107340798Y-63738035D01*
X107319866Y-63758966D01*
X107319866Y-63758967D01*
X107214623Y-63903819D01*
X107133340Y-64063347D01*
X107078008Y-64233640D01*
X107075417Y-64250000D01*
X107959252Y-64250000D01*
X107937482Y-64287708D01*
X107900000Y-64427591D01*
X107900000Y-64572409D01*
X107937482Y-64712292D01*
X107959252Y-64750000D01*
X107075417Y-64750000D01*
X107078008Y-64766359D01*
X107133340Y-64936652D01*
X107214623Y-65096180D01*
X107319866Y-65241032D01*
X107319866Y-65241033D01*
X107340798Y-65261965D01*
X107374283Y-65323288D01*
X107369299Y-65392980D01*
X107340798Y-65437327D01*
X107319484Y-65458640D01*
X107319484Y-65458641D01*
X107319482Y-65458643D01*
X107274265Y-65520878D01*
X107214195Y-65603557D01*
X107132875Y-65763157D01*
X107077520Y-65933521D01*
X107049500Y-66110431D01*
X107049500Y-66289568D01*
X107077520Y-66466478D01*
X107077521Y-66466482D01*
X107132874Y-66636840D01*
X107200722Y-66770000D01*
X107203235Y-66774931D01*
X107216131Y-66843600D01*
X107192017Y-66905537D01*
X107106204Y-67020168D01*
X107106202Y-67020171D01*
X107055908Y-67155017D01*
X107054063Y-67172184D01*
X107049501Y-67214623D01*
X107049500Y-67214635D01*
X107049500Y-68585370D01*
X107049501Y-68585376D01*
X107055908Y-68644983D01*
X107106202Y-68779828D01*
X107106206Y-68779835D01*
X107192452Y-68895044D01*
X107192455Y-68895047D01*
X107307664Y-68981293D01*
X107307671Y-68981297D01*
X107442517Y-69031591D01*
X107442516Y-69031591D01*
X107449444Y-69032335D01*
X107502127Y-69038000D01*
X109397872Y-69037999D01*
X109457483Y-69031591D01*
X109592331Y-68981296D01*
X109707546Y-68895046D01*
X109793796Y-68779831D01*
X109844091Y-68644983D01*
X109850500Y-68585373D01*
X109850499Y-67214628D01*
X109844091Y-67155017D01*
X109837718Y-67137931D01*
X109793797Y-67020171D01*
X109793795Y-67020168D01*
X109787872Y-67012256D01*
X109707982Y-66905536D01*
X109683565Y-66840075D01*
X109696763Y-66774934D01*
X109767126Y-66636840D01*
X109822479Y-66466482D01*
X109837744Y-66370104D01*
X109850500Y-66289568D01*
X109850500Y-66110431D01*
X109822479Y-65933521D01*
X109822479Y-65933518D01*
X109767126Y-65763160D01*
X109685805Y-65603558D01*
X109580518Y-65458643D01*
X109559202Y-65437327D01*
X109525717Y-65376004D01*
X109530701Y-65306312D01*
X109559202Y-65261965D01*
X109580133Y-65241033D01*
X109580133Y-65241032D01*
X109685376Y-65096180D01*
X109766660Y-64936652D01*
X109786634Y-64875181D01*
X109826073Y-64817506D01*
X109890431Y-64790308D01*
X109904565Y-64789500D01*
X113588198Y-64789500D01*
X113655237Y-64809185D01*
X113700992Y-64861989D01*
X113710936Y-64931147D01*
X113706130Y-64951812D01*
X113696457Y-64981585D01*
X113682753Y-65023760D01*
X113649500Y-65233713D01*
X113649500Y-65446286D01*
X113674841Y-65606287D01*
X113682754Y-65656243D01*
X113734741Y-65816243D01*
X113748444Y-65858414D01*
X113844951Y-66047820D01*
X113969890Y-66219786D01*
X114120213Y-66370109D01*
X114292182Y-66495050D01*
X114300946Y-66499516D01*
X114351742Y-66547491D01*
X114368536Y-66615312D01*
X114345998Y-66681447D01*
X114300946Y-66720484D01*
X114292182Y-66724949D01*
X114120213Y-66849890D01*
X113969890Y-67000213D01*
X113844951Y-67172179D01*
X113748444Y-67361585D01*
X113748443Y-67361587D01*
X113748443Y-67361588D01*
X113734071Y-67405819D01*
X113682753Y-67563760D01*
X113649500Y-67773713D01*
X113649500Y-67986286D01*
X113674841Y-68146287D01*
X113682754Y-68196243D01*
X113734741Y-68356243D01*
X113748444Y-68398414D01*
X113844951Y-68587820D01*
X113969890Y-68759786D01*
X114120213Y-68910109D01*
X114292182Y-69035050D01*
X114300946Y-69039516D01*
X114351742Y-69087491D01*
X114368536Y-69155312D01*
X114345998Y-69221447D01*
X114300946Y-69260484D01*
X114292182Y-69264949D01*
X114120213Y-69389890D01*
X113969890Y-69540213D01*
X113844951Y-69712179D01*
X113748444Y-69901585D01*
X113748443Y-69901587D01*
X113748443Y-69901588D01*
X113734071Y-69945819D01*
X113682753Y-70103760D01*
X113649500Y-70313713D01*
X113649500Y-70526286D01*
X113674841Y-70686287D01*
X113682754Y-70736243D01*
X113734741Y-70896243D01*
X113748444Y-70938414D01*
X113844951Y-71127820D01*
X113969890Y-71299786D01*
X114120213Y-71450109D01*
X114292182Y-71575050D01*
X114300946Y-71579516D01*
X114351742Y-71627491D01*
X114368536Y-71695312D01*
X114345998Y-71761447D01*
X114300946Y-71800484D01*
X114292182Y-71804949D01*
X114120213Y-71929890D01*
X113969890Y-72080213D01*
X113844951Y-72252179D01*
X113748444Y-72441585D01*
X113682753Y-72643760D01*
X113649500Y-72853713D01*
X113649500Y-73066286D01*
X113674841Y-73226287D01*
X113682754Y-73276243D01*
X113734741Y-73436243D01*
X113748444Y-73478414D01*
X113844951Y-73667820D01*
X113969890Y-73839786D01*
X114120213Y-73990109D01*
X114292179Y-74115048D01*
X114292181Y-74115049D01*
X114292184Y-74115051D01*
X114481588Y-74211557D01*
X114683757Y-74277246D01*
X114893713Y-74310500D01*
X114893714Y-74310500D01*
X115106286Y-74310500D01*
X115106287Y-74310500D01*
X115316243Y-74277246D01*
X115518412Y-74211557D01*
X115707816Y-74115051D01*
X115769681Y-74070104D01*
X115879786Y-73990109D01*
X115879788Y-73990106D01*
X115879792Y-73990104D01*
X116030104Y-73839792D01*
X116030106Y-73839788D01*
X116030109Y-73839786D01*
X116155048Y-73667820D01*
X116155047Y-73667820D01*
X116155051Y-73667816D01*
X116251557Y-73478412D01*
X116317246Y-73276243D01*
X116350500Y-73066287D01*
X116350500Y-72853713D01*
X116317246Y-72643757D01*
X116251557Y-72441588D01*
X116155051Y-72252184D01*
X116155049Y-72252181D01*
X116155048Y-72252179D01*
X116030109Y-72080213D01*
X115879786Y-71929890D01*
X115707820Y-71804951D01*
X115707115Y-71804591D01*
X115699054Y-71800485D01*
X115648259Y-71752512D01*
X115631463Y-71684692D01*
X115653999Y-71618556D01*
X115699054Y-71579515D01*
X115707816Y-71575051D01*
X115866458Y-71459792D01*
X115879786Y-71450109D01*
X115879788Y-71450106D01*
X115879792Y-71450104D01*
X116030104Y-71299792D01*
X116030106Y-71299788D01*
X116030109Y-71299786D01*
X116155048Y-71127820D01*
X116155047Y-71127820D01*
X116155051Y-71127816D01*
X116251557Y-70938412D01*
X116317246Y-70736243D01*
X116350500Y-70526287D01*
X116350500Y-70313713D01*
X116317246Y-70103757D01*
X116251557Y-69901588D01*
X116155051Y-69712184D01*
X116155049Y-69712181D01*
X116155048Y-69712179D01*
X116030109Y-69540213D01*
X115879786Y-69389890D01*
X115707820Y-69264951D01*
X115707115Y-69264591D01*
X115699054Y-69260485D01*
X115648259Y-69212512D01*
X115631463Y-69144692D01*
X115653999Y-69078556D01*
X115699054Y-69039515D01*
X115707816Y-69035051D01*
X115866458Y-68919792D01*
X115879786Y-68910109D01*
X115879788Y-68910106D01*
X115879792Y-68910104D01*
X116030104Y-68759792D01*
X116030106Y-68759788D01*
X116030109Y-68759786D01*
X116155048Y-68587820D01*
X116155047Y-68587820D01*
X116155051Y-68587816D01*
X116251557Y-68398412D01*
X116317246Y-68196243D01*
X116350500Y-67986287D01*
X116350500Y-67773713D01*
X116317246Y-67563757D01*
X116306867Y-67531816D01*
X116304873Y-67461977D01*
X116340953Y-67402144D01*
X116403654Y-67371316D01*
X116424799Y-67369500D01*
X116443069Y-67369500D01*
X134088198Y-67369500D01*
X134155237Y-67389185D01*
X134200992Y-67441989D01*
X134210936Y-67511147D01*
X134206130Y-67531812D01*
X134195751Y-67563757D01*
X134182753Y-67603760D01*
X134149500Y-67813713D01*
X134149500Y-68026286D01*
X134176418Y-68196243D01*
X134182754Y-68236243D01*
X134221743Y-68356239D01*
X134248444Y-68438414D01*
X134344951Y-68627820D01*
X134437899Y-68755753D01*
X134461379Y-68821560D01*
X134445553Y-68889613D01*
X134425262Y-68916319D01*
X133793726Y-69547855D01*
X133730246Y-69642860D01*
X133730246Y-69642861D01*
X133722535Y-69654402D01*
X133722534Y-69654404D01*
X133673499Y-69772784D01*
X133673497Y-69772790D01*
X133648500Y-69898457D01*
X133648500Y-71863070D01*
X133652852Y-71884949D01*
X133667682Y-71959500D01*
X133673499Y-71988744D01*
X133722535Y-72107127D01*
X133793723Y-72213669D01*
X133793726Y-72213673D01*
X133793727Y-72213674D01*
X134149342Y-72569288D01*
X134182827Y-72630611D01*
X134182319Y-72678755D01*
X134183516Y-72678945D01*
X134149500Y-72893713D01*
X134149500Y-73106286D01*
X134176418Y-73276243D01*
X134182754Y-73316243D01*
X134221743Y-73436239D01*
X134248444Y-73518414D01*
X134344951Y-73707820D01*
X134469890Y-73879786D01*
X134620213Y-74030109D01*
X134792179Y-74155048D01*
X134792181Y-74155049D01*
X134792184Y-74155051D01*
X134981588Y-74251557D01*
X135183757Y-74317246D01*
X135393713Y-74350500D01*
X135393714Y-74350500D01*
X135606286Y-74350500D01*
X135606287Y-74350500D01*
X135816243Y-74317246D01*
X136018412Y-74251557D01*
X136207816Y-74155051D01*
X136262876Y-74115048D01*
X136379786Y-74030109D01*
X136379788Y-74030106D01*
X136379792Y-74030104D01*
X136530104Y-73879792D01*
X136530106Y-73879788D01*
X136530109Y-73879786D01*
X136655048Y-73707820D01*
X136655047Y-73707820D01*
X136655051Y-73707816D01*
X136751557Y-73518412D01*
X136817246Y-73316243D01*
X136850500Y-73106287D01*
X136850500Y-73029808D01*
X136870185Y-72962769D01*
X136922989Y-72917014D01*
X136992147Y-72907070D01*
X137055703Y-72936095D01*
X137062181Y-72942127D01*
X143946324Y-79826271D01*
X143946327Y-79826274D01*
X144035148Y-79885622D01*
X144035147Y-79885622D01*
X144052871Y-79897464D01*
X144052872Y-79897464D01*
X144052873Y-79897465D01*
X144171256Y-79946501D01*
X144171260Y-79946501D01*
X144171261Y-79946502D01*
X144296928Y-79971500D01*
X144296931Y-79971500D01*
X146133317Y-79971500D01*
X146200356Y-79991185D01*
X146246111Y-80043989D01*
X146256055Y-80113147D01*
X146249558Y-80136827D01*
X146249949Y-80136954D01*
X146248443Y-80141586D01*
X146248443Y-80141588D01*
X146194695Y-80307007D01*
X146182753Y-80343760D01*
X146149500Y-80553713D01*
X146149500Y-80766286D01*
X146171121Y-80902799D01*
X146182754Y-80976243D01*
X146233368Y-81132017D01*
X146248444Y-81178414D01*
X146344951Y-81367820D01*
X146469890Y-81539786D01*
X146620213Y-81690109D01*
X146792182Y-81815050D01*
X146800946Y-81819516D01*
X146851742Y-81867491D01*
X146868536Y-81935312D01*
X146845998Y-82001447D01*
X146800946Y-82040484D01*
X146792182Y-82044949D01*
X146620213Y-82169890D01*
X146469890Y-82320213D01*
X146344951Y-82492179D01*
X146248444Y-82681585D01*
X146182753Y-82883760D01*
X146151855Y-83078842D01*
X146149500Y-83093713D01*
X146149500Y-83306287D01*
X146153034Y-83328597D01*
X146181810Y-83510288D01*
X146182754Y-83516243D01*
X146248443Y-83718412D01*
X146328926Y-83876370D01*
X146344948Y-83907814D01*
X146344949Y-83907816D01*
X146379829Y-83955825D01*
X146403308Y-84021631D01*
X146387482Y-84089685D01*
X146367191Y-84116390D01*
X144599402Y-85884181D01*
X144538079Y-85917666D01*
X144511721Y-85920500D01*
X143275476Y-85920500D01*
X143208437Y-85900815D01*
X143162682Y-85848011D01*
X143152738Y-85778853D01*
X143157545Y-85758183D01*
X143168475Y-85724542D01*
X143168475Y-85724538D01*
X143168477Y-85724534D01*
X143200500Y-85522352D01*
X143200500Y-85317648D01*
X143184551Y-85216954D01*
X143168477Y-85115465D01*
X143116487Y-84955457D01*
X143105220Y-84920781D01*
X143105218Y-84920778D01*
X143105218Y-84920776D01*
X143053865Y-84819991D01*
X143012287Y-84738390D01*
X142996892Y-84717200D01*
X142891971Y-84572786D01*
X142747213Y-84428028D01*
X142581613Y-84307715D01*
X142581612Y-84307714D01*
X142581610Y-84307713D01*
X142521898Y-84277288D01*
X142399223Y-84214781D01*
X142204534Y-84151522D01*
X142029995Y-84123878D01*
X142002352Y-84119500D01*
X142002351Y-84119500D01*
X141382940Y-84119500D01*
X141315901Y-84099815D01*
X141295259Y-84083181D01*
X138789291Y-81577212D01*
X138789288Y-81577210D01*
X138658185Y-81489609D01*
X138658172Y-81489602D01*
X138512501Y-81429264D01*
X138512489Y-81429261D01*
X138357845Y-81398500D01*
X138357842Y-81398500D01*
X138304500Y-81398500D01*
X138237461Y-81378815D01*
X138191706Y-81326011D01*
X138180500Y-81274500D01*
X138180500Y-79599995D01*
X138180499Y-79599982D01*
X138169999Y-79497203D01*
X138169999Y-79497202D01*
X138114814Y-79330665D01*
X138022712Y-79181344D01*
X137898656Y-79057288D01*
X137749335Y-78965186D01*
X137582798Y-78910001D01*
X137582796Y-78910000D01*
X137480017Y-78899500D01*
X137480010Y-78899500D01*
X136082940Y-78899500D01*
X136015901Y-78879815D01*
X135995259Y-78863181D01*
X135409292Y-78277213D01*
X135409288Y-78277210D01*
X135278185Y-78189609D01*
X135278172Y-78189602D01*
X135132501Y-78129264D01*
X135132489Y-78129261D01*
X134977845Y-78098500D01*
X134977842Y-78098500D01*
X104889835Y-78098500D01*
X104889832Y-78098500D01*
X104735187Y-78129261D01*
X104735175Y-78129264D01*
X104589504Y-78189602D01*
X104589491Y-78189609D01*
X104470067Y-78269407D01*
X104458392Y-78277207D01*
X104458386Y-78277212D01*
X104272417Y-78463181D01*
X104211094Y-78496666D01*
X104184736Y-78499500D01*
X103067675Y-78499500D01*
X103067658Y-78499501D01*
X102964880Y-78510000D01*
X102964877Y-78510001D01*
X102798345Y-78565185D01*
X102798340Y-78565187D01*
X102649019Y-78657289D01*
X102524966Y-78781342D01*
X102432864Y-78930663D01*
X102432862Y-78930668D01*
X102421424Y-78965186D01*
X102377678Y-79097203D01*
X102377678Y-79097204D01*
X102377677Y-79097204D01*
X102367177Y-79199983D01*
X102367177Y-80800001D01*
X102367178Y-80800018D01*
X102377677Y-80902796D01*
X102377678Y-80902799D01*
X102428524Y-81056239D01*
X102432863Y-81069334D01*
X102524965Y-81218656D01*
X102649021Y-81342712D01*
X102798343Y-81434814D01*
X102964880Y-81489999D01*
X103067668Y-81500500D01*
X104667685Y-81500499D01*
X104770474Y-81489999D01*
X104937011Y-81434814D01*
X105086333Y-81342712D01*
X105210389Y-81218656D01*
X105302491Y-81069334D01*
X105357676Y-80902797D01*
X105368177Y-80800009D01*
X105368176Y-79823499D01*
X105387860Y-79756461D01*
X105440664Y-79710706D01*
X105492176Y-79699500D01*
X124829242Y-79699500D01*
X124896281Y-79719185D01*
X124942036Y-79771989D01*
X124951980Y-79841147D01*
X124939728Y-79879792D01*
X124936762Y-79885613D01*
X124936760Y-79885618D01*
X124936759Y-79885621D01*
X124932911Y-79897464D01*
X124858910Y-80125214D01*
X124857071Y-80136827D01*
X124819500Y-80374038D01*
X124819500Y-80625962D01*
X124844875Y-80786174D01*
X124858910Y-80874785D01*
X124936760Y-81114383D01*
X124989661Y-81218205D01*
X125002557Y-81286874D01*
X124976281Y-81351615D01*
X124919174Y-81391872D01*
X124879176Y-81398500D01*
X120780366Y-81398500D01*
X120625721Y-81429261D01*
X120625709Y-81429264D01*
X120583044Y-81446936D01*
X120583045Y-81446937D01*
X120480035Y-81489604D01*
X120480026Y-81489609D01*
X120348924Y-81577209D01*
X120348923Y-81577211D01*
X120348922Y-81577212D01*
X117489711Y-84436423D01*
X117438643Y-84487491D01*
X117378209Y-84547924D01*
X117290609Y-84679026D01*
X117290602Y-84679039D01*
X117230264Y-84824710D01*
X117230261Y-84824722D01*
X117199500Y-84979365D01*
X117199500Y-104578846D01*
X117230261Y-104733489D01*
X117230264Y-104733501D01*
X117290602Y-104879172D01*
X117290609Y-104879185D01*
X117378210Y-105010288D01*
X117378213Y-105010292D01*
X117489707Y-105121786D01*
X117489711Y-105121789D01*
X117620814Y-105209390D01*
X117620827Y-105209397D01*
X117743510Y-105260213D01*
X117766503Y-105269737D01*
X117921153Y-105300499D01*
X117921156Y-105300500D01*
X117921158Y-105300500D01*
X118078844Y-105300500D01*
X118078845Y-105300499D01*
X118233497Y-105269737D01*
X118379179Y-105209394D01*
X118510289Y-105121789D01*
X118621789Y-105010289D01*
X118709394Y-104879179D01*
X118716677Y-104861593D01*
X118760514Y-104807190D01*
X118826807Y-104785122D01*
X118855431Y-104787426D01*
X118921155Y-104800500D01*
X118921158Y-104800500D01*
X119078844Y-104800500D01*
X119078845Y-104800499D01*
X119233497Y-104769737D01*
X119346166Y-104723067D01*
X119379172Y-104709397D01*
X119379172Y-104709396D01*
X119379179Y-104709394D01*
X119510289Y-104621789D01*
X119621789Y-104510289D01*
X119709394Y-104379179D01*
X119711278Y-104374632D01*
X119738049Y-104310000D01*
X119769737Y-104233497D01*
X119800500Y-104078842D01*
X119800500Y-103845567D01*
X119820185Y-103778528D01*
X119872989Y-103732773D01*
X119942147Y-103722829D01*
X120005703Y-103751854D01*
X120024819Y-103772682D01*
X120108034Y-103887219D01*
X120252786Y-104031971D01*
X120371767Y-104118414D01*
X120418390Y-104152287D01*
X120490424Y-104188990D01*
X120511629Y-104199795D01*
X120562425Y-104247770D01*
X120579220Y-104315591D01*
X120556682Y-104381726D01*
X120511629Y-104420765D01*
X120418650Y-104468140D01*
X120253105Y-104588417D01*
X120253104Y-104588417D01*
X120108417Y-104733104D01*
X120108417Y-104733105D01*
X119988140Y-104898650D01*
X119895244Y-105080970D01*
X119832009Y-105275586D01*
X119823391Y-105330000D01*
X121184314Y-105330000D01*
X121179920Y-105334394D01*
X121127259Y-105425606D01*
X121100000Y-105527339D01*
X121100000Y-105632661D01*
X121127259Y-105734394D01*
X121179920Y-105825606D01*
X121184314Y-105830000D01*
X119823390Y-105830000D01*
X119829490Y-105868512D01*
X119820535Y-105937806D01*
X119775539Y-105991258D01*
X119708787Y-106011897D01*
X119641474Y-105993172D01*
X119619336Y-105975591D01*
X119516125Y-105872380D01*
X119516121Y-105872377D01*
X119385018Y-105784776D01*
X119385005Y-105784769D01*
X119239334Y-105724431D01*
X119239322Y-105724428D01*
X119084678Y-105693667D01*
X119084675Y-105693667D01*
X118926991Y-105693667D01*
X118926988Y-105693667D01*
X118772343Y-105724428D01*
X118772331Y-105724431D01*
X118626660Y-105784769D01*
X118626647Y-105784776D01*
X118495544Y-105872377D01*
X118495540Y-105872380D01*
X118384046Y-105983874D01*
X118384043Y-105983878D01*
X118296442Y-106114981D01*
X118296435Y-106114994D01*
X118236097Y-106260665D01*
X118236094Y-106260677D01*
X118205333Y-106415320D01*
X118205333Y-106573013D01*
X118236094Y-106727656D01*
X118236097Y-106727668D01*
X118296435Y-106873339D01*
X118296442Y-106873352D01*
X118384043Y-107004455D01*
X118384046Y-107004459D01*
X118495540Y-107115953D01*
X118495544Y-107115956D01*
X118626647Y-107203557D01*
X118626660Y-107203564D01*
X118691121Y-107230264D01*
X118772336Y-107263904D01*
X118886278Y-107286568D01*
X118930973Y-107305082D01*
X118934539Y-107307465D01*
X119052922Y-107356501D01*
X119052926Y-107356501D01*
X119052927Y-107356502D01*
X119178594Y-107381500D01*
X119178597Y-107381500D01*
X121899192Y-107381500D01*
X121966231Y-107401185D01*
X122011986Y-107453989D01*
X122021930Y-107523147D01*
X121992905Y-107586703D01*
X121986873Y-107593181D01*
X121542334Y-108037720D01*
X121481011Y-108071205D01*
X121454653Y-108074039D01*
X119113518Y-108074039D01*
X118987850Y-108099036D01*
X118987844Y-108099038D01*
X118869462Y-108148073D01*
X118869446Y-108148082D01*
X118862689Y-108152597D01*
X118818001Y-108171106D01*
X118705390Y-108193507D01*
X118705381Y-108193509D01*
X118559710Y-108253847D01*
X118559697Y-108253854D01*
X118428594Y-108341455D01*
X118428590Y-108341458D01*
X118317096Y-108452952D01*
X118317093Y-108452956D01*
X118308083Y-108466440D01*
X118254468Y-108511242D01*
X118185143Y-108519946D01*
X118122117Y-108489789D01*
X118117303Y-108485225D01*
X110836819Y-101204741D01*
X110803334Y-101143418D01*
X110800500Y-101117060D01*
X110800500Y-86572990D01*
X110820185Y-86505951D01*
X110862498Y-86465604D01*
X110946774Y-86416948D01*
X111123624Y-86281247D01*
X111281247Y-86123624D01*
X111416948Y-85946774D01*
X111528405Y-85753726D01*
X111613710Y-85547781D01*
X111671404Y-85332463D01*
X111700500Y-85111457D01*
X111700500Y-84888549D01*
X113299500Y-84888549D01*
X113299500Y-85111450D01*
X113299501Y-85111466D01*
X113328594Y-85332452D01*
X113328595Y-85332457D01*
X113328596Y-85332463D01*
X113386290Y-85547780D01*
X113386293Y-85547790D01*
X113471593Y-85753722D01*
X113471595Y-85753726D01*
X113583052Y-85946774D01*
X113583057Y-85946780D01*
X113583058Y-85946782D01*
X113718751Y-86123622D01*
X113718757Y-86123629D01*
X113876370Y-86281242D01*
X113876377Y-86281248D01*
X113944538Y-86333549D01*
X114053226Y-86416948D01*
X114246274Y-86528405D01*
X114452219Y-86613710D01*
X114667537Y-86671404D01*
X114888543Y-86700500D01*
X114888550Y-86700500D01*
X115111450Y-86700500D01*
X115111457Y-86700500D01*
X115332463Y-86671404D01*
X115547781Y-86613710D01*
X115753726Y-86528405D01*
X115946774Y-86416948D01*
X116123624Y-86281247D01*
X116281247Y-86123624D01*
X116416948Y-85946774D01*
X116528405Y-85753726D01*
X116613710Y-85547781D01*
X116671404Y-85332463D01*
X116700500Y-85111457D01*
X116700500Y-84888543D01*
X116671404Y-84667537D01*
X116613710Y-84452219D01*
X116528405Y-84246274D01*
X116416948Y-84053226D01*
X116377867Y-84002294D01*
X116281248Y-83876377D01*
X116281242Y-83876370D01*
X116123629Y-83718757D01*
X116123622Y-83718751D01*
X115946782Y-83583058D01*
X115946780Y-83583057D01*
X115946774Y-83583052D01*
X115753726Y-83471595D01*
X115753722Y-83471593D01*
X115547790Y-83386293D01*
X115547783Y-83386291D01*
X115547781Y-83386290D01*
X115332463Y-83328596D01*
X115332457Y-83328595D01*
X115332452Y-83328594D01*
X115111466Y-83299501D01*
X115111463Y-83299500D01*
X115111457Y-83299500D01*
X114888543Y-83299500D01*
X114888537Y-83299500D01*
X114888533Y-83299501D01*
X114667547Y-83328594D01*
X114667540Y-83328595D01*
X114667537Y-83328596D01*
X114507189Y-83371561D01*
X114452219Y-83386290D01*
X114452209Y-83386293D01*
X114246277Y-83471593D01*
X114246273Y-83471595D01*
X114053226Y-83583052D01*
X114053217Y-83583058D01*
X113876377Y-83718751D01*
X113876370Y-83718757D01*
X113718757Y-83876370D01*
X113718751Y-83876377D01*
X113583058Y-84053217D01*
X113583052Y-84053226D01*
X113471595Y-84246273D01*
X113471593Y-84246277D01*
X113386293Y-84452209D01*
X113386290Y-84452219D01*
X113329290Y-84664949D01*
X113328597Y-84667534D01*
X113328594Y-84667547D01*
X113299501Y-84888533D01*
X113299500Y-84888549D01*
X111700500Y-84888549D01*
X111700500Y-84888543D01*
X111671404Y-84667537D01*
X111613710Y-84452219D01*
X111528405Y-84246274D01*
X111416948Y-84053226D01*
X111377867Y-84002294D01*
X111281248Y-83876377D01*
X111281242Y-83876370D01*
X111123629Y-83718757D01*
X111123622Y-83718751D01*
X110946782Y-83583058D01*
X110946780Y-83583057D01*
X110946774Y-83583052D01*
X110753726Y-83471595D01*
X110753722Y-83471593D01*
X110547790Y-83386293D01*
X110547783Y-83386291D01*
X110547781Y-83386290D01*
X110332463Y-83328596D01*
X110332457Y-83328595D01*
X110332452Y-83328594D01*
X110111466Y-83299501D01*
X110111463Y-83299500D01*
X110111457Y-83299500D01*
X109888543Y-83299500D01*
X109888537Y-83299500D01*
X109888533Y-83299501D01*
X109667547Y-83328594D01*
X109667540Y-83328595D01*
X109667537Y-83328596D01*
X109507189Y-83371561D01*
X109452219Y-83386290D01*
X109452209Y-83386293D01*
X109246277Y-83471593D01*
X109246273Y-83471595D01*
X109053226Y-83583052D01*
X109053217Y-83583058D01*
X108876377Y-83718751D01*
X108876370Y-83718757D01*
X108718757Y-83876370D01*
X108718751Y-83876377D01*
X108583058Y-84053217D01*
X108583052Y-84053226D01*
X108471595Y-84246273D01*
X108471593Y-84246277D01*
X108386293Y-84452209D01*
X108386290Y-84452219D01*
X108329290Y-84664949D01*
X108328597Y-84667534D01*
X108328594Y-84667547D01*
X108299501Y-84888533D01*
X108299500Y-84888549D01*
X108299500Y-85111450D01*
X108299501Y-85111466D01*
X108328594Y-85332452D01*
X108328595Y-85332457D01*
X108328596Y-85332463D01*
X108386290Y-85547780D01*
X108386293Y-85547790D01*
X108471593Y-85753722D01*
X108471595Y-85753726D01*
X108583052Y-85946774D01*
X108583057Y-85946780D01*
X108583058Y-85946782D01*
X108718751Y-86123622D01*
X108718757Y-86123629D01*
X108876370Y-86281242D01*
X108876377Y-86281248D01*
X109053224Y-86416947D01*
X109053226Y-86416948D01*
X109137500Y-86465603D01*
X109185715Y-86516169D01*
X109199500Y-86572990D01*
X109199500Y-101578846D01*
X109230261Y-101733489D01*
X109230264Y-101733501D01*
X109290602Y-101879172D01*
X109290609Y-101879185D01*
X109378210Y-102010288D01*
X109378213Y-102010292D01*
X118489707Y-111121786D01*
X118489711Y-111121789D01*
X118620814Y-111209390D01*
X118620827Y-111209397D01*
X118766498Y-111269735D01*
X118766503Y-111269737D01*
X118921153Y-111300499D01*
X118921156Y-111300500D01*
X118921158Y-111300500D01*
X119078842Y-111300500D01*
X121480192Y-111300500D01*
X121547231Y-111320185D01*
X121592986Y-111372989D01*
X121602930Y-111442147D01*
X121573905Y-111505703D01*
X121567873Y-111512181D01*
X119397068Y-113682984D01*
X119335745Y-113716469D01*
X119333579Y-113716920D01*
X119266508Y-113730261D01*
X119266498Y-113730264D01*
X119120827Y-113790602D01*
X119120814Y-113790609D01*
X118989711Y-113878210D01*
X118989707Y-113878213D01*
X118878213Y-113989707D01*
X118878210Y-113989711D01*
X118790609Y-114120814D01*
X118790602Y-114120827D01*
X118730264Y-114266498D01*
X118730261Y-114266510D01*
X118699500Y-114421153D01*
X118699500Y-114578846D01*
X118730261Y-114733489D01*
X118730264Y-114733501D01*
X118790602Y-114879172D01*
X118790609Y-114879185D01*
X118878210Y-115010288D01*
X118878213Y-115010292D01*
X118989707Y-115121786D01*
X118989711Y-115121789D01*
X119120814Y-115209390D01*
X119120827Y-115209397D01*
X119261732Y-115267761D01*
X119266503Y-115269737D01*
X119418644Y-115300000D01*
X119421153Y-115300499D01*
X119421156Y-115300500D01*
X119421158Y-115300500D01*
X119578844Y-115300500D01*
X119578845Y-115300499D01*
X119733497Y-115269737D01*
X119879179Y-115209394D01*
X120010289Y-115121789D01*
X120121789Y-115010289D01*
X120209394Y-114879179D01*
X120269737Y-114733497D01*
X120283079Y-114666416D01*
X120315463Y-114604509D01*
X120316958Y-114602986D01*
X122488960Y-112430986D01*
X122550283Y-112397501D01*
X122576641Y-112394667D01*
X123750898Y-112394667D01*
X123817937Y-112414352D01*
X123819742Y-112415533D01*
X123876654Y-112453561D01*
X123876656Y-112453562D01*
X123876660Y-112453564D01*
X124022331Y-112513902D01*
X124022336Y-112513904D01*
X124176986Y-112544666D01*
X124176989Y-112544667D01*
X124176991Y-112544667D01*
X124334677Y-112544667D01*
X124334678Y-112544666D01*
X124489330Y-112513904D01*
X124635012Y-112453561D01*
X124766122Y-112365956D01*
X124877622Y-112254456D01*
X124965227Y-112123346D01*
X125025570Y-111977664D01*
X125056333Y-111823009D01*
X125056333Y-111665325D01*
X125056333Y-111665322D01*
X125056332Y-111665320D01*
X125036986Y-111568062D01*
X125025570Y-111510670D01*
X125009533Y-111471952D01*
X125006025Y-111439326D01*
X125001356Y-111406853D01*
X125002309Y-111404765D01*
X125002064Y-111402483D01*
X125016747Y-111373150D01*
X125030381Y-111343297D01*
X125032313Y-111342055D01*
X125033340Y-111340004D01*
X125061542Y-111323270D01*
X125089159Y-111305523D01*
X125092189Y-111305087D01*
X125093429Y-111304352D01*
X125124094Y-111300500D01*
X125197356Y-111300500D01*
X125264395Y-111320185D01*
X125310150Y-111372989D01*
X125320714Y-111411897D01*
X125330000Y-111502795D01*
X125330001Y-111502798D01*
X125385186Y-111669335D01*
X125477288Y-111818656D01*
X125601344Y-111942712D01*
X125750665Y-112034814D01*
X125917202Y-112089999D01*
X126019990Y-112100500D01*
X126717692Y-112100500D01*
X126784731Y-112120185D01*
X126830486Y-112172989D01*
X126840430Y-112242147D01*
X126811405Y-112305703D01*
X126805373Y-112312181D01*
X123897068Y-115220484D01*
X123835745Y-115253969D01*
X123833579Y-115254420D01*
X123766508Y-115267761D01*
X123766498Y-115267764D01*
X123620827Y-115328102D01*
X123620814Y-115328109D01*
X123489711Y-115415710D01*
X123489707Y-115415713D01*
X123378213Y-115527207D01*
X123378210Y-115527211D01*
X123290609Y-115658314D01*
X123290602Y-115658327D01*
X123230264Y-115803998D01*
X123230261Y-115804010D01*
X123199500Y-115958653D01*
X123199500Y-116116346D01*
X123230261Y-116270989D01*
X123230264Y-116271001D01*
X123290602Y-116416672D01*
X123290609Y-116416685D01*
X123378210Y-116547788D01*
X123378213Y-116547792D01*
X123489707Y-116659286D01*
X123489711Y-116659289D01*
X123620814Y-116746890D01*
X123620827Y-116746897D01*
X123766498Y-116807235D01*
X123766503Y-116807237D01*
X123921153Y-116837999D01*
X123921156Y-116838000D01*
X123921158Y-116838000D01*
X124078844Y-116838000D01*
X124078845Y-116837999D01*
X124233497Y-116807237D01*
X124379179Y-116746894D01*
X124510289Y-116659289D01*
X124621789Y-116547789D01*
X124709394Y-116416679D01*
X124769737Y-116270997D01*
X124783079Y-116203916D01*
X124815463Y-116142009D01*
X124816959Y-116140485D01*
X128637821Y-112319624D01*
X128699142Y-112286141D01*
X128768834Y-112291125D01*
X128824767Y-112332997D01*
X128849184Y-112398461D01*
X128849500Y-112407307D01*
X128849500Y-115150621D01*
X128829815Y-115217660D01*
X128777011Y-115263415D01*
X128772069Y-115265285D01*
X128772130Y-115265432D01*
X128620827Y-115328102D01*
X128620814Y-115328109D01*
X128489711Y-115415710D01*
X128489707Y-115415713D01*
X128378213Y-115527207D01*
X128378210Y-115527211D01*
X128290609Y-115658314D01*
X128290602Y-115658327D01*
X128230264Y-115803998D01*
X128230261Y-115804010D01*
X128199500Y-115958653D01*
X128199500Y-116116346D01*
X128230261Y-116270989D01*
X128230264Y-116271001D01*
X128290602Y-116416672D01*
X128290609Y-116416685D01*
X128378210Y-116547788D01*
X128378213Y-116547792D01*
X128489707Y-116659286D01*
X128489711Y-116659289D01*
X128620814Y-116746890D01*
X128620827Y-116746897D01*
X128766498Y-116807235D01*
X128766503Y-116807237D01*
X128921153Y-116837999D01*
X128921156Y-116838000D01*
X128921158Y-116838000D01*
X129078844Y-116838000D01*
X129078845Y-116837999D01*
X129233497Y-116807237D01*
X129379179Y-116746894D01*
X129510289Y-116659289D01*
X129621789Y-116547789D01*
X129709394Y-116416679D01*
X129769737Y-116270997D01*
X129783079Y-116203916D01*
X129815463Y-116142009D01*
X129816901Y-116140543D01*
X130005277Y-115952169D01*
X130076465Y-115845627D01*
X130125501Y-115727243D01*
X130150500Y-115601569D01*
X130150500Y-115473431D01*
X130150500Y-113869808D01*
X130170185Y-113802769D01*
X130222989Y-113757014D01*
X130292147Y-113747070D01*
X130355703Y-113776095D01*
X130362181Y-113782127D01*
X133122825Y-116542772D01*
X133122826Y-116542773D01*
X133122829Y-116542775D01*
X133122831Y-116542777D01*
X133229373Y-116613965D01*
X133347756Y-116663001D01*
X133347760Y-116663001D01*
X133347761Y-116663002D01*
X133473428Y-116688000D01*
X133473431Y-116688000D01*
X133495065Y-116688000D01*
X133562104Y-116707685D01*
X133563909Y-116708866D01*
X133620821Y-116746894D01*
X133620823Y-116746895D01*
X133620827Y-116746897D01*
X133766498Y-116807235D01*
X133766503Y-116807237D01*
X133921153Y-116837999D01*
X133921156Y-116838000D01*
X133921158Y-116838000D01*
X134078844Y-116838000D01*
X134078845Y-116837999D01*
X134233497Y-116807237D01*
X134379179Y-116746894D01*
X134510289Y-116659289D01*
X134621789Y-116547789D01*
X134709394Y-116416679D01*
X134769737Y-116270997D01*
X134800500Y-116116342D01*
X134800500Y-115958658D01*
X134800500Y-115958655D01*
X134800499Y-115958653D01*
X134778017Y-115845630D01*
X134769737Y-115804003D01*
X134769735Y-115803998D01*
X134709397Y-115658327D01*
X134709390Y-115658314D01*
X134621789Y-115527211D01*
X134621786Y-115527207D01*
X134510292Y-115415713D01*
X134510288Y-115415710D01*
X134379185Y-115328109D01*
X134379172Y-115328102D01*
X134233501Y-115267764D01*
X134233489Y-115267761D01*
X134078845Y-115237000D01*
X134078842Y-115237000D01*
X133921158Y-115237000D01*
X133921153Y-115237000D01*
X133765786Y-115267904D01*
X133696194Y-115261677D01*
X133653914Y-115233968D01*
X131186819Y-112766873D01*
X131153334Y-112705550D01*
X131150500Y-112679192D01*
X131150500Y-111897756D01*
X131156435Y-111877540D01*
X131157564Y-111856501D01*
X131166082Y-111844688D01*
X131170185Y-111830717D01*
X131186105Y-111816921D01*
X131198431Y-111799830D01*
X131211984Y-111794497D01*
X131222989Y-111784962D01*
X131243841Y-111781963D01*
X131263450Y-111774249D01*
X131288246Y-111775578D01*
X131292147Y-111775018D01*
X131298663Y-111776133D01*
X131333580Y-111783079D01*
X131395491Y-111815465D01*
X131397068Y-111817015D01*
X136085325Y-116505272D01*
X136085332Y-116505278D01*
X136141450Y-116542774D01*
X136141452Y-116542775D01*
X136141455Y-116542777D01*
X136191873Y-116576465D01*
X136310256Y-116625501D01*
X136310260Y-116625501D01*
X136310261Y-116625502D01*
X136435928Y-116650500D01*
X136435931Y-116650500D01*
X138438942Y-116650500D01*
X138505981Y-116670185D01*
X138507833Y-116671398D01*
X138620814Y-116746890D01*
X138620827Y-116746897D01*
X138766498Y-116807235D01*
X138766503Y-116807237D01*
X138921153Y-116837999D01*
X138921156Y-116838000D01*
X138921158Y-116838000D01*
X139078844Y-116838000D01*
X139078845Y-116837999D01*
X139233497Y-116807237D01*
X139379179Y-116746894D01*
X139387421Y-116741387D01*
X139515354Y-116655905D01*
X139516380Y-116657441D01*
X139522040Y-116655035D01*
X139533003Y-116645086D01*
X139553551Y-116641646D01*
X139572724Y-116633500D01*
X139588500Y-116635797D01*
X139601914Y-116633552D01*
X139626675Y-116641355D01*
X139635999Y-116642713D01*
X139643868Y-116646089D01*
X139646230Y-116647668D01*
X139683248Y-116663001D01*
X139764612Y-116696703D01*
X139764616Y-116696703D01*
X139764617Y-116696704D01*
X139890284Y-116721702D01*
X139890287Y-116721702D01*
X140018425Y-116721702D01*
X143423863Y-116721702D01*
X143490902Y-116741387D01*
X143492707Y-116742568D01*
X143549619Y-116780596D01*
X143549621Y-116780597D01*
X143549625Y-116780599D01*
X143695296Y-116840937D01*
X143695301Y-116840939D01*
X143849951Y-116871701D01*
X143849954Y-116871702D01*
X143849956Y-116871702D01*
X144007642Y-116871702D01*
X144007643Y-116871701D01*
X144162295Y-116840939D01*
X144307977Y-116780596D01*
X144307982Y-116780592D01*
X144307985Y-116780591D01*
X144358411Y-116746897D01*
X144420889Y-116705150D01*
X144487564Y-116684272D01*
X144554945Y-116702756D01*
X144577460Y-116720571D01*
X145483675Y-117626786D01*
X145483679Y-117626789D01*
X145614782Y-117714390D01*
X145614786Y-117714392D01*
X145614789Y-117714394D01*
X145760471Y-117774738D01*
X145915121Y-117805499D01*
X145915125Y-117805500D01*
X145915126Y-117805500D01*
X167312766Y-117805500D01*
X167312767Y-117805499D01*
X167467419Y-117774737D01*
X167613101Y-117714394D01*
X167744211Y-117626789D01*
X170090286Y-115280712D01*
X170090289Y-115280711D01*
X170201789Y-115169211D01*
X170289394Y-115038101D01*
X170349737Y-114892419D01*
X170380500Y-114737764D01*
X170380500Y-112875441D01*
X172099500Y-112875441D01*
X172099500Y-113124558D01*
X172099501Y-113124575D01*
X172132017Y-113371561D01*
X172196498Y-113612207D01*
X172291830Y-113842361D01*
X172291837Y-113842376D01*
X172416400Y-114058126D01*
X172568060Y-114255774D01*
X172568066Y-114255781D01*
X172744218Y-114431933D01*
X172744225Y-114431939D01*
X172941873Y-114583599D01*
X173157623Y-114708162D01*
X173157638Y-114708169D01*
X173229092Y-114737766D01*
X173387793Y-114803502D01*
X173628435Y-114867982D01*
X173875435Y-114900500D01*
X173875442Y-114900500D01*
X174124558Y-114900500D01*
X174124565Y-114900500D01*
X174371565Y-114867982D01*
X174612207Y-114803502D01*
X174842373Y-114708164D01*
X175058127Y-114583599D01*
X175255776Y-114431938D01*
X175431938Y-114255776D01*
X175583599Y-114058127D01*
X175708164Y-113842373D01*
X175803502Y-113612207D01*
X175867982Y-113371565D01*
X175900500Y-113124565D01*
X175900500Y-112875435D01*
X175867982Y-112628435D01*
X175803502Y-112387793D01*
X175748272Y-112254455D01*
X175708169Y-112157638D01*
X175708162Y-112157623D01*
X175583599Y-111941873D01*
X175431939Y-111744225D01*
X175431933Y-111744218D01*
X175255781Y-111568066D01*
X175255774Y-111568060D01*
X175058126Y-111416400D01*
X174842376Y-111291837D01*
X174842361Y-111291830D01*
X174612207Y-111196498D01*
X174371561Y-111132017D01*
X174124575Y-111099501D01*
X174124570Y-111099500D01*
X174124565Y-111099500D01*
X173875435Y-111099500D01*
X173875429Y-111099500D01*
X173875424Y-111099501D01*
X173628438Y-111132017D01*
X173387792Y-111196498D01*
X173157638Y-111291830D01*
X173157623Y-111291837D01*
X172941873Y-111416400D01*
X172744225Y-111568060D01*
X172744218Y-111568066D01*
X172568066Y-111744218D01*
X172568060Y-111744225D01*
X172416400Y-111941873D01*
X172291837Y-112157623D01*
X172291830Y-112157638D01*
X172196498Y-112387792D01*
X172132017Y-112628438D01*
X172099501Y-112875424D01*
X172099500Y-112875441D01*
X170380500Y-112875441D01*
X170380500Y-107875441D01*
X172099500Y-107875441D01*
X172099500Y-108124558D01*
X172099501Y-108124575D01*
X172132017Y-108371561D01*
X172196498Y-108612207D01*
X172291830Y-108842361D01*
X172291837Y-108842376D01*
X172416400Y-109058126D01*
X172568060Y-109255774D01*
X172568066Y-109255781D01*
X172744218Y-109431933D01*
X172744225Y-109431939D01*
X172941873Y-109583599D01*
X173157623Y-109708162D01*
X173157638Y-109708169D01*
X173210981Y-109730264D01*
X173387793Y-109803502D01*
X173628435Y-109867982D01*
X173875435Y-109900500D01*
X173875442Y-109900500D01*
X174124558Y-109900500D01*
X174124565Y-109900500D01*
X174371565Y-109867982D01*
X174612207Y-109803502D01*
X174842373Y-109708164D01*
X175058127Y-109583599D01*
X175255776Y-109431938D01*
X175431938Y-109255776D01*
X175583599Y-109058127D01*
X175708164Y-108842373D01*
X175803502Y-108612207D01*
X175867982Y-108371565D01*
X175900500Y-108124565D01*
X175900500Y-107875435D01*
X175867982Y-107628435D01*
X175803502Y-107387793D01*
X175749253Y-107256825D01*
X175708169Y-107157638D01*
X175708162Y-107157623D01*
X175583599Y-106941873D01*
X175431939Y-106744225D01*
X175431933Y-106744218D01*
X175255781Y-106568066D01*
X175255774Y-106568060D01*
X175058126Y-106416400D01*
X174842376Y-106291837D01*
X174842361Y-106291830D01*
X174612207Y-106196498D01*
X174371561Y-106132017D01*
X174124575Y-106099501D01*
X174124570Y-106099500D01*
X174124565Y-106099500D01*
X173875435Y-106099500D01*
X173875429Y-106099500D01*
X173875424Y-106099501D01*
X173628438Y-106132017D01*
X173387792Y-106196498D01*
X173157638Y-106291830D01*
X173157623Y-106291837D01*
X172941873Y-106416400D01*
X172744225Y-106568060D01*
X172744218Y-106568066D01*
X172568066Y-106744218D01*
X172568060Y-106744225D01*
X172416400Y-106941873D01*
X172291837Y-107157623D01*
X172291830Y-107157638D01*
X172196498Y-107387792D01*
X172132017Y-107628438D01*
X172099501Y-107875424D01*
X172099500Y-107875441D01*
X170380500Y-107875441D01*
X170380500Y-102875441D01*
X172099500Y-102875441D01*
X172099500Y-103124558D01*
X172099501Y-103124575D01*
X172129972Y-103356030D01*
X172132018Y-103371565D01*
X172169189Y-103510288D01*
X172196498Y-103612207D01*
X172291830Y-103842361D01*
X172291837Y-103842376D01*
X172416400Y-104058126D01*
X172568060Y-104255774D01*
X172568066Y-104255781D01*
X172744218Y-104431933D01*
X172744225Y-104431939D01*
X172941873Y-104583599D01*
X173157623Y-104708162D01*
X173157638Y-104708169D01*
X173253867Y-104748028D01*
X173387793Y-104803502D01*
X173628435Y-104867982D01*
X173875435Y-104900500D01*
X173875442Y-104900500D01*
X174124558Y-104900500D01*
X174124565Y-104900500D01*
X174371565Y-104867982D01*
X174612207Y-104803502D01*
X174842373Y-104708164D01*
X175058127Y-104583599D01*
X175255776Y-104431938D01*
X175431938Y-104255776D01*
X175583599Y-104058127D01*
X175708164Y-103842373D01*
X175803502Y-103612207D01*
X175867982Y-103371565D01*
X175900500Y-103124565D01*
X175900500Y-102875435D01*
X175867982Y-102628435D01*
X175803502Y-102387793D01*
X175733799Y-102219516D01*
X175708169Y-102157638D01*
X175708162Y-102157623D01*
X175583599Y-101941873D01*
X175431939Y-101744225D01*
X175431933Y-101744218D01*
X175255781Y-101568066D01*
X175255774Y-101568060D01*
X175058126Y-101416400D01*
X174842376Y-101291837D01*
X174842361Y-101291830D01*
X174612207Y-101196498D01*
X174499458Y-101166287D01*
X174371565Y-101132018D01*
X174371564Y-101132017D01*
X174371561Y-101132017D01*
X174124575Y-101099501D01*
X174124570Y-101099500D01*
X174124565Y-101099500D01*
X173875435Y-101099500D01*
X173875429Y-101099500D01*
X173875424Y-101099501D01*
X173628438Y-101132017D01*
X173387792Y-101196498D01*
X173157638Y-101291830D01*
X173157623Y-101291837D01*
X172941873Y-101416400D01*
X172744225Y-101568060D01*
X172744218Y-101568066D01*
X172568066Y-101744218D01*
X172568060Y-101744225D01*
X172416400Y-101941873D01*
X172291837Y-102157623D01*
X172291830Y-102157638D01*
X172196498Y-102387792D01*
X172132017Y-102628438D01*
X172099501Y-102875424D01*
X172099500Y-102875441D01*
X170380500Y-102875441D01*
X170380500Y-97875441D01*
X172099500Y-97875441D01*
X172099500Y-98124558D01*
X172099501Y-98124575D01*
X172132017Y-98371561D01*
X172196498Y-98612207D01*
X172291830Y-98842361D01*
X172291837Y-98842376D01*
X172416400Y-99058126D01*
X172568060Y-99255774D01*
X172568066Y-99255781D01*
X172744218Y-99431933D01*
X172744225Y-99431939D01*
X172941873Y-99583599D01*
X173157623Y-99708162D01*
X173157638Y-99708169D01*
X173256825Y-99749253D01*
X173387793Y-99803502D01*
X173628435Y-99867982D01*
X173875435Y-99900500D01*
X173875442Y-99900500D01*
X174124558Y-99900500D01*
X174124565Y-99900500D01*
X174371565Y-99867982D01*
X174612207Y-99803502D01*
X174842373Y-99708164D01*
X175058127Y-99583599D01*
X175255776Y-99431938D01*
X175431938Y-99255776D01*
X175583599Y-99058127D01*
X175708164Y-98842373D01*
X175803502Y-98612207D01*
X175867982Y-98371565D01*
X175900500Y-98124565D01*
X175900500Y-97875435D01*
X175867982Y-97628435D01*
X175803502Y-97387793D01*
X175742775Y-97241185D01*
X175708169Y-97157638D01*
X175708162Y-97157623D01*
X175583599Y-96941873D01*
X175431939Y-96744225D01*
X175431933Y-96744218D01*
X175255781Y-96568066D01*
X175255774Y-96568060D01*
X175058126Y-96416400D01*
X174842376Y-96291837D01*
X174842361Y-96291830D01*
X174612207Y-96196498D01*
X174470501Y-96158528D01*
X174371565Y-96132018D01*
X174371564Y-96132017D01*
X174371561Y-96132017D01*
X174124575Y-96099501D01*
X174124570Y-96099500D01*
X174124565Y-96099500D01*
X173875435Y-96099500D01*
X173875429Y-96099500D01*
X173875424Y-96099501D01*
X173628438Y-96132017D01*
X173387792Y-96196498D01*
X173157638Y-96291830D01*
X173157623Y-96291837D01*
X172941873Y-96416400D01*
X172744225Y-96568060D01*
X172744218Y-96568066D01*
X172568066Y-96744218D01*
X172568060Y-96744225D01*
X172416400Y-96941873D01*
X172291837Y-97157623D01*
X172291830Y-97157638D01*
X172196498Y-97387792D01*
X172132017Y-97628438D01*
X172099501Y-97875424D01*
X172099500Y-97875441D01*
X170380500Y-97875441D01*
X170380500Y-92875441D01*
X172099500Y-92875441D01*
X172099500Y-93124558D01*
X172099501Y-93124575D01*
X172127034Y-93333713D01*
X172132018Y-93371565D01*
X172157399Y-93466287D01*
X172196498Y-93612207D01*
X172291830Y-93842361D01*
X172291837Y-93842376D01*
X172416400Y-94058126D01*
X172568060Y-94255774D01*
X172568066Y-94255781D01*
X172744218Y-94431933D01*
X172744225Y-94431939D01*
X172941873Y-94583599D01*
X173157623Y-94708162D01*
X173157638Y-94708169D01*
X173256825Y-94749253D01*
X173387793Y-94803502D01*
X173628435Y-94867982D01*
X173875435Y-94900500D01*
X173875442Y-94900500D01*
X174124558Y-94900500D01*
X174124565Y-94900500D01*
X174371565Y-94867982D01*
X174612207Y-94803502D01*
X174842373Y-94708164D01*
X175058127Y-94583599D01*
X175255776Y-94431938D01*
X175431938Y-94255776D01*
X175583599Y-94058127D01*
X175708164Y-93842373D01*
X175803502Y-93612207D01*
X175867982Y-93371565D01*
X175900500Y-93124565D01*
X175900500Y-92875435D01*
X175867982Y-92628435D01*
X175803502Y-92387793D01*
X175727766Y-92204951D01*
X175708169Y-92157638D01*
X175708162Y-92157623D01*
X175583599Y-91941873D01*
X175431939Y-91744225D01*
X175431933Y-91744218D01*
X175255781Y-91568066D01*
X175255774Y-91568060D01*
X175058126Y-91416400D01*
X174842376Y-91291837D01*
X174842361Y-91291830D01*
X174612207Y-91196498D01*
X174371561Y-91132017D01*
X174124575Y-91099501D01*
X174124570Y-91099500D01*
X174124565Y-91099500D01*
X173875435Y-91099500D01*
X173875429Y-91099500D01*
X173875424Y-91099501D01*
X173628438Y-91132017D01*
X173387792Y-91196498D01*
X173157638Y-91291830D01*
X173157623Y-91291837D01*
X172941873Y-91416400D01*
X172744225Y-91568060D01*
X172744218Y-91568066D01*
X172568066Y-91744218D01*
X172568060Y-91744225D01*
X172416400Y-91941873D01*
X172291837Y-92157623D01*
X172291830Y-92157638D01*
X172196498Y-92387792D01*
X172132017Y-92628438D01*
X172099501Y-92875424D01*
X172099500Y-92875441D01*
X170380500Y-92875441D01*
X170380500Y-91926158D01*
X170380500Y-91926155D01*
X170380499Y-91926153D01*
X170365372Y-91850104D01*
X170349737Y-91771503D01*
X170349735Y-91771498D01*
X170289397Y-91625827D01*
X170289390Y-91625814D01*
X170201789Y-91494711D01*
X170201786Y-91494707D01*
X170085970Y-91378891D01*
X170085947Y-91378870D01*
X166666136Y-87959057D01*
X166582520Y-87875441D01*
X172099500Y-87875441D01*
X172099500Y-88124558D01*
X172099501Y-88124575D01*
X172128854Y-88347538D01*
X172132018Y-88371565D01*
X172135963Y-88386287D01*
X172196498Y-88612207D01*
X172291830Y-88842361D01*
X172291837Y-88842376D01*
X172416400Y-89058126D01*
X172568060Y-89255774D01*
X172568066Y-89255781D01*
X172744218Y-89431933D01*
X172744225Y-89431939D01*
X172941873Y-89583599D01*
X173157623Y-89708162D01*
X173157638Y-89708169D01*
X173256825Y-89749253D01*
X173387793Y-89803502D01*
X173628435Y-89867982D01*
X173875435Y-89900500D01*
X173875442Y-89900500D01*
X174124558Y-89900500D01*
X174124565Y-89900500D01*
X174371565Y-89867982D01*
X174612207Y-89803502D01*
X174842373Y-89708164D01*
X175058127Y-89583599D01*
X175255776Y-89431938D01*
X175431938Y-89255776D01*
X175583599Y-89058127D01*
X175708164Y-88842373D01*
X175803502Y-88612207D01*
X175867982Y-88371565D01*
X175900500Y-88124565D01*
X175900500Y-87875435D01*
X175867982Y-87628435D01*
X175803502Y-87387793D01*
X175734621Y-87221500D01*
X175708169Y-87157638D01*
X175708162Y-87157623D01*
X175583599Y-86941873D01*
X175431939Y-86744225D01*
X175431933Y-86744218D01*
X175255781Y-86568066D01*
X175255774Y-86568060D01*
X175058126Y-86416400D01*
X174842376Y-86291837D01*
X174842361Y-86291830D01*
X174612207Y-86196498D01*
X174371561Y-86132017D01*
X174124575Y-86099501D01*
X174124570Y-86099500D01*
X174124565Y-86099500D01*
X173875435Y-86099500D01*
X173875429Y-86099500D01*
X173875424Y-86099501D01*
X173628438Y-86132017D01*
X173387792Y-86196498D01*
X173157638Y-86291830D01*
X173157623Y-86291837D01*
X172941873Y-86416400D01*
X172744225Y-86568060D01*
X172744218Y-86568066D01*
X172568066Y-86744218D01*
X172568060Y-86744225D01*
X172416400Y-86941873D01*
X172291837Y-87157623D01*
X172291830Y-87157638D01*
X172196498Y-87387792D01*
X172132017Y-87628438D01*
X172099501Y-87875424D01*
X172099500Y-87875441D01*
X166582520Y-87875441D01*
X166085292Y-87378213D01*
X166085288Y-87378210D01*
X165954185Y-87290609D01*
X165954172Y-87290602D01*
X165808501Y-87230264D01*
X165808489Y-87230261D01*
X165653845Y-87199500D01*
X165653842Y-87199500D01*
X165496158Y-87199500D01*
X165496155Y-87199500D01*
X165341510Y-87230261D01*
X165341498Y-87230264D01*
X165195827Y-87290602D01*
X165195814Y-87290609D01*
X165064711Y-87378210D01*
X165064707Y-87378213D01*
X165064181Y-87378740D01*
X165063837Y-87378927D01*
X165060001Y-87382076D01*
X165059403Y-87381348D01*
X165002858Y-87412225D01*
X164933166Y-87407241D01*
X164877233Y-87365369D01*
X164852816Y-87299905D01*
X164852500Y-87291059D01*
X164852500Y-83708941D01*
X164872185Y-83641902D01*
X164924989Y-83596147D01*
X164994147Y-83586203D01*
X165057703Y-83615228D01*
X165064181Y-83621260D01*
X165064707Y-83621786D01*
X165064711Y-83621789D01*
X165195814Y-83709390D01*
X165195827Y-83709397D01*
X165295060Y-83750500D01*
X165341503Y-83769737D01*
X165485661Y-83798412D01*
X165496153Y-83800499D01*
X165496156Y-83800500D01*
X165496158Y-83800500D01*
X165653844Y-83800500D01*
X165653845Y-83800499D01*
X165808497Y-83769737D01*
X165932403Y-83718414D01*
X165954172Y-83709397D01*
X165954172Y-83709396D01*
X165954179Y-83709394D01*
X166085289Y-83621789D01*
X166196789Y-83510289D01*
X166284394Y-83379179D01*
X166287550Y-83371561D01*
X166344735Y-83233501D01*
X166344737Y-83233497D01*
X166375500Y-83078842D01*
X166375500Y-82921158D01*
X166375500Y-82921155D01*
X166370410Y-82895568D01*
X166370410Y-82895567D01*
X166366407Y-82875441D01*
X172099500Y-82875441D01*
X172099500Y-83124558D01*
X172099501Y-83124575D01*
X172128854Y-83347538D01*
X172132018Y-83371565D01*
X172158821Y-83471595D01*
X172196498Y-83612207D01*
X172291830Y-83842361D01*
X172291837Y-83842376D01*
X172416400Y-84058126D01*
X172568060Y-84255774D01*
X172568066Y-84255781D01*
X172744218Y-84431933D01*
X172744225Y-84431939D01*
X172941873Y-84583599D01*
X173157623Y-84708162D01*
X173157638Y-84708169D01*
X173230589Y-84738386D01*
X173387793Y-84803502D01*
X173628435Y-84867982D01*
X173875435Y-84900500D01*
X173875442Y-84900500D01*
X174124558Y-84900500D01*
X174124565Y-84900500D01*
X174371565Y-84867982D01*
X174612207Y-84803502D01*
X174842373Y-84708164D01*
X175058127Y-84583599D01*
X175255776Y-84431938D01*
X175431938Y-84255776D01*
X175583599Y-84058127D01*
X175708164Y-83842373D01*
X175803502Y-83612207D01*
X175867982Y-83371565D01*
X175900500Y-83124565D01*
X175900500Y-82875435D01*
X175867982Y-82628435D01*
X175803502Y-82387793D01*
X175738250Y-82230261D01*
X175708169Y-82157638D01*
X175708162Y-82157623D01*
X175583599Y-81941873D01*
X175431939Y-81744225D01*
X175431933Y-81744218D01*
X175255781Y-81568066D01*
X175255774Y-81568060D01*
X175058126Y-81416400D01*
X174842376Y-81291837D01*
X174842361Y-81291830D01*
X174612207Y-81196498D01*
X174371561Y-81132017D01*
X174124575Y-81099501D01*
X174124570Y-81099500D01*
X174124565Y-81099500D01*
X173875435Y-81099500D01*
X173875429Y-81099500D01*
X173875424Y-81099501D01*
X173628438Y-81132017D01*
X173387792Y-81196498D01*
X173157638Y-81291830D01*
X173157623Y-81291837D01*
X172941873Y-81416400D01*
X172744225Y-81568060D01*
X172744218Y-81568066D01*
X172568066Y-81744218D01*
X172568060Y-81744225D01*
X172416400Y-81941873D01*
X172291837Y-82157623D01*
X172291830Y-82157638D01*
X172196498Y-82387792D01*
X172132017Y-82628438D01*
X172099501Y-82875424D01*
X172099500Y-82875441D01*
X166366407Y-82875441D01*
X166344738Y-82766510D01*
X166344737Y-82766503D01*
X166342700Y-82761585D01*
X166284397Y-82620827D01*
X166284390Y-82620814D01*
X166196789Y-82489711D01*
X166196786Y-82489707D01*
X166085292Y-82378213D01*
X166085288Y-82378210D01*
X165954185Y-82290609D01*
X165954172Y-82290602D01*
X165808501Y-82230264D01*
X165808489Y-82230261D01*
X165653845Y-82199500D01*
X165653842Y-82199500D01*
X165496158Y-82199500D01*
X165496155Y-82199500D01*
X165341510Y-82230261D01*
X165341498Y-82230264D01*
X165195827Y-82290602D01*
X165195814Y-82290609D01*
X165064711Y-82378210D01*
X165064707Y-82378213D01*
X165064181Y-82378740D01*
X165063837Y-82378927D01*
X165060001Y-82382076D01*
X165059403Y-82381348D01*
X165002858Y-82412225D01*
X164933166Y-82407241D01*
X164877233Y-82365369D01*
X164852816Y-82299905D01*
X164852500Y-82291059D01*
X164852500Y-78745012D01*
X164872185Y-78677973D01*
X164924989Y-78632218D01*
X164994147Y-78622274D01*
X165045394Y-78641912D01*
X165062586Y-78653400D01*
X165062597Y-78653406D01*
X165208268Y-78713744D01*
X165208273Y-78713746D01*
X165362923Y-78744508D01*
X165362926Y-78744509D01*
X165362928Y-78744509D01*
X165520614Y-78744509D01*
X165520615Y-78744508D01*
X165675267Y-78713746D01*
X165820949Y-78653403D01*
X165952059Y-78565798D01*
X166063559Y-78454298D01*
X166151164Y-78323188D01*
X166211507Y-78177506D01*
X166242270Y-78022851D01*
X166242270Y-77865167D01*
X166242270Y-77865164D01*
X166242269Y-77865162D01*
X166211508Y-77710519D01*
X166211507Y-77710512D01*
X166166390Y-77601588D01*
X166151167Y-77564836D01*
X166151160Y-77564823D01*
X166063559Y-77433720D01*
X166063556Y-77433716D01*
X165952062Y-77322222D01*
X165952058Y-77322219D01*
X165820955Y-77234618D01*
X165820942Y-77234611D01*
X165675271Y-77174273D01*
X165675259Y-77174270D01*
X165520615Y-77143509D01*
X165520612Y-77143509D01*
X165362928Y-77143509D01*
X165362925Y-77143509D01*
X165208280Y-77174270D01*
X165208268Y-77174273D01*
X165062597Y-77234611D01*
X165062584Y-77234618D01*
X165045391Y-77246107D01*
X164978713Y-77266985D01*
X164911333Y-77248500D01*
X164864643Y-77196522D01*
X164852500Y-77143005D01*
X164852500Y-76799984D01*
X172099500Y-76799984D01*
X172099500Y-79200015D01*
X172110000Y-79302795D01*
X172110001Y-79302796D01*
X172165186Y-79469335D01*
X172165187Y-79469337D01*
X172257286Y-79618651D01*
X172257289Y-79618655D01*
X172381344Y-79742710D01*
X172381348Y-79742713D01*
X172530662Y-79834812D01*
X172530664Y-79834813D01*
X172530666Y-79834814D01*
X172697203Y-79889999D01*
X172799992Y-79900500D01*
X172799997Y-79900500D01*
X175200003Y-79900500D01*
X175200008Y-79900500D01*
X175302797Y-79889999D01*
X175469334Y-79834814D01*
X175618655Y-79742711D01*
X175742711Y-79618655D01*
X175834814Y-79469334D01*
X175889999Y-79302797D01*
X175900500Y-79200008D01*
X175900500Y-76799992D01*
X175889999Y-76697203D01*
X175834814Y-76530666D01*
X175791094Y-76459786D01*
X175742713Y-76381348D01*
X175742710Y-76381344D01*
X175618655Y-76257289D01*
X175618651Y-76257286D01*
X175469337Y-76165187D01*
X175469335Y-76165186D01*
X175386065Y-76137593D01*
X175302797Y-76110001D01*
X175302795Y-76110000D01*
X175200015Y-76099500D01*
X175200008Y-76099500D01*
X172799992Y-76099500D01*
X172799984Y-76099500D01*
X172697204Y-76110000D01*
X172697203Y-76110001D01*
X172530664Y-76165186D01*
X172530662Y-76165187D01*
X172381348Y-76257286D01*
X172381344Y-76257289D01*
X172257289Y-76381344D01*
X172257286Y-76381348D01*
X172165187Y-76530662D01*
X172165186Y-76530664D01*
X172110001Y-76697203D01*
X172110000Y-76697204D01*
X172099500Y-76799984D01*
X164852500Y-76799984D01*
X164852500Y-67137928D01*
X164827502Y-67012261D01*
X164827501Y-67012260D01*
X164827501Y-67012256D01*
X164778465Y-66893873D01*
X164727265Y-66817246D01*
X164707276Y-66787330D01*
X164707273Y-66787327D01*
X164707271Y-66787324D01*
X163850657Y-65930711D01*
X163817172Y-65869388D01*
X163817689Y-65821245D01*
X163816484Y-65821055D01*
X163841795Y-65661245D01*
X163850500Y-65606287D01*
X163850500Y-65393713D01*
X163817246Y-65183757D01*
X163751557Y-64981588D01*
X163655051Y-64792184D01*
X163655049Y-64792181D01*
X163655048Y-64792179D01*
X163530109Y-64620213D01*
X163379786Y-64469890D01*
X163207817Y-64344949D01*
X163198504Y-64340204D01*
X163147707Y-64292230D01*
X163130912Y-64224409D01*
X163153449Y-64158274D01*
X163198507Y-64119232D01*
X163207555Y-64114622D01*
X163261716Y-64075270D01*
X163261717Y-64075270D01*
X162629408Y-63442962D01*
X162692993Y-63425925D01*
X162807007Y-63360099D01*
X162900099Y-63267007D01*
X162965925Y-63152993D01*
X162982962Y-63089408D01*
X163615270Y-63721717D01*
X163615270Y-63721716D01*
X163654622Y-63667554D01*
X163751095Y-63478217D01*
X163816757Y-63276130D01*
X163816757Y-63276127D01*
X163850000Y-63066246D01*
X163850000Y-62853753D01*
X163816757Y-62643872D01*
X163816757Y-62643869D01*
X163751095Y-62441782D01*
X163654624Y-62252449D01*
X163615270Y-62198282D01*
X163615269Y-62198282D01*
X162982962Y-62830590D01*
X162965925Y-62767007D01*
X162900099Y-62652993D01*
X162807007Y-62559901D01*
X162692993Y-62494075D01*
X162629409Y-62477037D01*
X163299627Y-61806818D01*
X163360950Y-61773333D01*
X163387307Y-61770499D01*
X163397872Y-61770499D01*
X163457483Y-61764091D01*
X163592331Y-61713796D01*
X163707546Y-61627546D01*
X163793796Y-61512331D01*
X163844091Y-61377483D01*
X163850500Y-61317873D01*
X163850499Y-59522128D01*
X163844091Y-59462517D01*
X163836486Y-59442128D01*
X163793797Y-59327671D01*
X163793793Y-59327664D01*
X163707547Y-59212455D01*
X163707273Y-59212181D01*
X163707087Y-59211840D01*
X163702232Y-59205355D01*
X163703164Y-59204656D01*
X163673788Y-59150858D01*
X163678772Y-59081166D01*
X163720644Y-59025233D01*
X163786108Y-59000816D01*
X163794954Y-59000500D01*
X179934108Y-59000500D01*
X179996249Y-59000500D01*
X180003736Y-59000726D01*
X180293796Y-59018271D01*
X180308657Y-59020075D01*
X180578356Y-59069500D01*
X180590798Y-59071780D01*
X180605335Y-59075363D01*
X180879172Y-59160695D01*
X180893168Y-59166003D01*
X181154736Y-59283726D01*
X181167994Y-59290683D01*
X181238898Y-59333545D01*
X181273945Y-59365260D01*
X182019225Y-60358967D01*
X182409520Y-60879360D01*
X182432289Y-60931409D01*
X182479923Y-61191341D01*
X182481728Y-61206205D01*
X182499274Y-61496263D01*
X182499500Y-61503750D01*
X182499500Y-133496249D01*
X182499274Y-133503736D01*
X182481728Y-133793794D01*
X182479923Y-133808659D01*
X182428219Y-134090798D01*
X182424635Y-134105336D01*
X182339306Y-134379167D01*
X182333997Y-134393168D01*
X182216275Y-134654736D01*
X182209316Y-134667995D01*
X182060928Y-134913459D01*
X182052422Y-134925782D01*
X181875526Y-135151573D01*
X181865596Y-135162781D01*
X181662781Y-135365596D01*
X181651573Y-135375526D01*
X181489644Y-135502388D01*
X181468625Y-135515686D01*
X180734789Y-135882604D01*
X180716226Y-135890080D01*
X180605334Y-135924636D01*
X180590794Y-135928220D01*
X180308658Y-135979923D01*
X180293794Y-135981728D01*
X180003736Y-135999274D01*
X179996249Y-135999500D01*
X98003751Y-135999500D01*
X97996264Y-135999274D01*
X97706205Y-135981728D01*
X97691340Y-135979923D01*
X97409201Y-135928219D01*
X97394663Y-135924635D01*
X97120832Y-135839306D01*
X97106831Y-135833997D01*
X96845263Y-135716275D01*
X96832004Y-135709316D01*
X96761102Y-135666454D01*
X96726054Y-135634739D01*
X95794876Y-134393168D01*
X95590479Y-134120638D01*
X95567710Y-134068590D01*
X95520076Y-133808659D01*
X95518271Y-133793794D01*
X95500726Y-133503736D01*
X95500500Y-133496249D01*
X95500500Y-125375466D01*
X117100000Y-125375466D01*
X117100000Y-125624533D01*
X117132508Y-125871463D01*
X117196973Y-126112049D01*
X117292283Y-126342148D01*
X117292288Y-126342159D01*
X117416813Y-126557841D01*
X117416819Y-126557849D01*
X117491400Y-126655045D01*
X118398958Y-125747487D01*
X118423978Y-125807890D01*
X118495112Y-125914351D01*
X118585649Y-126004888D01*
X118692110Y-126076022D01*
X118752511Y-126101041D01*
X117844953Y-127008598D01*
X117942150Y-127083180D01*
X117942158Y-127083186D01*
X118157840Y-127207711D01*
X118157851Y-127207716D01*
X118387950Y-127303026D01*
X118628536Y-127367491D01*
X118875466Y-127400000D01*
X119124534Y-127400000D01*
X119371463Y-127367491D01*
X119612049Y-127303026D01*
X119842148Y-127207716D01*
X119842159Y-127207711D01*
X120057855Y-127083178D01*
X120155045Y-127008600D01*
X120155045Y-127008597D01*
X119247488Y-126101041D01*
X119307890Y-126076022D01*
X119414351Y-126004888D01*
X119504888Y-125914351D01*
X119576022Y-125807890D01*
X119601041Y-125747489D01*
X120508597Y-126655045D01*
X120508600Y-126655045D01*
X120583178Y-126557855D01*
X120707711Y-126342159D01*
X120707716Y-126342148D01*
X120803026Y-126112049D01*
X120867491Y-125871463D01*
X120900000Y-125624533D01*
X120900000Y-125375466D01*
X120899997Y-125375441D01*
X122099500Y-125375441D01*
X122099500Y-125624558D01*
X122099501Y-125624575D01*
X122132017Y-125871561D01*
X122196498Y-126112207D01*
X122291830Y-126342361D01*
X122291837Y-126342376D01*
X122416400Y-126558126D01*
X122568060Y-126755774D01*
X122568066Y-126755781D01*
X122744218Y-126931933D01*
X122744225Y-126931939D01*
X122941873Y-127083599D01*
X123157623Y-127208162D01*
X123157638Y-127208169D01*
X123256825Y-127249253D01*
X123387793Y-127303502D01*
X123628435Y-127367982D01*
X123875435Y-127400500D01*
X123875442Y-127400500D01*
X124124558Y-127400500D01*
X124124565Y-127400500D01*
X124371565Y-127367982D01*
X124612207Y-127303502D01*
X124842373Y-127208164D01*
X125058127Y-127083599D01*
X125255776Y-126931938D01*
X125431938Y-126755776D01*
X125583599Y-126558127D01*
X125708164Y-126342373D01*
X125803502Y-126112207D01*
X125867982Y-125871565D01*
X125900500Y-125624565D01*
X125900500Y-125375441D01*
X127099500Y-125375441D01*
X127099500Y-125624558D01*
X127099501Y-125624575D01*
X127132017Y-125871561D01*
X127196498Y-126112207D01*
X127291830Y-126342361D01*
X127291837Y-126342376D01*
X127416400Y-126558126D01*
X127568060Y-126755774D01*
X127568066Y-126755781D01*
X127744218Y-126931933D01*
X127744225Y-126931939D01*
X127941873Y-127083599D01*
X128157623Y-127208162D01*
X128157638Y-127208169D01*
X128256825Y-127249253D01*
X128387793Y-127303502D01*
X128628435Y-127367982D01*
X128875435Y-127400500D01*
X128875442Y-127400500D01*
X129124558Y-127400500D01*
X129124565Y-127400500D01*
X129371565Y-127367982D01*
X129612207Y-127303502D01*
X129842373Y-127208164D01*
X130058127Y-127083599D01*
X130255776Y-126931938D01*
X130431938Y-126755776D01*
X130583599Y-126558127D01*
X130708164Y-126342373D01*
X130803502Y-126112207D01*
X130867982Y-125871565D01*
X130900500Y-125624565D01*
X130900500Y-125375441D01*
X132099500Y-125375441D01*
X132099500Y-125624558D01*
X132099501Y-125624575D01*
X132132017Y-125871561D01*
X132196498Y-126112207D01*
X132291830Y-126342361D01*
X132291837Y-126342376D01*
X132416400Y-126558126D01*
X132568060Y-126755774D01*
X132568066Y-126755781D01*
X132744218Y-126931933D01*
X132744225Y-126931939D01*
X132941873Y-127083599D01*
X133157623Y-127208162D01*
X133157638Y-127208169D01*
X133256825Y-127249253D01*
X133387793Y-127303502D01*
X133628435Y-127367982D01*
X133875435Y-127400500D01*
X133875442Y-127400500D01*
X134124558Y-127400500D01*
X134124565Y-127400500D01*
X134371565Y-127367982D01*
X134612207Y-127303502D01*
X134842373Y-127208164D01*
X135058127Y-127083599D01*
X135255776Y-126931938D01*
X135431938Y-126755776D01*
X135583599Y-126558127D01*
X135708164Y-126342373D01*
X135803502Y-126112207D01*
X135867982Y-125871565D01*
X135900500Y-125624565D01*
X135900500Y-125375441D01*
X137099500Y-125375441D01*
X137099500Y-125624558D01*
X137099501Y-125624575D01*
X137132017Y-125871561D01*
X137196498Y-126112207D01*
X137291830Y-126342361D01*
X137291837Y-126342376D01*
X137416400Y-126558126D01*
X137568060Y-126755774D01*
X137568066Y-126755781D01*
X137744218Y-126931933D01*
X137744225Y-126931939D01*
X137941873Y-127083599D01*
X138157623Y-127208162D01*
X138157638Y-127208169D01*
X138256825Y-127249253D01*
X138387793Y-127303502D01*
X138628435Y-127367982D01*
X138875435Y-127400500D01*
X138875442Y-127400500D01*
X139124558Y-127400500D01*
X139124565Y-127400500D01*
X139371565Y-127367982D01*
X139612207Y-127303502D01*
X139842373Y-127208164D01*
X140058127Y-127083599D01*
X140255776Y-126931938D01*
X140431938Y-126755776D01*
X140583599Y-126558127D01*
X140708164Y-126342373D01*
X140803502Y-126112207D01*
X140867982Y-125871565D01*
X140900500Y-125624565D01*
X140900500Y-125375441D01*
X142099500Y-125375441D01*
X142099500Y-125624558D01*
X142099501Y-125624575D01*
X142132017Y-125871561D01*
X142196498Y-126112207D01*
X142291830Y-126342361D01*
X142291837Y-126342376D01*
X142416400Y-126558126D01*
X142568060Y-126755774D01*
X142568066Y-126755781D01*
X142744218Y-126931933D01*
X142744225Y-126931939D01*
X142941873Y-127083599D01*
X143157623Y-127208162D01*
X143157638Y-127208169D01*
X143256825Y-127249253D01*
X143387793Y-127303502D01*
X143628435Y-127367982D01*
X143875435Y-127400500D01*
X143875442Y-127400500D01*
X144124558Y-127400500D01*
X144124565Y-127400500D01*
X144371565Y-127367982D01*
X144612207Y-127303502D01*
X144842373Y-127208164D01*
X145058127Y-127083599D01*
X145255776Y-126931938D01*
X145431938Y-126755776D01*
X145583599Y-126558127D01*
X145708164Y-126342373D01*
X145803502Y-126112207D01*
X145867982Y-125871565D01*
X145900500Y-125624565D01*
X145900500Y-125375441D01*
X147099500Y-125375441D01*
X147099500Y-125624558D01*
X147099501Y-125624575D01*
X147132017Y-125871561D01*
X147196498Y-126112207D01*
X147291830Y-126342361D01*
X147291837Y-126342376D01*
X147416400Y-126558126D01*
X147568060Y-126755774D01*
X147568066Y-126755781D01*
X147744218Y-126931933D01*
X147744225Y-126931939D01*
X147941873Y-127083599D01*
X148157623Y-127208162D01*
X148157638Y-127208169D01*
X148256825Y-127249253D01*
X148387793Y-127303502D01*
X148628435Y-127367982D01*
X148875435Y-127400500D01*
X148875442Y-127400500D01*
X149124558Y-127400500D01*
X149124565Y-127400500D01*
X149371565Y-127367982D01*
X149612207Y-127303502D01*
X149842373Y-127208164D01*
X150058127Y-127083599D01*
X150255776Y-126931938D01*
X150431938Y-126755776D01*
X150583599Y-126558127D01*
X150708164Y-126342373D01*
X150803502Y-126112207D01*
X150867982Y-125871565D01*
X150900500Y-125624565D01*
X150900500Y-125375441D01*
X152099500Y-125375441D01*
X152099500Y-125624558D01*
X152099501Y-125624575D01*
X152132017Y-125871561D01*
X152196498Y-126112207D01*
X152291830Y-126342361D01*
X152291837Y-126342376D01*
X152416400Y-126558126D01*
X152568060Y-126755774D01*
X152568066Y-126755781D01*
X152744218Y-126931933D01*
X152744225Y-126931939D01*
X152941873Y-127083599D01*
X153157623Y-127208162D01*
X153157638Y-127208169D01*
X153256825Y-127249253D01*
X153387793Y-127303502D01*
X153628435Y-127367982D01*
X153875435Y-127400500D01*
X153875442Y-127400500D01*
X154124558Y-127400500D01*
X154124565Y-127400500D01*
X154371565Y-127367982D01*
X154612207Y-127303502D01*
X154842373Y-127208164D01*
X155058127Y-127083599D01*
X155255776Y-126931938D01*
X155431938Y-126755776D01*
X155583599Y-126558127D01*
X155708164Y-126342373D01*
X155803502Y-126112207D01*
X155867982Y-125871565D01*
X155900500Y-125624565D01*
X155900500Y-125375435D01*
X155867982Y-125128435D01*
X155803502Y-124887793D01*
X155708257Y-124657851D01*
X155708169Y-124657638D01*
X155708162Y-124657623D01*
X155583599Y-124441873D01*
X155530230Y-124372321D01*
X155474724Y-124299984D01*
X157099500Y-124299984D01*
X157099500Y-126700015D01*
X157110000Y-126802795D01*
X157110001Y-126802796D01*
X157165186Y-126969335D01*
X157165187Y-126969337D01*
X157257286Y-127118651D01*
X157257289Y-127118655D01*
X157381344Y-127242710D01*
X157381348Y-127242713D01*
X157530662Y-127334812D01*
X157530664Y-127334813D01*
X157530666Y-127334814D01*
X157697203Y-127389999D01*
X157799992Y-127400500D01*
X157799997Y-127400500D01*
X160200003Y-127400500D01*
X160200008Y-127400500D01*
X160302797Y-127389999D01*
X160469334Y-127334814D01*
X160618655Y-127242711D01*
X160742711Y-127118655D01*
X160834814Y-126969334D01*
X160889999Y-126802797D01*
X160900500Y-126700008D01*
X160900500Y-124299992D01*
X160889999Y-124197203D01*
X160834814Y-124030666D01*
X160810594Y-123991400D01*
X160742713Y-123881348D01*
X160742710Y-123881344D01*
X160618655Y-123757289D01*
X160618651Y-123757286D01*
X160469337Y-123665187D01*
X160469335Y-123665186D01*
X160386065Y-123637593D01*
X160302797Y-123610001D01*
X160302795Y-123610000D01*
X160200015Y-123599500D01*
X160200008Y-123599500D01*
X157799992Y-123599500D01*
X157799984Y-123599500D01*
X157697204Y-123610000D01*
X157697203Y-123610001D01*
X157530664Y-123665186D01*
X157530662Y-123665187D01*
X157381348Y-123757286D01*
X157381344Y-123757289D01*
X157257289Y-123881344D01*
X157257286Y-123881348D01*
X157165187Y-124030662D01*
X157165186Y-124030664D01*
X157110001Y-124197203D01*
X157110000Y-124197204D01*
X157099500Y-124299984D01*
X155474724Y-124299984D01*
X155431939Y-124244225D01*
X155431933Y-124244218D01*
X155255781Y-124068066D01*
X155255774Y-124068060D01*
X155058126Y-123916400D01*
X154842376Y-123791837D01*
X154842361Y-123791830D01*
X154612207Y-123696498D01*
X154495349Y-123665186D01*
X154371565Y-123632018D01*
X154371564Y-123632017D01*
X154371561Y-123632017D01*
X154124575Y-123599501D01*
X154124570Y-123599500D01*
X154124565Y-123599500D01*
X153875435Y-123599500D01*
X153875429Y-123599500D01*
X153875424Y-123599501D01*
X153628438Y-123632017D01*
X153387792Y-123696498D01*
X153157638Y-123791830D01*
X153157623Y-123791837D01*
X152941873Y-123916400D01*
X152744225Y-124068060D01*
X152744218Y-124068066D01*
X152568066Y-124244218D01*
X152568060Y-124244225D01*
X152416400Y-124441873D01*
X152291837Y-124657623D01*
X152291830Y-124657638D01*
X152196498Y-124887792D01*
X152132017Y-125128438D01*
X152099501Y-125375424D01*
X152099500Y-125375441D01*
X150900500Y-125375441D01*
X150900500Y-125375435D01*
X150867982Y-125128435D01*
X150803502Y-124887793D01*
X150708257Y-124657851D01*
X150708169Y-124657638D01*
X150708162Y-124657623D01*
X150583599Y-124441873D01*
X150431939Y-124244225D01*
X150431933Y-124244218D01*
X150255781Y-124068066D01*
X150255774Y-124068060D01*
X150058126Y-123916400D01*
X149842376Y-123791837D01*
X149842361Y-123791830D01*
X149612207Y-123696498D01*
X149495349Y-123665186D01*
X149371565Y-123632018D01*
X149371564Y-123632017D01*
X149371561Y-123632017D01*
X149124575Y-123599501D01*
X149124570Y-123599500D01*
X149124565Y-123599500D01*
X148875435Y-123599500D01*
X148875429Y-123599500D01*
X148875424Y-123599501D01*
X148628438Y-123632017D01*
X148387792Y-123696498D01*
X148157638Y-123791830D01*
X148157623Y-123791837D01*
X147941873Y-123916400D01*
X147744225Y-124068060D01*
X147744218Y-124068066D01*
X147568066Y-124244218D01*
X147568060Y-124244225D01*
X147416400Y-124441873D01*
X147291837Y-124657623D01*
X147291830Y-124657638D01*
X147196498Y-124887792D01*
X147132017Y-125128438D01*
X147099501Y-125375424D01*
X147099500Y-125375441D01*
X145900500Y-125375441D01*
X145900500Y-125375435D01*
X145867982Y-125128435D01*
X145803502Y-124887793D01*
X145708257Y-124657851D01*
X145708169Y-124657638D01*
X145708162Y-124657623D01*
X145583599Y-124441873D01*
X145431939Y-124244225D01*
X145431933Y-124244218D01*
X145255781Y-124068066D01*
X145255774Y-124068060D01*
X145058126Y-123916400D01*
X144842376Y-123791837D01*
X144842361Y-123791830D01*
X144612207Y-123696498D01*
X144495349Y-123665186D01*
X144371565Y-123632018D01*
X144371564Y-123632017D01*
X144371561Y-123632017D01*
X144124575Y-123599501D01*
X144124570Y-123599500D01*
X144124565Y-123599500D01*
X143875435Y-123599500D01*
X143875429Y-123599500D01*
X143875424Y-123599501D01*
X143628438Y-123632017D01*
X143387792Y-123696498D01*
X143157638Y-123791830D01*
X143157623Y-123791837D01*
X142941873Y-123916400D01*
X142744225Y-124068060D01*
X142744218Y-124068066D01*
X142568066Y-124244218D01*
X142568060Y-124244225D01*
X142416400Y-124441873D01*
X142291837Y-124657623D01*
X142291830Y-124657638D01*
X142196498Y-124887792D01*
X142132017Y-125128438D01*
X142099501Y-125375424D01*
X142099500Y-125375441D01*
X140900500Y-125375441D01*
X140900500Y-125375435D01*
X140867982Y-125128435D01*
X140803502Y-124887793D01*
X140708257Y-124657851D01*
X140708169Y-124657638D01*
X140708162Y-124657623D01*
X140583599Y-124441873D01*
X140431939Y-124244225D01*
X140431933Y-124244218D01*
X140255781Y-124068066D01*
X140255774Y-124068060D01*
X140058126Y-123916400D01*
X139842376Y-123791837D01*
X139842361Y-123791830D01*
X139612207Y-123696498D01*
X139495349Y-123665186D01*
X139371565Y-123632018D01*
X139371564Y-123632017D01*
X139371561Y-123632017D01*
X139124575Y-123599501D01*
X139124570Y-123599500D01*
X139124565Y-123599500D01*
X138875435Y-123599500D01*
X138875429Y-123599500D01*
X138875424Y-123599501D01*
X138628438Y-123632017D01*
X138387792Y-123696498D01*
X138157638Y-123791830D01*
X138157623Y-123791837D01*
X137941873Y-123916400D01*
X137744225Y-124068060D01*
X137744218Y-124068066D01*
X137568066Y-124244218D01*
X137568060Y-124244225D01*
X137416400Y-124441873D01*
X137291837Y-124657623D01*
X137291830Y-124657638D01*
X137196498Y-124887792D01*
X137132017Y-125128438D01*
X137099501Y-125375424D01*
X137099500Y-125375441D01*
X135900500Y-125375441D01*
X135900500Y-125375435D01*
X135867982Y-125128435D01*
X135803502Y-124887793D01*
X135708257Y-124657851D01*
X135708169Y-124657638D01*
X135708162Y-124657623D01*
X135583599Y-124441873D01*
X135431939Y-124244225D01*
X135431933Y-124244218D01*
X135255781Y-124068066D01*
X135255774Y-124068060D01*
X135058126Y-123916400D01*
X134842376Y-123791837D01*
X134842361Y-123791830D01*
X134612207Y-123696498D01*
X134495349Y-123665186D01*
X134371565Y-123632018D01*
X134371564Y-123632017D01*
X134371561Y-123632017D01*
X134124575Y-123599501D01*
X134124570Y-123599500D01*
X134124565Y-123599500D01*
X133875435Y-123599500D01*
X133875429Y-123599500D01*
X133875424Y-123599501D01*
X133628438Y-123632017D01*
X133387792Y-123696498D01*
X133157638Y-123791830D01*
X133157623Y-123791837D01*
X132941873Y-123916400D01*
X132744225Y-124068060D01*
X132744218Y-124068066D01*
X132568066Y-124244218D01*
X132568060Y-124244225D01*
X132416400Y-124441873D01*
X132291837Y-124657623D01*
X132291830Y-124657638D01*
X132196498Y-124887792D01*
X132132017Y-125128438D01*
X132099501Y-125375424D01*
X132099500Y-125375441D01*
X130900500Y-125375441D01*
X130900500Y-125375435D01*
X130867982Y-125128435D01*
X130803502Y-124887793D01*
X130708257Y-124657851D01*
X130708169Y-124657638D01*
X130708162Y-124657623D01*
X130583599Y-124441873D01*
X130431939Y-124244225D01*
X130431933Y-124244218D01*
X130255781Y-124068066D01*
X130255774Y-124068060D01*
X130058126Y-123916400D01*
X129842376Y-123791837D01*
X129842361Y-123791830D01*
X129612207Y-123696498D01*
X129495349Y-123665186D01*
X129371565Y-123632018D01*
X129371564Y-123632017D01*
X129371561Y-123632017D01*
X129124575Y-123599501D01*
X129124570Y-123599500D01*
X129124565Y-123599500D01*
X128875435Y-123599500D01*
X128875429Y-123599500D01*
X128875424Y-123599501D01*
X128628438Y-123632017D01*
X128387792Y-123696498D01*
X128157638Y-123791830D01*
X128157623Y-123791837D01*
X127941873Y-123916400D01*
X127744225Y-124068060D01*
X127744218Y-124068066D01*
X127568066Y-124244218D01*
X127568060Y-124244225D01*
X127416400Y-124441873D01*
X127291837Y-124657623D01*
X127291830Y-124657638D01*
X127196498Y-124887792D01*
X127132017Y-125128438D01*
X127099501Y-125375424D01*
X127099500Y-125375441D01*
X125900500Y-125375441D01*
X125900500Y-125375435D01*
X125867982Y-125128435D01*
X125803502Y-124887793D01*
X125708257Y-124657851D01*
X125708169Y-124657638D01*
X125708162Y-124657623D01*
X125583599Y-124441873D01*
X125431939Y-124244225D01*
X125431933Y-124244218D01*
X125255781Y-124068066D01*
X125255774Y-124068060D01*
X125058126Y-123916400D01*
X124842376Y-123791837D01*
X124842361Y-123791830D01*
X124612207Y-123696498D01*
X124495349Y-123665186D01*
X124371565Y-123632018D01*
X124371564Y-123632017D01*
X124371561Y-123632017D01*
X124124575Y-123599501D01*
X124124570Y-123599500D01*
X124124565Y-123599500D01*
X123875435Y-123599500D01*
X123875429Y-123599500D01*
X123875424Y-123599501D01*
X123628438Y-123632017D01*
X123387792Y-123696498D01*
X123157638Y-123791830D01*
X123157623Y-123791837D01*
X122941873Y-123916400D01*
X122744225Y-124068060D01*
X122744218Y-124068066D01*
X122568066Y-124244218D01*
X122568060Y-124244225D01*
X122416400Y-124441873D01*
X122291837Y-124657623D01*
X122291830Y-124657638D01*
X122196498Y-124887792D01*
X122132017Y-125128438D01*
X122099501Y-125375424D01*
X122099500Y-125375441D01*
X120899997Y-125375441D01*
X120867491Y-125128536D01*
X120803026Y-124887950D01*
X120707716Y-124657851D01*
X120707711Y-124657840D01*
X120583186Y-124442158D01*
X120583180Y-124442150D01*
X120508598Y-124344953D01*
X119601041Y-125252510D01*
X119576022Y-125192110D01*
X119504888Y-125085649D01*
X119414351Y-124995112D01*
X119307890Y-124923978D01*
X119247487Y-124898957D01*
X120155045Y-123991400D01*
X120057849Y-123916819D01*
X120057841Y-123916813D01*
X119842159Y-123792288D01*
X119842148Y-123792283D01*
X119612049Y-123696973D01*
X119371463Y-123632508D01*
X119124534Y-123600000D01*
X118875466Y-123600000D01*
X118628536Y-123632508D01*
X118387950Y-123696973D01*
X118157851Y-123792283D01*
X118157847Y-123792285D01*
X117942143Y-123916823D01*
X117844953Y-123991399D01*
X117844953Y-123991400D01*
X118752511Y-124898958D01*
X118692110Y-124923978D01*
X118585649Y-124995112D01*
X118495112Y-125085649D01*
X118423978Y-125192110D01*
X118398958Y-125252511D01*
X117491400Y-124344953D01*
X117491399Y-124344953D01*
X117416823Y-124442143D01*
X117292285Y-124657847D01*
X117292283Y-124657851D01*
X117196973Y-124887950D01*
X117132508Y-125128536D01*
X117100000Y-125375466D01*
X95500500Y-125375466D01*
X95500500Y-117875466D01*
X172100000Y-117875466D01*
X172100000Y-118124533D01*
X172132508Y-118371463D01*
X172196973Y-118612049D01*
X172292283Y-118842148D01*
X172292288Y-118842159D01*
X172416813Y-119057841D01*
X172416819Y-119057849D01*
X172491400Y-119155045D01*
X173398958Y-118247487D01*
X173423978Y-118307890D01*
X173495112Y-118414351D01*
X173585649Y-118504888D01*
X173692110Y-118576022D01*
X173752511Y-118601041D01*
X172844953Y-119508598D01*
X172942150Y-119583180D01*
X172942158Y-119583186D01*
X173157840Y-119707711D01*
X173157851Y-119707716D01*
X173387950Y-119803026D01*
X173628536Y-119867491D01*
X173875466Y-119900000D01*
X174124534Y-119900000D01*
X174371463Y-119867491D01*
X174612049Y-119803026D01*
X174842148Y-119707716D01*
X174842159Y-119707711D01*
X175057855Y-119583178D01*
X175155045Y-119508600D01*
X175155045Y-119508597D01*
X174247488Y-118601041D01*
X174307890Y-118576022D01*
X174414351Y-118504888D01*
X174504888Y-118414351D01*
X174576022Y-118307890D01*
X174601041Y-118247489D01*
X175508597Y-119155045D01*
X175508600Y-119155045D01*
X175583178Y-119057855D01*
X175707711Y-118842159D01*
X175707716Y-118842148D01*
X175803026Y-118612049D01*
X175867491Y-118371463D01*
X175900000Y-118124533D01*
X175900000Y-117875466D01*
X175867491Y-117628536D01*
X175803026Y-117387950D01*
X175707716Y-117157851D01*
X175707711Y-117157840D01*
X175583186Y-116942158D01*
X175583180Y-116942150D01*
X175508598Y-116844953D01*
X174601041Y-117752510D01*
X174576022Y-117692110D01*
X174504888Y-117585649D01*
X174414351Y-117495112D01*
X174307890Y-117423978D01*
X174247487Y-117398957D01*
X175155045Y-116491400D01*
X175057849Y-116416819D01*
X175057841Y-116416813D01*
X174842159Y-116292288D01*
X174842148Y-116292283D01*
X174612049Y-116196973D01*
X174371463Y-116132508D01*
X174124534Y-116100000D01*
X173875466Y-116100000D01*
X173628536Y-116132508D01*
X173387950Y-116196973D01*
X173157851Y-116292283D01*
X173157847Y-116292285D01*
X172942143Y-116416823D01*
X172844953Y-116491399D01*
X172844953Y-116491400D01*
X173752511Y-117398958D01*
X173692110Y-117423978D01*
X173585649Y-117495112D01*
X173495112Y-117585649D01*
X173423978Y-117692110D01*
X173398958Y-117752511D01*
X172491400Y-116844953D01*
X172491399Y-116844953D01*
X172416823Y-116942143D01*
X172292285Y-117157847D01*
X172292283Y-117157851D01*
X172196973Y-117387950D01*
X172132508Y-117628536D01*
X172100000Y-117875466D01*
X95500500Y-117875466D01*
X95500500Y-113399983D01*
X96199500Y-113399983D01*
X96199500Y-114600001D01*
X96199501Y-114600018D01*
X96210000Y-114702796D01*
X96210001Y-114702799D01*
X96221589Y-114737768D01*
X96265186Y-114869334D01*
X96357288Y-115018656D01*
X96481344Y-115142712D01*
X96630666Y-115234814D01*
X96797203Y-115289999D01*
X96899991Y-115300500D01*
X98100008Y-115300499D01*
X98202797Y-115289999D01*
X98369334Y-115234814D01*
X98518656Y-115142712D01*
X98642712Y-115018656D01*
X98734814Y-114869334D01*
X98789999Y-114702797D01*
X98800500Y-114600009D01*
X98800499Y-113897682D01*
X100000000Y-113897682D01*
X100000000Y-114102317D01*
X100032009Y-114304417D01*
X100095244Y-114499031D01*
X100188141Y-114681350D01*
X100188147Y-114681359D01*
X100220523Y-114725921D01*
X100220524Y-114725922D01*
X100900000Y-114046446D01*
X100900000Y-114052661D01*
X100927259Y-114154394D01*
X100979920Y-114245606D01*
X101054394Y-114320080D01*
X101145606Y-114372741D01*
X101247339Y-114400000D01*
X101253553Y-114400000D01*
X100574076Y-115079474D01*
X100618650Y-115111859D01*
X100800968Y-115204755D01*
X100995582Y-115267990D01*
X101197683Y-115300000D01*
X101402317Y-115300000D01*
X101604417Y-115267990D01*
X101799031Y-115204755D01*
X101981349Y-115111859D01*
X102025921Y-115079474D01*
X101346447Y-114400000D01*
X101352661Y-114400000D01*
X101454394Y-114372741D01*
X101545606Y-114320080D01*
X101620080Y-114245606D01*
X101672741Y-114154394D01*
X101700000Y-114052661D01*
X101700000Y-114046447D01*
X102379474Y-114725921D01*
X102411859Y-114681349D01*
X102504755Y-114499031D01*
X102567990Y-114304417D01*
X102600000Y-114102317D01*
X102600000Y-113897682D01*
X102567990Y-113695582D01*
X102504755Y-113500968D01*
X102411859Y-113318650D01*
X102379474Y-113274077D01*
X102379474Y-113274076D01*
X101700000Y-113953551D01*
X101700000Y-113947339D01*
X101672741Y-113845606D01*
X101620080Y-113754394D01*
X101545606Y-113679920D01*
X101454394Y-113627259D01*
X101352661Y-113600000D01*
X101346446Y-113600000D01*
X102025922Y-112920524D01*
X102025921Y-112920523D01*
X101981359Y-112888147D01*
X101981350Y-112888141D01*
X101799031Y-112795244D01*
X101604417Y-112732009D01*
X101402317Y-112700000D01*
X101197683Y-112700000D01*
X100995582Y-112732009D01*
X100800968Y-112795244D01*
X100618644Y-112888143D01*
X100574077Y-112920523D01*
X100574077Y-112920524D01*
X101253554Y-113600000D01*
X101247339Y-113600000D01*
X101145606Y-113627259D01*
X101054394Y-113679920D01*
X100979920Y-113754394D01*
X100927259Y-113845606D01*
X100900000Y-113947339D01*
X100900000Y-113953553D01*
X100220524Y-113274077D01*
X100220523Y-113274077D01*
X100188143Y-113318644D01*
X100095244Y-113500968D01*
X100032009Y-113695582D01*
X100000000Y-113897682D01*
X98800499Y-113897682D01*
X98800499Y-113399992D01*
X98789999Y-113297203D01*
X98734814Y-113130666D01*
X98642712Y-112981344D01*
X98518656Y-112857288D01*
X98418066Y-112795244D01*
X98369336Y-112765187D01*
X98369331Y-112765185D01*
X98367862Y-112764698D01*
X98202797Y-112710001D01*
X98202795Y-112710000D01*
X98100010Y-112699500D01*
X96899998Y-112699500D01*
X96899981Y-112699501D01*
X96797203Y-112710000D01*
X96797200Y-112710001D01*
X96630668Y-112765185D01*
X96630663Y-112765187D01*
X96481342Y-112857289D01*
X96357289Y-112981342D01*
X96265187Y-113130663D01*
X96265186Y-113130666D01*
X96210001Y-113297203D01*
X96210001Y-113297204D01*
X96210000Y-113297204D01*
X96199500Y-113399983D01*
X95500500Y-113399983D01*
X95500500Y-99885305D01*
X105250000Y-99885305D01*
X105250000Y-100114694D01*
X105250001Y-100114710D01*
X105279942Y-100342137D01*
X105339318Y-100563730D01*
X105427102Y-100775659D01*
X105427106Y-100775669D01*
X105541799Y-100974324D01*
X105541805Y-100974331D01*
X105598381Y-101048064D01*
X106398958Y-100247487D01*
X106423978Y-100307890D01*
X106495112Y-100414351D01*
X106585649Y-100504888D01*
X106692110Y-100576022D01*
X106752511Y-100601041D01*
X105951934Y-101401617D01*
X105951934Y-101401618D01*
X106025666Y-101458194D01*
X106224330Y-101572893D01*
X106224340Y-101572897D01*
X106436269Y-101660681D01*
X106657862Y-101720057D01*
X106885289Y-101749998D01*
X106885306Y-101750000D01*
X107114694Y-101750000D01*
X107114710Y-101749998D01*
X107342137Y-101720057D01*
X107563730Y-101660681D01*
X107775659Y-101572897D01*
X107775668Y-101572893D01*
X107974327Y-101458197D01*
X107974334Y-101458192D01*
X108048064Y-101401617D01*
X107247488Y-100601041D01*
X107307890Y-100576022D01*
X107414351Y-100504888D01*
X107504888Y-100414351D01*
X107576022Y-100307890D01*
X107601041Y-100247488D01*
X108401617Y-101048064D01*
X108458192Y-100974334D01*
X108458197Y-100974327D01*
X108572893Y-100775668D01*
X108572897Y-100775659D01*
X108660681Y-100563730D01*
X108720057Y-100342137D01*
X108749998Y-100114710D01*
X108750000Y-100114694D01*
X108750000Y-99885305D01*
X108749998Y-99885289D01*
X108720057Y-99657862D01*
X108660681Y-99436269D01*
X108572897Y-99224340D01*
X108572893Y-99224330D01*
X108458194Y-99025666D01*
X108401618Y-98951934D01*
X108401617Y-98951934D01*
X107601041Y-99752510D01*
X107576022Y-99692110D01*
X107504888Y-99585649D01*
X107414351Y-99495112D01*
X107307890Y-99423978D01*
X107247487Y-99398957D01*
X108048064Y-98598381D01*
X108048064Y-98598380D01*
X107974331Y-98541805D01*
X107974324Y-98541799D01*
X107775669Y-98427106D01*
X107775659Y-98427102D01*
X107563730Y-98339318D01*
X107342137Y-98279942D01*
X107114710Y-98250001D01*
X107114694Y-98250000D01*
X106885306Y-98250000D01*
X106885289Y-98250001D01*
X106657862Y-98279942D01*
X106436269Y-98339318D01*
X106224340Y-98427102D01*
X106224330Y-98427106D01*
X106025673Y-98541801D01*
X106025659Y-98541810D01*
X105951934Y-98598380D01*
X106752511Y-99398958D01*
X106692110Y-99423978D01*
X106585649Y-99495112D01*
X106495112Y-99585649D01*
X106423978Y-99692110D01*
X106398958Y-99752511D01*
X105598380Y-98951934D01*
X105541810Y-99025659D01*
X105541801Y-99025673D01*
X105427106Y-99224330D01*
X105427102Y-99224340D01*
X105339318Y-99436269D01*
X105279942Y-99657862D01*
X105250001Y-99885289D01*
X105250000Y-99885305D01*
X95500500Y-99885305D01*
X95500500Y-93949983D01*
X105249500Y-93949983D01*
X105249500Y-96050001D01*
X105249501Y-96050018D01*
X105260000Y-96152796D01*
X105260001Y-96152799D01*
X105296058Y-96261610D01*
X105315186Y-96319334D01*
X105407288Y-96468656D01*
X105531344Y-96592712D01*
X105680666Y-96684814D01*
X105847203Y-96739999D01*
X105949991Y-96750500D01*
X108050008Y-96750499D01*
X108152797Y-96739999D01*
X108319334Y-96684814D01*
X108468656Y-96592712D01*
X108592712Y-96468656D01*
X108684814Y-96319334D01*
X108739999Y-96152797D01*
X108750500Y-96050009D01*
X108750499Y-93949992D01*
X108739999Y-93847203D01*
X108684814Y-93680666D01*
X108592712Y-93531344D01*
X108468656Y-93407288D01*
X108319334Y-93315186D01*
X108152797Y-93260001D01*
X108152795Y-93260000D01*
X108050010Y-93249500D01*
X105949998Y-93249500D01*
X105949981Y-93249501D01*
X105847203Y-93260000D01*
X105847200Y-93260001D01*
X105680668Y-93315185D01*
X105680663Y-93315187D01*
X105531342Y-93407289D01*
X105407289Y-93531342D01*
X105315187Y-93680663D01*
X105315186Y-93680666D01*
X105260001Y-93847203D01*
X105260001Y-93847204D01*
X105260000Y-93847204D01*
X105249500Y-93949983D01*
X95500500Y-93949983D01*
X95500500Y-79881947D01*
X97367677Y-79881947D01*
X97367677Y-80118052D01*
X97404611Y-80351247D01*
X97477574Y-80575802D01*
X97584764Y-80786174D01*
X97645015Y-80869104D01*
X97645017Y-80869105D01*
X98384714Y-80129408D01*
X98401752Y-80192993D01*
X98467578Y-80307007D01*
X98560670Y-80400099D01*
X98674684Y-80465925D01*
X98738267Y-80482962D01*
X97998570Y-81222658D01*
X98081505Y-81282914D01*
X98291874Y-81390102D01*
X98516429Y-81463065D01*
X98516428Y-81463065D01*
X98749625Y-81500000D01*
X98985729Y-81500000D01*
X99218924Y-81463065D01*
X99443479Y-81390102D01*
X99653840Y-81282918D01*
X99653846Y-81282914D01*
X99736781Y-81222658D01*
X99736782Y-81222658D01*
X98997085Y-80482962D01*
X99060670Y-80465925D01*
X99174684Y-80400099D01*
X99267776Y-80307007D01*
X99333602Y-80192993D01*
X99350639Y-80129409D01*
X100090335Y-80869105D01*
X100090335Y-80869104D01*
X100150591Y-80786169D01*
X100150595Y-80786163D01*
X100257779Y-80575802D01*
X100330742Y-80351247D01*
X100367677Y-80118052D01*
X100367677Y-79881947D01*
X100330742Y-79648752D01*
X100257779Y-79424197D01*
X100150591Y-79213828D01*
X100090335Y-79130894D01*
X100090335Y-79130893D01*
X99350639Y-79870590D01*
X99333602Y-79807007D01*
X99267776Y-79692993D01*
X99174684Y-79599901D01*
X99060670Y-79534075D01*
X98997086Y-79517037D01*
X99736782Y-78777340D01*
X99736781Y-78777338D01*
X99653851Y-78717087D01*
X99443479Y-78609897D01*
X99218924Y-78536934D01*
X99218925Y-78536934D01*
X98985729Y-78500000D01*
X98749625Y-78500000D01*
X98516429Y-78536934D01*
X98291874Y-78609897D01*
X98081507Y-78717084D01*
X97998571Y-78777340D01*
X98738268Y-79517037D01*
X98674684Y-79534075D01*
X98560670Y-79599901D01*
X98467578Y-79692993D01*
X98401752Y-79807007D01*
X98384714Y-79870591D01*
X97645017Y-79130894D01*
X97584761Y-79213830D01*
X97477574Y-79424197D01*
X97404611Y-79648752D01*
X97367677Y-79881947D01*
X95500500Y-79881947D01*
X95500500Y-61503750D01*
X95500726Y-61496263D01*
X95507027Y-61392093D01*
X95518271Y-61206197D01*
X95520076Y-61191339D01*
X95523545Y-61172409D01*
X95560548Y-60970489D01*
X95591993Y-60908099D01*
X95594774Y-60905225D01*
X97405167Y-59094832D01*
X97422561Y-59085334D01*
X97437035Y-59071785D01*
X97463902Y-59062760D01*
X97466486Y-59061350D01*
X97470433Y-59060558D01*
X97691346Y-59020075D01*
X97706197Y-59018271D01*
X97996264Y-59000726D01*
X98003751Y-59000500D01*
X98065892Y-59000500D01*
X113590494Y-59000500D01*
X113657533Y-59020185D01*
G37*
%TD.AperFunction*%
%TA.AperFunction,Conductor*%
G36*
X138374250Y-111440698D02*
G01*
X138374250Y-111440697D01*
X138448442Y-111338581D01*
X138448446Y-111338575D01*
X138562781Y-111114182D01*
X138600379Y-110998467D01*
X138639816Y-110940791D01*
X138704174Y-110913592D01*
X138773021Y-110925506D01*
X138805991Y-110949103D01*
X143065911Y-115209021D01*
X143099396Y-115270344D01*
X143094412Y-115340036D01*
X143052540Y-115395969D01*
X142987076Y-115420386D01*
X142978230Y-115420702D01*
X140275164Y-115420702D01*
X140208125Y-115401017D01*
X140187483Y-115384383D01*
X137114781Y-112311681D01*
X137081296Y-112250358D01*
X137086280Y-112180666D01*
X137128152Y-112124733D01*
X137193616Y-112100316D01*
X137202462Y-112100000D01*
X137205928Y-112100000D01*
X137454669Y-112060602D01*
X137694184Y-111982780D01*
X137918575Y-111868446D01*
X137918581Y-111868442D01*
X138020697Y-111794250D01*
X138020698Y-111794250D01*
X137250234Y-111023787D01*
X137292292Y-111012518D01*
X137417708Y-110940110D01*
X137520110Y-110837708D01*
X137592518Y-110712292D01*
X137603787Y-110670234D01*
X138374250Y-111440698D01*
G37*
%TD.AperFunction*%
%TA.AperFunction,Conductor*%
G36*
X135707128Y-105948293D02*
G01*
X135765362Y-105986901D01*
X135793479Y-106050864D01*
X135794502Y-106066761D01*
X135794502Y-107684882D01*
X135825263Y-107839525D01*
X135825266Y-107839537D01*
X135885604Y-107985208D01*
X135885611Y-107985221D01*
X135973212Y-108116324D01*
X135973215Y-108116328D01*
X136630896Y-108774008D01*
X136664381Y-108835331D01*
X136659397Y-108905022D01*
X136617526Y-108960956D01*
X136581534Y-108979620D01*
X136465814Y-109017220D01*
X136241413Y-109131559D01*
X136139301Y-109205747D01*
X136139300Y-109205748D01*
X136909765Y-109976212D01*
X136867708Y-109987482D01*
X136742292Y-110059890D01*
X136639890Y-110162292D01*
X136567482Y-110287708D01*
X136556212Y-110329765D01*
X135785748Y-109559300D01*
X135785747Y-109559301D01*
X135711559Y-109661413D01*
X135597219Y-109885815D01*
X135519397Y-110125330D01*
X135480000Y-110374071D01*
X135480000Y-110384462D01*
X135460315Y-110451501D01*
X135407511Y-110497256D01*
X135338353Y-110507200D01*
X135287110Y-110487565D01*
X135191281Y-110423535D01*
X135072898Y-110374499D01*
X135072892Y-110374497D01*
X134947225Y-110349500D01*
X134947223Y-110349500D01*
X133004935Y-110349500D01*
X132937896Y-110329815D01*
X132936090Y-110328633D01*
X132879179Y-110290606D01*
X132879172Y-110290602D01*
X132733501Y-110230264D01*
X132733489Y-110230261D01*
X132578845Y-110199500D01*
X132578842Y-110199500D01*
X132421158Y-110199500D01*
X132421155Y-110199500D01*
X132266510Y-110230261D01*
X132266498Y-110230264D01*
X132120827Y-110290602D01*
X132120814Y-110290609D01*
X132068891Y-110325304D01*
X132002214Y-110346182D01*
X131934833Y-110327698D01*
X131931109Y-110325304D01*
X131879185Y-110290609D01*
X131879172Y-110290602D01*
X131733501Y-110230264D01*
X131733489Y-110230261D01*
X131578845Y-110199500D01*
X131578842Y-110199500D01*
X131421158Y-110199500D01*
X131421155Y-110199500D01*
X131266510Y-110230261D01*
X131266498Y-110230264D01*
X131120827Y-110290602D01*
X131120814Y-110290609D01*
X131068891Y-110325304D01*
X131002214Y-110346182D01*
X130934833Y-110327698D01*
X130931109Y-110325304D01*
X130879185Y-110290609D01*
X130879172Y-110290602D01*
X130733501Y-110230264D01*
X130733489Y-110230261D01*
X130578845Y-110199500D01*
X130578842Y-110199500D01*
X130421158Y-110199500D01*
X130421153Y-110199500D01*
X130355431Y-110212573D01*
X130285839Y-110206346D01*
X130230662Y-110163482D01*
X130216679Y-110138409D01*
X130209394Y-110120821D01*
X130209393Y-110120819D01*
X130209392Y-110120817D01*
X130121789Y-109989711D01*
X130121786Y-109989707D01*
X130010292Y-109878213D01*
X130010288Y-109878210D01*
X129879185Y-109790609D01*
X129879172Y-109790602D01*
X129733501Y-109730264D01*
X129733489Y-109730261D01*
X129578845Y-109699500D01*
X129578842Y-109699500D01*
X129421158Y-109699500D01*
X129421155Y-109699500D01*
X129266510Y-109730261D01*
X129266498Y-109730264D01*
X129192952Y-109760728D01*
X129123483Y-109768197D01*
X129061004Y-109736921D01*
X129025352Y-109676832D01*
X129021500Y-109646167D01*
X129021500Y-109330058D01*
X128996502Y-109204391D01*
X128996501Y-109204387D01*
X128986956Y-109181344D01*
X128969503Y-109139208D01*
X128964434Y-109126970D01*
X128947469Y-109086010D01*
X128947467Y-109086007D01*
X128947466Y-109086004D01*
X128928839Y-109058127D01*
X128876278Y-108979462D01*
X128876272Y-108979455D01*
X128440543Y-108543726D01*
X128440539Y-108543723D01*
X128333997Y-108472535D01*
X128319282Y-108466440D01*
X128215614Y-108423499D01*
X128215608Y-108423497D01*
X128089941Y-108398499D01*
X128083879Y-108397903D01*
X128019091Y-108371743D01*
X127978731Y-108314710D01*
X127975613Y-108244910D01*
X128010727Y-108184504D01*
X128072924Y-108152672D01*
X128096031Y-108150500D01*
X132184071Y-108150500D01*
X132268615Y-108133682D01*
X132309744Y-108125501D01*
X132428127Y-108076465D01*
X132446679Y-108064069D01*
X132534669Y-108005277D01*
X133463127Y-107076819D01*
X133524450Y-107043334D01*
X133550808Y-107040500D01*
X134382351Y-107040500D01*
X134382352Y-107040500D01*
X134584534Y-107008477D01*
X134779219Y-106945220D01*
X134961610Y-106852287D01*
X135054590Y-106784732D01*
X135127213Y-106731971D01*
X135127215Y-106731968D01*
X135127219Y-106731966D01*
X135271966Y-106587219D01*
X135271968Y-106587215D01*
X135271971Y-106587213D01*
X135327854Y-106510295D01*
X135392287Y-106421610D01*
X135485220Y-106239219D01*
X135548477Y-106044534D01*
X135549612Y-106039806D01*
X135551408Y-106040237D01*
X135577955Y-105984232D01*
X135637265Y-105947298D01*
X135707128Y-105948293D01*
G37*
%TD.AperFunction*%
%TA.AperFunction,Conductor*%
G36*
X146196875Y-86229111D02*
G01*
X146252809Y-86270982D01*
X146264027Y-86288998D01*
X146273931Y-86308436D01*
X146340282Y-86438657D01*
X146344951Y-86447819D01*
X146469890Y-86619786D01*
X146620213Y-86770109D01*
X146792182Y-86895050D01*
X146800946Y-86899516D01*
X146851742Y-86947491D01*
X146868536Y-87015312D01*
X146845998Y-87081447D01*
X146800946Y-87120484D01*
X146792182Y-87124949D01*
X146620213Y-87249890D01*
X146469890Y-87400213D01*
X146344951Y-87572179D01*
X146248444Y-87761585D01*
X146182753Y-87963760D01*
X146149500Y-88173713D01*
X146149500Y-88386286D01*
X146182738Y-88596146D01*
X146182754Y-88596243D01*
X146246350Y-88791971D01*
X146248444Y-88798414D01*
X146344951Y-88987820D01*
X146469890Y-89159786D01*
X146620213Y-89310109D01*
X146792182Y-89435050D01*
X146800946Y-89439516D01*
X146851742Y-89487491D01*
X146868536Y-89555312D01*
X146845998Y-89621447D01*
X146800946Y-89660484D01*
X146792182Y-89664949D01*
X146620213Y-89789890D01*
X146469890Y-89940213D01*
X146344951Y-90112179D01*
X146248444Y-90301585D01*
X146182753Y-90503760D01*
X146167138Y-90602351D01*
X146149500Y-90713713D01*
X146149500Y-90926287D01*
X146155928Y-90966874D01*
X146182084Y-91132018D01*
X146182754Y-91136243D01*
X146246350Y-91331971D01*
X146248444Y-91338414D01*
X146344951Y-91527820D01*
X146469890Y-91699786D01*
X146620213Y-91850109D01*
X146792182Y-91975050D01*
X146800946Y-91979516D01*
X146851742Y-92027491D01*
X146868536Y-92095312D01*
X146845998Y-92161447D01*
X146800946Y-92200484D01*
X146792182Y-92204949D01*
X146620213Y-92329890D01*
X146469890Y-92480213D01*
X146344951Y-92652179D01*
X146248444Y-92841585D01*
X146182753Y-93043760D01*
X146149500Y-93253713D01*
X146149500Y-93466286D01*
X146173320Y-93616684D01*
X146182754Y-93676243D01*
X146246350Y-93871971D01*
X146248444Y-93878414D01*
X146344951Y-94067820D01*
X146469890Y-94239786D01*
X146620213Y-94390109D01*
X146792182Y-94515050D01*
X146800946Y-94519516D01*
X146851742Y-94567491D01*
X146868536Y-94635312D01*
X146845998Y-94701447D01*
X146800946Y-94740484D01*
X146792182Y-94744949D01*
X146620213Y-94869890D01*
X146469890Y-95020213D01*
X146344951Y-95192179D01*
X146248444Y-95381585D01*
X146182753Y-95583760D01*
X146167138Y-95682351D01*
X146149500Y-95793713D01*
X146149500Y-96006287D01*
X146154611Y-96038555D01*
X146179626Y-96196498D01*
X146182754Y-96216243D01*
X146247789Y-96416400D01*
X146248444Y-96418414D01*
X146344951Y-96607820D01*
X146469890Y-96779786D01*
X146620213Y-96930109D01*
X146792182Y-97055050D01*
X146800946Y-97059516D01*
X146851742Y-97107491D01*
X146868536Y-97175312D01*
X146845998Y-97241447D01*
X146800946Y-97280484D01*
X146792182Y-97284949D01*
X146620213Y-97409890D01*
X146469890Y-97560213D01*
X146344951Y-97732179D01*
X146248444Y-97921585D01*
X146182753Y-98123760D01*
X146155127Y-98298183D01*
X146149500Y-98333713D01*
X146149500Y-98546287D01*
X146182754Y-98756243D01*
X146246350Y-98951971D01*
X146248444Y-98958414D01*
X146344951Y-99147820D01*
X146469890Y-99319786D01*
X146620213Y-99470109D01*
X146792182Y-99595050D01*
X146800946Y-99599516D01*
X146851742Y-99647491D01*
X146868536Y-99715312D01*
X146845998Y-99781447D01*
X146800946Y-99820484D01*
X146792182Y-99824949D01*
X146620213Y-99949890D01*
X146469890Y-100100213D01*
X146344951Y-100272179D01*
X146248444Y-100461585D01*
X146182753Y-100663760D01*
X146149500Y-100873713D01*
X146149500Y-101086286D01*
X146172170Y-101229422D01*
X146182754Y-101296243D01*
X146246350Y-101491971D01*
X146248444Y-101498414D01*
X146344951Y-101687820D01*
X146469890Y-101859786D01*
X146620213Y-102010109D01*
X146792182Y-102135050D01*
X146800946Y-102139516D01*
X146851742Y-102187491D01*
X146868536Y-102255312D01*
X146845998Y-102321447D01*
X146800946Y-102360484D01*
X146792182Y-102364949D01*
X146620213Y-102489890D01*
X146469890Y-102640213D01*
X146344951Y-102812179D01*
X146248444Y-103001585D01*
X146182753Y-103203760D01*
X146168699Y-103292493D01*
X146149500Y-103413713D01*
X146149500Y-103626287D01*
X146155184Y-103662171D01*
X146164245Y-103719386D01*
X146182754Y-103836243D01*
X146246350Y-104031971D01*
X146248444Y-104038414D01*
X146344951Y-104227820D01*
X146469890Y-104399786D01*
X146620213Y-104550109D01*
X146792179Y-104675048D01*
X146792181Y-104675049D01*
X146792184Y-104675051D01*
X146801493Y-104679794D01*
X146852290Y-104727766D01*
X146869087Y-104795587D01*
X146846552Y-104861722D01*
X146801505Y-104900760D01*
X146792446Y-104905376D01*
X146792440Y-104905380D01*
X146738282Y-104944727D01*
X146738282Y-104944728D01*
X147370591Y-105577037D01*
X147307007Y-105594075D01*
X147192993Y-105659901D01*
X147099901Y-105752993D01*
X147034075Y-105867007D01*
X147017037Y-105930591D01*
X146384728Y-105298282D01*
X146384727Y-105298282D01*
X146345380Y-105352439D01*
X146248904Y-105541782D01*
X146183242Y-105743869D01*
X146183242Y-105743872D01*
X146150000Y-105953753D01*
X146150000Y-106166246D01*
X146183242Y-106376127D01*
X146183243Y-106376134D01*
X146204142Y-106440454D01*
X146206137Y-106510295D01*
X146170056Y-106570127D01*
X146107355Y-106600955D01*
X146037941Y-106592990D01*
X145998530Y-106566452D01*
X143165346Y-103733268D01*
X143131861Y-103671945D01*
X143135096Y-103607269D01*
X143135995Y-103604502D01*
X143168477Y-103504534D01*
X143200500Y-103302352D01*
X143200500Y-103097648D01*
X143185285Y-103001585D01*
X143168477Y-102895465D01*
X143116490Y-102735466D01*
X143105220Y-102700781D01*
X143105218Y-102700778D01*
X143105218Y-102700776D01*
X143064475Y-102620814D01*
X143012287Y-102518390D01*
X142991448Y-102489707D01*
X142891971Y-102352786D01*
X142747213Y-102208028D01*
X142581614Y-102087715D01*
X142575006Y-102084348D01*
X142488917Y-102040483D01*
X142438123Y-101992511D01*
X142421328Y-101924690D01*
X142443865Y-101858555D01*
X142488917Y-101819516D01*
X142581610Y-101772287D01*
X142653499Y-101720057D01*
X142747213Y-101651971D01*
X142747215Y-101651968D01*
X142747219Y-101651966D01*
X142891966Y-101507219D01*
X142891968Y-101507215D01*
X142891971Y-101507213D01*
X142954492Y-101421158D01*
X143012287Y-101341610D01*
X143105220Y-101159219D01*
X143168477Y-100964534D01*
X143200500Y-100762352D01*
X143200500Y-100557648D01*
X143185285Y-100461585D01*
X143168477Y-100355465D01*
X143116490Y-100195466D01*
X143105220Y-100160781D01*
X143105218Y-100160778D01*
X143105218Y-100160776D01*
X143055917Y-100064019D01*
X143012287Y-99978390D01*
X142991581Y-99949890D01*
X142891971Y-99812786D01*
X142747213Y-99668028D01*
X142581614Y-99547715D01*
X142575006Y-99544348D01*
X142488917Y-99500483D01*
X142438123Y-99452511D01*
X142421328Y-99384690D01*
X142443865Y-99318555D01*
X142488917Y-99279516D01*
X142581610Y-99232287D01*
X142605986Y-99214577D01*
X142747213Y-99111971D01*
X142747215Y-99111968D01*
X142747219Y-99111966D01*
X142891966Y-98967219D01*
X142891968Y-98967215D01*
X142891971Y-98967213D01*
X142982671Y-98842373D01*
X143012287Y-98801610D01*
X143105220Y-98619219D01*
X143168477Y-98424534D01*
X143200500Y-98222352D01*
X143200500Y-98017648D01*
X143185217Y-97921158D01*
X143168477Y-97815465D01*
X143116490Y-97655466D01*
X143105220Y-97620781D01*
X143105218Y-97620778D01*
X143105218Y-97620776D01*
X143071503Y-97554607D01*
X143012287Y-97438390D01*
X142991581Y-97409890D01*
X142891971Y-97272786D01*
X142747213Y-97128028D01*
X142581614Y-97007715D01*
X142575006Y-97004348D01*
X142488917Y-96960483D01*
X142438123Y-96912511D01*
X142421328Y-96844690D01*
X142443865Y-96778555D01*
X142488917Y-96739516D01*
X142581610Y-96692287D01*
X142602770Y-96676913D01*
X142747213Y-96571971D01*
X142747215Y-96571968D01*
X142747219Y-96571966D01*
X142891966Y-96427219D01*
X142891968Y-96427215D01*
X142891971Y-96427213D01*
X142970348Y-96319334D01*
X143012287Y-96261610D01*
X143105220Y-96079219D01*
X143168477Y-95884534D01*
X143200500Y-95682352D01*
X143200500Y-95477648D01*
X143185285Y-95381585D01*
X143168477Y-95275465D01*
X143105557Y-95081818D01*
X143105220Y-95080781D01*
X143105218Y-95080778D01*
X143105218Y-95080776D01*
X143053597Y-94979466D01*
X143012287Y-94898390D01*
X142991581Y-94869890D01*
X142891971Y-94732786D01*
X142747213Y-94588028D01*
X142581614Y-94467715D01*
X142575006Y-94464348D01*
X142488917Y-94420483D01*
X142438123Y-94372511D01*
X142421328Y-94304690D01*
X142443865Y-94238555D01*
X142488917Y-94199516D01*
X142581610Y-94152287D01*
X142602770Y-94136913D01*
X142747213Y-94031971D01*
X142747215Y-94031968D01*
X142747219Y-94031966D01*
X142891966Y-93887219D01*
X142891968Y-93887215D01*
X142891971Y-93887213D01*
X142944732Y-93814590D01*
X143012287Y-93721610D01*
X143105220Y-93539219D01*
X143168477Y-93344534D01*
X143200500Y-93142352D01*
X143200500Y-92937648D01*
X143168477Y-92735466D01*
X143168476Y-92735464D01*
X143133701Y-92628438D01*
X143105220Y-92540781D01*
X143105218Y-92540778D01*
X143105218Y-92540776D01*
X143053597Y-92439466D01*
X143012287Y-92358390D01*
X142963042Y-92290609D01*
X142891971Y-92192786D01*
X142747213Y-92048028D01*
X142581614Y-91927715D01*
X142575006Y-91924348D01*
X142488917Y-91880483D01*
X142438123Y-91832511D01*
X142421328Y-91764690D01*
X142443865Y-91698555D01*
X142488917Y-91659516D01*
X142581610Y-91612287D01*
X142602770Y-91596913D01*
X142747213Y-91491971D01*
X142747215Y-91491968D01*
X142747219Y-91491966D01*
X142891966Y-91347219D01*
X142891968Y-91347215D01*
X142891971Y-91347213D01*
X142944732Y-91274590D01*
X143012287Y-91181610D01*
X143105220Y-90999219D01*
X143168477Y-90804534D01*
X143200500Y-90602352D01*
X143200500Y-90397648D01*
X143168477Y-90195466D01*
X143168476Y-90195464D01*
X143105557Y-90001818D01*
X143105220Y-90000781D01*
X143105218Y-90000778D01*
X143105218Y-90000776D01*
X143048330Y-89889129D01*
X143012287Y-89818390D01*
X142991581Y-89789890D01*
X142891971Y-89652786D01*
X142747213Y-89508028D01*
X142581614Y-89387715D01*
X142575006Y-89384348D01*
X142488917Y-89340483D01*
X142438123Y-89292511D01*
X142421328Y-89224690D01*
X142443865Y-89158555D01*
X142488917Y-89119516D01*
X142581610Y-89072287D01*
X142602770Y-89056913D01*
X142747213Y-88951971D01*
X142747215Y-88951968D01*
X142747219Y-88951966D01*
X142891966Y-88807219D01*
X142891968Y-88807215D01*
X142891971Y-88807213D01*
X142963369Y-88708940D01*
X143012287Y-88641610D01*
X143105220Y-88459219D01*
X143168477Y-88264534D01*
X143200500Y-88062352D01*
X143200500Y-87857648D01*
X143168477Y-87655466D01*
X143105220Y-87460781D01*
X143105218Y-87460778D01*
X143105218Y-87460776D01*
X143075165Y-87401795D01*
X143062269Y-87333126D01*
X143088545Y-87268386D01*
X143145651Y-87228128D01*
X143185650Y-87221500D01*
X144896600Y-87221500D01*
X145007196Y-87199500D01*
X145022273Y-87196501D01*
X145140656Y-87147465D01*
X145174354Y-87124949D01*
X145247198Y-87076277D01*
X146065863Y-86257610D01*
X146127184Y-86224127D01*
X146196875Y-86229111D01*
G37*
%TD.AperFunction*%
%TA.AperFunction,Conductor*%
G36*
X156588760Y-85071185D02*
G01*
X156609402Y-85087819D01*
X161425263Y-89903680D01*
X161458748Y-89965003D01*
X161453764Y-90034695D01*
X161437900Y-90064246D01*
X161344951Y-90192180D01*
X161248444Y-90381585D01*
X161182753Y-90583760D01*
X161162171Y-90713713D01*
X161149500Y-90793713D01*
X161149500Y-91006287D01*
X161153695Y-91032773D01*
X161180909Y-91204598D01*
X161182754Y-91216243D01*
X161247789Y-91416400D01*
X161248444Y-91418414D01*
X161344948Y-91607814D01*
X161344949Y-91607816D01*
X161379829Y-91655825D01*
X161403308Y-91721631D01*
X161387482Y-91789685D01*
X161367191Y-91816390D01*
X160793725Y-92389857D01*
X160793724Y-92389858D01*
X160743297Y-92465330D01*
X160743295Y-92465332D01*
X160722539Y-92496393D01*
X160722533Y-92496404D01*
X160673499Y-92614784D01*
X160673497Y-92614790D01*
X160648500Y-92740457D01*
X160648500Y-94480191D01*
X160628815Y-94547230D01*
X160612181Y-94567872D01*
X149061681Y-106118371D01*
X149000358Y-106151856D01*
X148930666Y-106146872D01*
X148874733Y-106105000D01*
X148850316Y-106039536D01*
X148850000Y-106030690D01*
X148850000Y-105953753D01*
X148816757Y-105743872D01*
X148816757Y-105743869D01*
X148751095Y-105541782D01*
X148654624Y-105352449D01*
X148615270Y-105298282D01*
X148615269Y-105298282D01*
X147982962Y-105930589D01*
X147965925Y-105867007D01*
X147900099Y-105752993D01*
X147807007Y-105659901D01*
X147692993Y-105594075D01*
X147629409Y-105577037D01*
X148261716Y-104944728D01*
X148207547Y-104905373D01*
X148207547Y-104905372D01*
X148198500Y-104900763D01*
X148147706Y-104852788D01*
X148130912Y-104784966D01*
X148153451Y-104718832D01*
X148198508Y-104679793D01*
X148207816Y-104675051D01*
X148287007Y-104617515D01*
X148379786Y-104550109D01*
X148379788Y-104550106D01*
X148379792Y-104550104D01*
X148530104Y-104399792D01*
X148530106Y-104399788D01*
X148530109Y-104399786D01*
X148650921Y-104233501D01*
X148655051Y-104227816D01*
X148751557Y-104038412D01*
X148817246Y-103836243D01*
X148850500Y-103626287D01*
X148850500Y-103413713D01*
X148817246Y-103203757D01*
X148751557Y-103001588D01*
X148655051Y-102812184D01*
X148655049Y-102812181D01*
X148655048Y-102812179D01*
X148530109Y-102640213D01*
X148379786Y-102489890D01*
X148207820Y-102364951D01*
X148206719Y-102364390D01*
X148199054Y-102360485D01*
X148148259Y-102312512D01*
X148131463Y-102244692D01*
X148153999Y-102178556D01*
X148199054Y-102139515D01*
X148207816Y-102135051D01*
X148272972Y-102087713D01*
X148379786Y-102010109D01*
X148379788Y-102010106D01*
X148379792Y-102010104D01*
X148530104Y-101859792D01*
X148530106Y-101859788D01*
X148530109Y-101859786D01*
X148655048Y-101687820D01*
X148655047Y-101687820D01*
X148655051Y-101687816D01*
X148751557Y-101498412D01*
X148817246Y-101296243D01*
X148850500Y-101086287D01*
X148850500Y-100873713D01*
X148817246Y-100663757D01*
X148751557Y-100461588D01*
X148655051Y-100272184D01*
X148655049Y-100272181D01*
X148655048Y-100272179D01*
X148530109Y-100100213D01*
X148379786Y-99949890D01*
X148207820Y-99824951D01*
X148206719Y-99824390D01*
X148199054Y-99820485D01*
X148148259Y-99772512D01*
X148131463Y-99704692D01*
X148153999Y-99638556D01*
X148199054Y-99599515D01*
X148207816Y-99595051D01*
X148272972Y-99547713D01*
X148379786Y-99470109D01*
X148379788Y-99470106D01*
X148379792Y-99470104D01*
X148530104Y-99319792D01*
X148530106Y-99319788D01*
X148530109Y-99319786D01*
X148655048Y-99147820D01*
X148655047Y-99147820D01*
X148655051Y-99147816D01*
X148751557Y-98958412D01*
X148817246Y-98756243D01*
X148850500Y-98546287D01*
X148850500Y-98333713D01*
X148817246Y-98123757D01*
X148751557Y-97921588D01*
X148655051Y-97732184D01*
X148655049Y-97732181D01*
X148655048Y-97732179D01*
X148530109Y-97560213D01*
X148379786Y-97409890D01*
X148207820Y-97284951D01*
X148206719Y-97284390D01*
X148199054Y-97280485D01*
X148148259Y-97232512D01*
X148131463Y-97164692D01*
X148153999Y-97098556D01*
X148199054Y-97059515D01*
X148207816Y-97055051D01*
X148272972Y-97007713D01*
X148379786Y-96930109D01*
X148379788Y-96930106D01*
X148379792Y-96930104D01*
X148530104Y-96779792D01*
X148530106Y-96779788D01*
X148530109Y-96779786D01*
X148655048Y-96607820D01*
X148655047Y-96607820D01*
X148655051Y-96607816D01*
X148751557Y-96418412D01*
X148817246Y-96216243D01*
X148850500Y-96006287D01*
X148850500Y-95793713D01*
X148817246Y-95583757D01*
X148751557Y-95381588D01*
X148655051Y-95192184D01*
X148655049Y-95192181D01*
X148655048Y-95192179D01*
X148530109Y-95020213D01*
X148379786Y-94869890D01*
X148207820Y-94744951D01*
X148207115Y-94744591D01*
X148199054Y-94740485D01*
X148148259Y-94692512D01*
X148131463Y-94624692D01*
X148153999Y-94558556D01*
X148199054Y-94519515D01*
X148207816Y-94515051D01*
X148322211Y-94431939D01*
X148379786Y-94390109D01*
X148379788Y-94390106D01*
X148379792Y-94390104D01*
X148530104Y-94239792D01*
X148530106Y-94239788D01*
X148530109Y-94239786D01*
X148655048Y-94067820D01*
X148655047Y-94067820D01*
X148655051Y-94067816D01*
X148751557Y-93878412D01*
X148817246Y-93676243D01*
X148850500Y-93466287D01*
X148850500Y-93253713D01*
X148817246Y-93043757D01*
X148751557Y-92841588D01*
X148655051Y-92652184D01*
X148655049Y-92652181D01*
X148655048Y-92652179D01*
X148530109Y-92480213D01*
X148379786Y-92329890D01*
X148207820Y-92204951D01*
X148207115Y-92204591D01*
X148199054Y-92200485D01*
X148148259Y-92152512D01*
X148131463Y-92084692D01*
X148153999Y-92018556D01*
X148199054Y-91979515D01*
X148207816Y-91975051D01*
X148275119Y-91926153D01*
X148379786Y-91850109D01*
X148379788Y-91850106D01*
X148379792Y-91850104D01*
X148530104Y-91699792D01*
X148530106Y-91699788D01*
X148530109Y-91699786D01*
X148655048Y-91527820D01*
X148655047Y-91527820D01*
X148655051Y-91527816D01*
X148751557Y-91338412D01*
X148817246Y-91136243D01*
X148850500Y-90926287D01*
X148850500Y-90713713D01*
X148817246Y-90503757D01*
X148751557Y-90301588D01*
X148655051Y-90112184D01*
X148655049Y-90112181D01*
X148655048Y-90112179D01*
X148530109Y-89940213D01*
X148379786Y-89789890D01*
X148207820Y-89664951D01*
X148207115Y-89664591D01*
X148199054Y-89660485D01*
X148148259Y-89612512D01*
X148131463Y-89544692D01*
X148153999Y-89478556D01*
X148199054Y-89439515D01*
X148207816Y-89435051D01*
X148272972Y-89387713D01*
X148379786Y-89310109D01*
X148379788Y-89310106D01*
X148379792Y-89310104D01*
X148530104Y-89159792D01*
X148530106Y-89159788D01*
X148530109Y-89159786D01*
X148655048Y-88987820D01*
X148655047Y-88987820D01*
X148655051Y-88987816D01*
X148751557Y-88798412D01*
X148817246Y-88596243D01*
X148850500Y-88386287D01*
X148850500Y-88173713D01*
X148817246Y-87963757D01*
X148751557Y-87761588D01*
X148655051Y-87572184D01*
X148655049Y-87572181D01*
X148655048Y-87572179D01*
X148530109Y-87400213D01*
X148379786Y-87249890D01*
X148207818Y-87124950D01*
X148207450Y-87124762D01*
X148199054Y-87120485D01*
X148148259Y-87072512D01*
X148131463Y-87004692D01*
X148153999Y-86938556D01*
X148199054Y-86899515D01*
X148207816Y-86895051D01*
X148277189Y-86844649D01*
X148379786Y-86770109D01*
X148379788Y-86770106D01*
X148379792Y-86770104D01*
X148530104Y-86619792D01*
X148530106Y-86619788D01*
X148530109Y-86619786D01*
X148655048Y-86447820D01*
X148655049Y-86447819D01*
X148655051Y-86447816D01*
X148751557Y-86258412D01*
X148817246Y-86056243D01*
X148850500Y-85846287D01*
X148850500Y-85633713D01*
X148817246Y-85423757D01*
X148751557Y-85221588D01*
X148751556Y-85221586D01*
X148750051Y-85216954D01*
X148751428Y-85216506D01*
X148744653Y-85153484D01*
X148775927Y-85091005D01*
X148836016Y-85055352D01*
X148866683Y-85051500D01*
X156521721Y-85051500D01*
X156588760Y-85071185D01*
G37*
%TD.AperFunction*%
%TA.AperFunction,Conductor*%
G36*
X146210551Y-59020185D02*
G01*
X146256306Y-59072989D01*
X146266250Y-59142147D01*
X146242779Y-59198811D01*
X146206204Y-59247668D01*
X146206202Y-59247671D01*
X146155908Y-59382517D01*
X146152713Y-59412240D01*
X146149501Y-59442123D01*
X146149500Y-59442135D01*
X146149500Y-61237870D01*
X146149501Y-61237876D01*
X146155908Y-61297483D01*
X146206202Y-61432328D01*
X146206206Y-61432335D01*
X146292452Y-61547544D01*
X146292455Y-61547547D01*
X146407664Y-61633793D01*
X146407671Y-61633797D01*
X146539082Y-61682810D01*
X146595016Y-61724681D01*
X146619433Y-61790145D01*
X146604582Y-61858418D01*
X146583431Y-61886673D01*
X146469889Y-62000215D01*
X146344951Y-62172179D01*
X146248444Y-62361585D01*
X146182753Y-62563760D01*
X146149500Y-62773713D01*
X146149500Y-62986286D01*
X146176418Y-63156243D01*
X146182754Y-63196243D01*
X146235994Y-63360099D01*
X146249949Y-63403046D01*
X146248571Y-63403493D01*
X146255347Y-63466516D01*
X146224073Y-63528995D01*
X146163984Y-63564648D01*
X146133317Y-63568500D01*
X136846862Y-63568500D01*
X136779823Y-63548815D01*
X136734068Y-63496011D01*
X136724124Y-63426853D01*
X136736377Y-63388206D01*
X136751554Y-63358417D01*
X136751557Y-63358412D01*
X136817246Y-63156243D01*
X136850500Y-62946287D01*
X136850500Y-62733713D01*
X136817246Y-62523757D01*
X136751557Y-62321588D01*
X136655051Y-62132184D01*
X136655049Y-62132181D01*
X136655048Y-62132179D01*
X136530109Y-61960213D01*
X136416181Y-61846285D01*
X136382696Y-61784962D01*
X136387680Y-61715270D01*
X136429552Y-61659337D01*
X136460529Y-61642422D01*
X136592086Y-61593354D01*
X136592093Y-61593350D01*
X136707187Y-61507190D01*
X136707190Y-61507187D01*
X136793350Y-61392093D01*
X136793354Y-61392086D01*
X136843596Y-61257379D01*
X136843598Y-61257372D01*
X136849999Y-61197844D01*
X136850000Y-61197827D01*
X136850000Y-60550000D01*
X135933012Y-60550000D01*
X135965925Y-60492993D01*
X136000000Y-60365826D01*
X136000000Y-60234174D01*
X135965925Y-60107007D01*
X135933012Y-60050000D01*
X136850000Y-60050000D01*
X136850000Y-59402172D01*
X136849999Y-59402155D01*
X136843598Y-59342627D01*
X136843596Y-59342620D01*
X136793354Y-59207913D01*
X136793353Y-59207911D01*
X136786540Y-59198810D01*
X136762124Y-59133345D01*
X136776976Y-59065072D01*
X136826382Y-59015667D01*
X136885808Y-59000500D01*
X146143512Y-59000500D01*
X146210551Y-59020185D01*
G37*
%TD.AperFunction*%
%TA.AperFunction,Conductor*%
G36*
X161272085Y-59020185D02*
G01*
X161317840Y-59072989D01*
X161327784Y-59142147D01*
X161298759Y-59205703D01*
X161292727Y-59212181D01*
X161292452Y-59212455D01*
X161206206Y-59327664D01*
X161206202Y-59327671D01*
X161155908Y-59462517D01*
X161149501Y-59522116D01*
X161149501Y-59522123D01*
X161149500Y-59522135D01*
X161149500Y-61317870D01*
X161149501Y-61317876D01*
X161155908Y-61377483D01*
X161206202Y-61512328D01*
X161206206Y-61512335D01*
X161292452Y-61627544D01*
X161292455Y-61627547D01*
X161407664Y-61713793D01*
X161407671Y-61713797D01*
X161436853Y-61724681D01*
X161542517Y-61764091D01*
X161602127Y-61770500D01*
X161612685Y-61770499D01*
X161679723Y-61790179D01*
X161700372Y-61806818D01*
X162370591Y-62477037D01*
X162307007Y-62494075D01*
X162192993Y-62559901D01*
X162099901Y-62652993D01*
X162034075Y-62767007D01*
X162017037Y-62830591D01*
X161384728Y-62198282D01*
X161384727Y-62198282D01*
X161345380Y-62252439D01*
X161248904Y-62441782D01*
X161183242Y-62643869D01*
X161183242Y-62643872D01*
X161150000Y-62853753D01*
X161150000Y-63066246D01*
X161183242Y-63276127D01*
X161183242Y-63276130D01*
X161225499Y-63406182D01*
X161227494Y-63476023D01*
X161191414Y-63535856D01*
X161128713Y-63566684D01*
X161107568Y-63568500D01*
X148866683Y-63568500D01*
X148799644Y-63548815D01*
X148753889Y-63496011D01*
X148743945Y-63426853D01*
X148750441Y-63403172D01*
X148750051Y-63403046D01*
X148755427Y-63386501D01*
X148817246Y-63196243D01*
X148850500Y-62986287D01*
X148850500Y-62773713D01*
X148817246Y-62563757D01*
X148751557Y-62361588D01*
X148655051Y-62172184D01*
X148655049Y-62172181D01*
X148655048Y-62172179D01*
X148530109Y-62000213D01*
X148416569Y-61886673D01*
X148383084Y-61825350D01*
X148388068Y-61755658D01*
X148429940Y-61699725D01*
X148460915Y-61682810D01*
X148592331Y-61633796D01*
X148707546Y-61547546D01*
X148793796Y-61432331D01*
X148844091Y-61297483D01*
X148850500Y-61237873D01*
X148850499Y-59442128D01*
X148844091Y-59382517D01*
X148836496Y-59362155D01*
X148793797Y-59247671D01*
X148793795Y-59247668D01*
X148757221Y-59198811D01*
X148732804Y-59133347D01*
X148747656Y-59065074D01*
X148797061Y-59015668D01*
X148856488Y-59000500D01*
X161205046Y-59000500D01*
X161272085Y-59020185D01*
G37*
%TD.AperFunction*%
%TA.AperFunction,Conductor*%
G36*
X134181231Y-59020185D02*
G01*
X134226986Y-59072989D01*
X134236930Y-59142147D01*
X134213460Y-59198810D01*
X134206646Y-59207911D01*
X134206645Y-59207913D01*
X134156403Y-59342620D01*
X134156401Y-59342627D01*
X134150000Y-59402155D01*
X134150000Y-60050000D01*
X135066988Y-60050000D01*
X135034075Y-60107007D01*
X135000000Y-60234174D01*
X135000000Y-60365826D01*
X135034075Y-60492993D01*
X135066988Y-60550000D01*
X134150000Y-60550000D01*
X134150000Y-61197844D01*
X134156401Y-61257372D01*
X134156403Y-61257379D01*
X134206645Y-61392086D01*
X134206649Y-61392093D01*
X134292809Y-61507187D01*
X134292812Y-61507190D01*
X134407906Y-61593350D01*
X134407913Y-61593354D01*
X134539470Y-61642422D01*
X134595404Y-61684293D01*
X134619821Y-61749758D01*
X134604969Y-61818031D01*
X134583819Y-61846285D01*
X134469889Y-61960215D01*
X134344951Y-62132179D01*
X134248444Y-62321585D01*
X134182753Y-62523760D01*
X134149500Y-62733713D01*
X134149500Y-62946286D01*
X134176400Y-63116130D01*
X134182754Y-63156243D01*
X134236928Y-63322973D01*
X134237971Y-63326182D01*
X134239966Y-63396023D01*
X134203886Y-63455856D01*
X134141185Y-63486684D01*
X134120040Y-63488500D01*
X116366141Y-63488500D01*
X116299102Y-63468815D01*
X116253347Y-63416011D01*
X116243403Y-63346853D01*
X116249955Y-63322973D01*
X116249589Y-63322854D01*
X116316757Y-63116130D01*
X116316757Y-63116127D01*
X116350000Y-62906246D01*
X116350000Y-62693753D01*
X116316757Y-62483872D01*
X116316757Y-62483869D01*
X116251095Y-62281782D01*
X116154624Y-62092449D01*
X116115270Y-62038282D01*
X116115269Y-62038282D01*
X115482962Y-62670589D01*
X115465925Y-62607007D01*
X115400099Y-62492993D01*
X115307007Y-62399901D01*
X115192993Y-62334075D01*
X115129409Y-62317037D01*
X115798802Y-61647642D01*
X115860125Y-61614157D01*
X115874833Y-61615078D01*
X115874556Y-61612501D01*
X115957375Y-61603598D01*
X116092086Y-61553354D01*
X116092093Y-61553350D01*
X116207187Y-61467190D01*
X116207190Y-61467187D01*
X116293350Y-61352093D01*
X116293354Y-61352086D01*
X116343596Y-61217379D01*
X116343598Y-61217372D01*
X116349999Y-61157844D01*
X116350000Y-61157827D01*
X116350000Y-60510000D01*
X115433012Y-60510000D01*
X115465925Y-60452993D01*
X115500000Y-60325826D01*
X115500000Y-60194174D01*
X115465925Y-60067007D01*
X115433012Y-60010000D01*
X116350000Y-60010000D01*
X116350000Y-59362172D01*
X116349999Y-59362155D01*
X116343598Y-59302627D01*
X116343596Y-59302620D01*
X116293324Y-59167833D01*
X116288340Y-59098142D01*
X116321825Y-59036819D01*
X116383148Y-59003334D01*
X116409506Y-59000500D01*
X134114192Y-59000500D01*
X134181231Y-59020185D01*
G37*
%TD.AperFunction*%
%TD*%
M02*
